<svg width="72" height="15" viewBox="0 0 72 15" fill="none" xmlns="http://www.w3.org/2000/svg">
<path d="M8.86341 11.9011H4.24231L3.10767 14.5774H0.394836L6.67664 0.385193H6.80042L13.0616 14.5774H9.89491L8.86341 11.9011ZM7.94538 9.62025L6.60444 6.29522L5.2016 9.62025H7.94538Z" fill="#7E7E7E"/>
<path d="M21.313 3.21324C20.8194 3.17766 20.3264 3.29082 19.8999 3.53763C19.7263 3.66146 19.5885 3.82747 19.4999 4.01939C19.4113 4.21132 19.375 4.42257 19.3944 4.63246C19.4068 4.86764 19.4807 5.09571 19.609 5.29461C19.7373 5.49351 19.9156 5.65651 20.1268 5.76784C20.7308 6.16011 21.3822 6.47681 22.066 6.7106C22.6595 6.91664 23.2271 7.18874 23.7577 7.52158C24.2375 7.84603 24.6332 8.27657 24.9129 8.77861C25.2407 9.40427 25.3971 10.103 25.3668 10.8061C25.3718 11.5198 25.1671 12.2199 24.7774 12.8222C24.3877 13.4246 23.8295 13.9037 23.1697 14.2021C22.369 14.5778 21.4881 14.7586 20.6013 14.7292C19.7689 14.7299 18.9412 14.6069 18.1463 14.3642C17.3251 14.1303 16.5506 13.76 15.8564 13.2694L17.1148 11.1609C17.6154 11.5233 18.1682 11.8103 18.7549 12.0124C19.2873 12.2217 19.8528 12.3384 20.4259 12.3571C20.9553 12.369 21.4784 12.2431 21.9422 11.9921C22.1496 11.8685 22.317 11.6894 22.4247 11.4758C22.5325 11.2622 22.5762 11.0229 22.5508 10.7858C22.5508 10.0863 21.8803 9.47808 20.4878 8.97122C19.8058 8.71536 19.1408 8.41741 18.497 8.07913C17.9494 7.78494 17.4768 7.37247 17.1148 6.8728C16.7073 6.27478 16.5049 5.5644 16.5372 4.84534C16.5229 4.31678 16.6231 3.79128 16.8312 3.30367C17.0393 2.81606 17.3504 2.37749 17.744 2.01704C18.6087 1.25261 19.7271 0.823784 20.8901 0.810705C21.7661 0.792786 22.6396 0.909069 23.4792 1.15537C24.2097 1.40142 24.9035 1.74235 25.5422 2.1691L24.5107 4.19656C23.5459 3.60973 22.4461 3.27152 21.313 3.21324Z" fill="#7E7E7E"/>
<path d="M38.4049 0.892364V3.53819H35.0216V14.5777H32.2675V3.53819H29.0183V0.892364H38.4049Z" fill="#7E7E7E"/>
<path d="M42.9026 3.53819V0.892364H52.413V3.53819H42.9026ZM42.9026 9.06301V6.41718H51.6704V9.02246L42.9026 9.06301ZM45.6464 12.0231H52.6709V14.6182H42.9026V11.9825L45.6464 12.0231Z" fill="#7E7E7E"/>
<path d="M65.1516 14.5776C64.6702 14.6788 64.1792 14.7298 63.6869 14.7297C62.4402 14.7391 61.2141 14.4168 60.1386 13.7971C59.3323 13.3394 58.6257 12.7301 58.0592 12.0039C57.4927 11.2777 57.0773 10.4489 56.8369 9.56489C56.5964 8.68088 56.5356 7.75896 56.6579 6.85183C56.7802 5.9447 57.0832 5.07015 57.5495 4.27816C58.1715 3.21433 59.0636 2.32717 60.1386 1.70329C61.2121 1.07587 62.4379 0.744707 63.6869 0.744707C64.9359 0.744707 66.1618 1.07587 67.2353 1.70329C68.3162 2.3299 69.2177 3.21584 69.8552 4.27816C70.3715 5.1274 70.6934 6.07695 70.7985 7.06081C70.9036 8.04467 70.7894 9.03921 70.4638 9.97531C70.2253 10.6792 69.8774 11.3426 69.4323 11.9419H71.6501V14.5776H65.1516ZM60.0045 9.9449C60.384 10.5962 60.9274 11.1408 61.5827 11.5263C62.2463 11.9264 63.0116 12.1337 63.7901 12.1244C64.5449 12.1264 65.2849 11.9191 65.9253 11.5263C66.5605 11.1359 67.0827 10.5912 67.4416 9.9449C67.8009 9.26907 67.9885 8.51779 67.9882 7.75524C67.9877 6.99031 67.7926 6.23765 67.4209 5.56559C67.0635 4.92739 66.5409 4.39329 65.906 4.01732C65.2711 3.64135 64.5464 3.43685 63.8053 3.4245C63.0642 3.41215 62.3329 3.59241 61.6854 3.94702C61.0379 4.30163 60.4972 4.81802 60.1179 5.44394C60.0901 5.48221 60.0659 5.52293 60.0457 5.56559C59.6646 6.23396 59.4689 6.9891 59.4784 7.75524C59.4548 8.51789 59.6363 9.27317 60.0045 9.9449Z" fill="#7E7E7E"/>
</svg>
