<svg width="16" height="16" viewBox="0 0 16 16" fill="none" xmlns="http://www.w3.org/2000/svg">
<path d="M15.7071 1.70711C16.0976 1.31658 16.0976 0.683417 15.7071 0.292893C15.3166 -0.0976312 14.6834 -0.0976309 14.2929 0.292893L8.00001 6.58579L1.70711 0.292893C1.31658 -0.0976309 0.683418 -0.0976312 0.292893 0.292893C-0.0976307 0.683417 -0.0976311 1.31658 0.292893 1.70711L6.58579 8.00001L0.292893 14.2929C-0.0976307 14.6834 -0.0976314 15.3166 0.292893 15.7071C0.683417 16.0976 1.31658 16.0976 1.70711 15.7071L8.00001 9.41422L14.2929 15.7071C14.6834 16.0976 15.3166 16.0976 15.7071 15.7071C16.0976 15.3166 16.0976 14.6834 15.7071 14.2929L9.41422 8.00001L15.7071 1.70711Z" fill="#B3B2B2"/>
</svg>
