<svg width="16" height="20" viewBox="0 0 16 20" fill="none" xmlns="http://www.w3.org/2000/svg">
<path d="M9.79797 1.90563C10.5235 1.77889 11.2462 1.85898 11.8962 2.1581C13.001 2.65915 13.7782 3.5832 14.1097 4.75394C14.2525 5.32413 14.2741 5.92002 14.1731 6.49986C14.072 7.0797 13.8507 7.62946 13.5247 8.11063C13.0138 8.84704 12.3002 9.38437 11.4582 9.62525C9.81793 10.0994 8.46062 11.0493 7.55379 12.3988C7.44328 12.5564 7.27812 12.6627 7.09357 12.6949C6.90902 12.7272 6.71971 12.6828 6.56606 12.5714L5.55586 11.8193C5.48455 11.7668 5.42397 11.6999 5.37764 11.6227C5.33132 11.5454 5.30017 11.4593 5.28602 11.3694C5.24944 11.1413 5.31341 10.9238 5.46625 10.7001C6.34543 9.40232 6.75525 7.81133 6.64047 6.08689C6.55953 4.85363 7.01336 3.70514 7.91759 2.84376C8.43159 2.35067 9.08121 2.03085 9.79797 1.90563ZM9.50537 0.0809535C8.48267 0.259612 7.50679 0.73022 6.71904 1.47747C5.34594 2.77716 4.75555 4.531 4.87321 6.21742C4.9527 7.44156 4.69559 8.64009 4.02602 9.61993L4.00418 9.65188C3.15993 10.8873 3.41888 12.5022 4.52966 13.3211L5.53986 14.0731C6.10108 14.4909 6.76119 14.6288 7.3818 14.5204C8.00242 14.412 8.59227 14.0557 8.99256 13.4699C9.69853 12.4368 10.7398 11.7578 11.9329 11.4087C13.1085 11.0627 14.192 10.3107 14.9649 9.19085C15.4491 8.4834 15.7747 7.6714 15.9176 6.81491C16.0605 5.95841 16.0171 5.07934 15.7907 4.2427C15.5642 3.40606 15.1604 2.63327 14.6092 1.98148C14.058 1.32969 13.3734 0.815577 12.6061 0.477168C11.6253 0.020127 10.5456 -0.100759 9.50537 0.0809535ZM3.85802 17.8184C4.17595 18.288 4.19677 18.9222 3.85324 19.4136C3.70554 19.6332 3.49964 19.8031 3.26081 19.9023C3.02197 20.0015 2.76058 20.0258 2.5087 19.9722C2.25682 19.9186 2.0254 19.7895 1.84283 19.6006C1.66025 19.4117 1.53447 19.1713 1.4809 18.9089C1.22574 18.9415 0.967021 18.8956 0.73647 18.777C0.50592 18.6583 0.313566 18.472 0.183005 18.2409C0.0524434 18.0097 -0.0106485 17.7439 0.00146813 17.4759C0.0135846 17.2079 0.100383 16.9494 0.251216 16.7321C0.586005 16.2422 1.17451 16.0456 1.69476 16.2079L3.50703 13.6122C3.6572 13.7642 3.82924 13.9405 4.01292 14.0772L5.02312 14.8293C5.23594 14.9797 5.43563 15.1042 5.68484 15.2014L3.85802 17.8184Z" fill="black"/>
</svg>
