<svg width="31" height="38" viewBox="0 0 31 38" fill="none" xmlns="http://www.w3.org/2000/svg">
<path d="M18.8712 4.07306C20.2315 3.83543 21.5866 3.98558 22.8054 4.54643C24.8768 5.48591 26.334 7.21851 26.9556 9.41364C27.2234 10.4827 27.264 11.6 27.0746 12.6872C26.8851 13.7744 26.4701 14.8052 25.8588 15.7074C24.9008 17.0882 23.5629 18.0957 21.9841 18.5473C18.9086 19.4363 16.3637 21.2174 14.6634 23.7478C14.4562 24.0433 14.1465 24.2426 13.8004 24.303C13.4544 24.3635 13.0995 24.2803 12.8114 24.0714L10.9172 22.6613C10.7835 22.5627 10.6699 22.4373 10.5831 22.2925C10.4962 22.1477 10.4378 21.9862 10.4113 21.8176C10.3427 21.39 10.4626 20.9821 10.7492 20.5628C12.3977 18.1294 13.1661 15.1462 12.9509 11.9129C12.7991 9.60056 13.6501 7.44715 15.3455 5.83205C16.3092 4.9075 17.5273 4.30784 18.8712 4.07306ZM18.3226 0.651788C16.405 0.986773 14.5752 1.86916 13.0982 3.27025C10.5236 5.70718 9.41665 8.99563 9.63728 12.1577C9.78631 14.4529 9.30424 16.7002 8.04878 18.5374L8.00784 18.5973C6.42487 20.9137 6.9104 23.9416 8.99311 25.477L10.8872 26.8871C11.9395 27.6704 13.1772 27.929 14.3409 27.7257C15.5045 27.5225 16.6105 26.8544 17.3611 25.7561C18.6847 23.8191 20.6372 22.546 22.8742 21.8914C25.0784 21.2425 27.11 19.8325 28.5592 17.7328C29.467 16.4064 30.0775 14.8839 30.3455 13.2779C30.6135 11.672 30.5321 10.0238 30.1075 8.45506C29.6828 6.88637 28.9257 5.43738 27.8922 4.21527C26.8587 2.99317 25.5751 2.02921 24.1365 1.39469C22.2974 0.537738 20.2729 0.311076 18.3226 0.651788ZM7.73378 33.9094C8.32991 34.7901 8.36894 35.9791 7.72482 36.9006C7.44789 37.3123 7.06183 37.6307 6.61402 37.8168C6.1662 38.0028 5.67609 38.0484 5.20381 37.9479C4.73153 37.8475 4.29762 37.6053 3.9553 37.2511C3.61298 36.897 3.37713 36.4463 3.27669 35.9542C2.79827 36.0153 2.31316 35.9293 1.88088 35.7068C1.4486 35.4843 1.08794 35.135 0.843134 34.7016C0.598331 34.2683 0.480034 33.7698 0.502753 33.2672C0.525471 32.7647 0.688218 32.2801 0.97103 31.8727C1.59876 30.9541 2.7022 30.5855 3.67768 30.8899L7.07568 26.023C7.35725 26.3079 7.67983 26.6384 8.02422 26.8948L9.91834 28.3049C10.3174 28.5869 10.6918 28.8204 11.1591 29.0026L7.73378 33.9094Z" fill="#EF4D08"/>
</svg>
