<svg width="134" height="70" viewBox="0 0 134 70" fill="none" xmlns="http://www.w3.org/2000/svg">
<g clip-path="url(#clip0_2589_2095)">
<path fill-rule="evenodd" clip-rule="evenodd" d="M32.9043 23.949C32.9043 25.3097 31.4683 25.99 31.4683 28.8298C31.4683 30.5454 32.2932 31.9949 33.1181 32.7936C34.3402 33.9768 37.9453 38.1476 39.1674 39.4492C39.4423 39.745 39.6256 39.9816 39.8701 40.2183L41.2143 41.7269C42.7725 41.8452 48.6079 37.1123 49.0661 36.6095C48.7912 36.2545 44.2695 27.2028 43.7196 26.1379C42.9863 24.7181 42.1614 23.6532 40.5117 23.0024C36.9982 21.6121 36.0205 23.5053 34.3707 21.7304C34.0652 21.4642 5.26506 -16.8915 5.08175 -17.3057H0.804504L26.3967 15.134C28.1993 17.4708 30.5518 20.1331 32.2932 22.4108C32.5987 22.8545 32.9043 23.2686 32.9043 23.949ZM42.0698 33.0006C41.581 32.202 41.0616 31.4329 40.5422 30.6342C40.2061 30.1313 38.9841 28.6227 40.42 28.2677C41.2449 28.0607 41.7948 29.1256 42.4364 30.0722C43.8418 32.1428 45.8277 34.805 47.2941 36.8757C46.9886 37.0827 46.5303 37.1419 46.1637 37.2898C45.7666 37.4377 45.4916 37.5856 45.1555 37.7335L42.0698 33.0006ZM42.0698 40.2479C41.917 39.8929 37.8536 33.888 37.3954 33.2373C36.7538 32.2907 35.8678 31.3737 36.5399 30.7229C37.5481 29.7468 38.3425 31.3441 38.7396 31.9061C40.1145 33.7697 42.4364 36.8165 43.689 38.6209C43.4141 38.9463 43.1391 39.0942 42.8641 39.39L42.0698 40.2479Z" fill="#837258"/>
<path fill-rule="evenodd" clip-rule="evenodd" d="M43.0474 58.4397C43.9945 59.7708 53.6183 59.5637 55.7264 58.7946C56.0319 58.6763 56.1236 58.6467 56.2152 58.3509C55.2987 57.079 43.5363 57.1381 43.0474 58.4397Z" fill="#837258"/>
<path fill-rule="evenodd" clip-rule="evenodd" d="M55.9369 58.0997C56.0756 58.1698 56.1806 58.2471 56.2423 58.3326L56.2514 58.3453L56.2468 58.3601C56.2003 58.5102 56.1521 58.5986 56.0722 58.6637C55.9987 58.7237 55.9 58.7619 55.7619 58.8153C55.7542 58.8182 55.7465 58.8212 55.7386 58.8243L55.738 58.8245C55.2063 59.0185 54.2055 59.1759 52.9921 59.2826C51.7775 59.3895 50.3462 59.4459 48.9513 59.4367C47.5565 59.4274 46.1972 59.3525 45.1267 59.1964C44.5915 59.1184 44.1274 59.0199 43.7668 58.8988C43.4079 58.7782 43.145 58.6331 43.0202 58.4578L43.0106 58.4442L43.0164 58.4287C43.0504 58.338 43.1318 58.2567 43.2477 58.1834C43.3641 58.1098 43.5187 58.0421 43.7052 57.9798C44.0782 57.8551 44.5837 57.7507 45.1774 57.6662C46.3652 57.4972 47.9116 57.4075 49.4707 57.3983C51.0298 57.389 52.6028 57.4602 53.844 57.6134C54.4644 57.69 55.0029 57.7872 55.4156 57.9055C55.622 57.9646 55.7978 58.0293 55.9369 58.0997ZM43.0847 58.4353C43.201 58.5871 43.442 58.722 43.7885 58.8384C44.1437 58.9578 44.6033 59.0555 45.1365 59.1332C46.2027 59.2887 47.5586 59.3635 48.9517 59.3728C50.3447 59.382 51.7738 59.3256 52.9861 59.219C54.1995 59.1122 55.192 58.9554 55.7144 58.7648C55.7145 58.7648 55.7146 58.7648 55.7147 58.7647L55.7299 58.7588C55.8755 58.7025 55.9645 58.668 56.0297 58.6149C56.0927 58.5635 56.1354 58.4926 56.1788 58.3568C56.1245 58.2877 56.0334 58.2206 55.9064 58.1563C55.7723 58.0885 55.6009 58.0252 55.3969 57.9668C54.989 57.8499 54.4544 57.7532 53.8356 57.6768C52.5982 57.5241 51.0283 57.4529 49.4711 57.4622C47.9139 57.4714 46.3707 57.561 45.187 57.7294C44.5949 57.8137 44.0941 57.9174 43.7267 58.0402C43.543 58.1016 43.3939 58.1673 43.2838 58.2369C43.181 58.3019 43.1152 58.3685 43.0847 58.4353Z" fill="#837258"/>
<path fill-rule="evenodd" clip-rule="evenodd" d="M45.7044 51.0136C46.8295 51.4658 48.1032 51.6919 49.5254 51.6919C50.9477 51.6919 52.2108 51.4658 53.3146 51.0136C54.4185 50.5614 55.3525 49.9448 56.1167 49.1638C56.8809 48.3828 57.4647 47.4887 57.868 46.4816C58.2714 45.4745 58.473 44.416 58.473 43.3062C58.473 42.1757 58.2714 41.107 57.868 40.0999C57.4647 39.0928 56.8809 38.1987 56.1167 37.4177C55.3525 36.6367 54.4185 36.0201 53.3146 35.5679C52.2108 35.1157 50.9477 34.8896 49.5254 34.8896C48.1032 34.8896 46.8295 35.1157 45.7044 35.5679C44.6005 36.0201 43.6665 36.6367 42.9023 37.4177C42.1381 38.1987 41.5543 39.0928 41.151 40.0999C40.7689 41.107 40.5778 42.1757 40.5778 43.3062C40.5778 44.416 40.7689 45.4745 41.151 46.4816C41.5543 47.4887 42.1381 48.3828 42.9023 49.1638C43.6665 49.9448 44.6005 50.5614 45.7044 51.0136ZM46.2776 45.5259C45.9591 44.8888 45.7999 44.1488 45.7999 43.3062C45.7999 42.4635 45.9591 41.7236 46.2776 41.0864C46.6172 40.4493 47.063 39.956 47.6149 39.6066C48.1668 39.2572 48.8037 39.0825 49.5254 39.0825C50.226 39.0825 50.8522 39.2572 51.4041 39.6066C51.9773 39.956 52.4231 40.4493 52.7415 41.0864C53.0599 41.7236 53.2191 42.4635 53.2191 43.3062C53.2191 44.1283 53.0599 44.8579 52.7415 45.4951C52.4231 46.1322 51.9773 46.6358 51.4041 47.0057C50.8522 47.3551 50.226 47.5298 49.5254 47.5298C48.8037 47.5298 48.1668 47.3551 47.6149 47.0057C47.063 46.6563 46.6172 46.1631 46.2776 45.5259Z" fill="#EF4D08"/>
<path d="M67.3124 51.1741L71.6747 57.6484H77.0879L70.5603 48.4303L76.5784 41.4627H71.1971L65.5292 48.1528V35.1426H60.4345V57.6484H65.5292V52.9314L67.3124 51.1741Z" fill="#EF4D08"/>
<path d="M0.776841 42.6035C0.26737 43.8777 0.0126343 45.1829 0.0126343 46.5188C0.0126343 47.9164 0.277984 49.2935 0.808683 50.65C1.36061 51.986 2.12482 53.1986 3.1013 54.2879C4.09902 55.3567 5.27717 56.2199 6.63576 56.8776C8.01558 57.5148 9.52277 57.8333 11.1573 57.8333C12.4098 57.8333 13.6728 57.6381 14.9465 57.2476C16.2414 56.8365 17.3983 56.2507 18.4173 55.4903C19.4362 54.7298 20.1686 53.8152 20.6144 52.7464L16.3476 50.3109C16.0504 51.0303 15.6152 51.616 15.042 52.0682C14.4901 52.4998 13.8851 52.8184 13.227 53.0239C12.569 53.2294 11.9215 53.3322 11.2847 53.3322C10.3931 53.3322 9.57584 53.1575 8.83286 52.8081C8.08988 52.4381 7.45304 51.9449 6.92234 51.3283C6.41287 50.7117 6.02015 50.0026 5.74419 49.201C5.46822 48.3994 5.33024 47.567 5.33024 46.7038C5.33024 45.9228 5.44699 45.1418 5.6805 44.3607C5.91401 43.5797 6.27489 42.8706 6.76313 42.2335C7.25137 41.5963 7.86698 41.0928 8.60996 40.7228C9.35294 40.3323 10.2233 40.1371 11.221 40.1371C11.8366 40.1371 12.4735 40.2296 13.1315 40.4145C13.8108 40.579 14.4264 40.877 14.9784 41.3086C15.5515 41.7402 16.0079 42.3465 16.3476 43.1276L20.3596 40.4145C19.5954 38.9964 18.4279 37.8454 16.857 36.9616C15.3074 36.0778 13.4712 35.6359 11.3484 35.6359C9.56522 35.6359 7.97312 35.9545 6.57208 36.5917C5.17103 37.2083 3.98227 38.0407 3.00578 39.0889C2.02929 40.1371 1.28631 41.3086 0.776841 42.6035Z" fill="#EF4D08"/>
<path fill-rule="evenodd" clip-rule="evenodd" d="M31.0718 57.1929C29.6495 57.1929 28.3758 56.9668 27.2507 56.5146C26.1469 56.0624 25.2129 55.4458 24.4487 54.6648C23.6844 53.8838 23.1007 52.9897 22.6973 51.9826C22.3152 50.9755 22.1242 49.917 22.1242 48.8072C22.1242 47.6767 22.3152 46.608 22.6973 45.6009C23.1007 44.5938 23.6844 43.6997 24.4487 42.9187C25.2129 42.1377 26.1469 41.5211 27.2507 41.0689C28.3758 40.6167 29.6495 40.3906 31.0718 40.3906C32.4941 40.3906 33.7571 40.6167 34.861 41.0689C35.9648 41.5211 36.8989 42.1377 37.6631 42.9187C38.4273 43.6997 39.011 44.5938 39.4144 45.6009C39.8177 46.608 40.0194 47.6767 40.0194 48.8072C40.0194 49.917 39.8177 50.9755 39.4144 51.9826C39.011 52.9897 38.4273 53.8838 37.6631 54.6648C36.8989 55.4458 35.9648 56.0624 34.861 56.5146C33.7571 56.9668 32.4941 57.1929 31.0718 57.1929ZM27.3463 48.8072C27.3463 49.6498 27.5055 50.3898 27.8239 51.0269C28.1635 51.6641 28.6093 52.1573 29.1613 52.5067C29.7132 52.8561 30.35 53.0308 31.0718 53.0308C31.7723 53.0308 32.3985 52.8561 32.9505 52.5067C33.5236 52.1368 33.9694 51.6332 34.2878 50.9961C34.6062 50.3589 34.7654 49.6293 34.7654 48.8072C34.7654 47.9645 34.6062 47.2246 34.2878 46.5874C33.9694 45.9503 33.5236 45.457 32.9505 45.1076C32.3985 44.7582 31.7723 44.5835 31.0718 44.5835C30.35 44.5835 29.7132 44.7582 29.1613 45.1076C28.6093 45.457 28.1635 45.9503 27.8239 46.5874C27.5055 47.2246 27.3463 47.9645 27.3463 48.8072Z" fill="#EF4D08"/>
<path fill-rule="evenodd" clip-rule="evenodd" d="M120.162 57.1904C121.329 57.6592 122.65 57.8937 124.125 57.8937C125.599 57.8937 126.909 57.6592 128.054 57.1904C129.198 56.7215 130.167 56.0821 130.959 55.2723C131.752 54.4624 132.357 53.5353 132.775 52.491C133.194 51.4467 133.403 50.3492 133.403 49.1983C133.403 48.0261 133.194 46.9179 132.775 45.8736C132.357 44.8293 131.752 43.9022 130.959 43.0923C130.167 42.2825 129.198 41.6431 128.054 41.1743C126.909 40.7054 125.599 40.4709 124.125 40.4709C122.65 40.4709 121.329 40.7054 120.162 41.1743C119.018 41.6431 118.049 42.2825 117.257 43.0923C116.464 43.9022 115.859 44.8293 115.441 45.8736C115.045 46.9179 114.847 48.0261 114.847 49.1983C114.847 50.3492 115.045 51.4467 115.441 52.491C115.859 53.5353 116.464 54.4624 117.257 55.2723C118.049 56.0821 119.018 56.7215 120.162 57.1904ZM120.757 51.5C120.427 50.8393 120.262 50.0721 120.262 49.1983C120.262 48.3245 120.427 47.5573 120.757 46.8966C121.109 46.2359 121.571 45.7244 122.144 45.3621C122.716 44.9998 123.376 44.8186 124.125 44.8186C124.851 44.8186 125.5 44.9998 126.073 45.3621C126.667 45.7244 127.129 46.2359 127.459 46.8966C127.79 47.5573 127.955 48.3245 127.955 49.1983C127.955 50.0508 127.79 50.8074 127.459 51.468C127.129 52.1287 126.667 52.6509 126.073 53.0345C125.5 53.3968 124.851 53.578 124.125 53.578C123.376 53.578 122.716 53.3968 122.144 53.0345C121.571 52.6722 121.109 52.1607 120.757 51.5Z" fill="#837258"/>
<path fill-rule="evenodd" clip-rule="evenodd" d="M103.628 58.1054C102.154 58.1054 100.833 57.871 99.6663 57.4021C98.5216 56.9332 97.5531 56.2939 96.7607 55.484C95.9683 54.6742 95.3629 53.7471 94.9447 52.7028C94.5485 51.6585 94.3504 50.5609 94.3504 49.41C94.3504 48.2379 94.5485 47.1296 94.9447 46.0853C95.3629 45.041 95.9683 44.114 96.7607 43.3041C97.5531 42.4942 98.5216 41.8549 99.6663 41.386C100.833 40.9171 102.154 40.6827 103.628 40.6827C105.103 40.6827 106.413 40.9171 107.558 41.386C108.702 41.8549 109.671 42.4942 110.463 43.3041C111.256 44.114 111.861 45.041 112.279 46.0853C112.697 47.1296 112.906 48.2379 112.906 49.41C112.906 50.5609 112.697 51.6585 112.279 52.7028C111.861 53.7471 111.256 54.6742 110.463 55.484C109.671 56.2939 108.702 56.9332 107.558 57.4021C106.413 57.871 105.103 58.1054 103.628 58.1054ZM99.7653 49.41C99.7653 50.2838 99.9304 51.0511 100.261 51.7118C100.613 52.3724 101.075 52.8839 101.647 53.2462C102.22 53.6085 102.88 53.7897 103.628 53.7897C104.355 53.7897 105.004 53.6085 105.576 53.2462C106.171 52.8626 106.633 52.3405 106.963 51.6798C107.293 51.0191 107.458 50.2625 107.458 49.41C107.458 48.5362 107.293 47.769 106.963 47.1083C106.633 46.4476 106.171 45.9362 105.576 45.5738C105.004 45.2115 104.355 45.0304 103.628 45.0304C102.88 45.0304 102.22 45.2115 101.647 45.5738C101.075 45.9362 100.613 46.4476 100.261 47.1083C99.9304 47.769 99.7653 48.5362 99.7653 49.41Z" fill="#837258"/>
<path d="M93.4273 47.347H88.2641V59.3567H83.2841V47.347H78.0903V43.0282H93.4273V47.347Z" fill="#837258"/>
<path fill-rule="evenodd" clip-rule="evenodd" d="M33.9524 65.7765C33.9524 64.9273 34.1879 64.263 34.6589 63.7837C35.1299 63.3021 35.7379 63.0613 36.4828 63.0613C36.9707 63.0613 37.4104 63.1741 37.8021 63.3998C38.1938 63.6255 38.4918 63.9408 38.6961 64.3456C38.9027 64.7481 39.0061 65.2053 39.0061 65.7172C39.0061 66.236 38.8979 66.7002 38.6817 67.1097C38.4654 67.5192 38.159 67.8298 37.7625 68.0415C37.366 68.2509 36.9382 68.3556 36.4792 68.3556C35.9818 68.3556 35.5372 68.2393 35.1455 68.0066C34.7538 67.774 34.4571 67.4564 34.2552 67.0539C34.0533 66.6513 33.9524 66.2256 33.9524 65.7765ZM34.6733 65.787C34.6733 66.4035 34.844 66.8898 35.1852 67.2458C35.5288 67.5995 35.959 67.7763 36.4756 67.7763C37.0019 67.7763 37.4345 67.5971 37.7733 67.2388C38.1145 66.8805 38.2851 66.3721 38.2851 65.7137C38.2851 65.2972 38.2119 64.9343 38.0653 64.6248C37.9211 64.313 37.7084 64.0722 37.4273 63.9024C37.1485 63.7302 36.8349 63.6441 36.4865 63.6441C35.9914 63.6441 35.5649 63.8093 35.2068 64.1397C34.8512 64.4678 34.6733 65.0169 34.6733 65.787Z" fill="#837258"/>
<path d="M30.237 66.4745L30.9363 66.6455C30.7897 67.2016 30.5253 67.6262 30.1433 67.9194C29.7636 68.2102 29.2986 68.3556 28.7483 68.3556C28.1788 68.3556 27.715 68.244 27.3569 68.0206C27.0013 67.7949 26.7297 67.4692 26.5423 67.0434C26.3572 66.6176 26.2647 66.1604 26.2647 65.6718C26.2647 65.139 26.3692 64.6748 26.5783 64.2793C26.7898 63.8814 27.089 63.5801 27.4759 63.3754C27.8652 63.1683 28.2929 63.0648 28.7591 63.0648C29.2878 63.0648 29.7323 63.1951 30.0928 63.4557C30.4533 63.7162 30.7044 64.0827 30.8462 64.555L30.1577 64.7121C30.0351 64.3398 29.8573 64.0687 29.6242 63.8989C29.3911 63.729 29.0979 63.6441 28.7447 63.6441C28.3386 63.6441 27.9985 63.7383 27.7246 63.9268C27.453 64.1153 27.262 64.3689 27.1514 64.6876C27.0409 65.0041 26.9856 65.331 26.9856 65.6683C26.9856 66.1034 27.0505 66.4838 27.1803 66.8096C27.3124 67.133 27.5167 67.3749 27.7931 67.5355C28.0694 67.696 28.3686 67.7763 28.6906 67.7763C29.0823 67.7763 29.4139 67.6669 29.6855 67.4482C29.957 67.2295 30.1409 66.905 30.237 66.4745Z" fill="#837258"/>
<path fill-rule="evenodd" clip-rule="evenodd" d="M42.7684 63.7837C42.2974 64.263 42.0619 64.9273 42.0619 65.7765C42.0619 66.2256 42.1628 66.6513 42.3647 67.0539C42.5665 67.4564 42.8633 67.774 43.255 68.0066C43.6467 68.2393 44.0913 68.3556 44.5887 68.3556C45.0477 68.3556 45.4755 68.2509 45.872 68.0415C46.2685 67.8298 46.5748 67.5192 46.7911 67.1097C47.0074 66.7002 47.1155 66.236 47.1155 65.7172C47.1155 65.2053 47.0122 64.7481 46.8055 64.3456C46.6013 63.9408 46.3033 63.6255 45.9116 63.3998C45.5199 63.1741 45.0801 63.0613 44.5923 63.0613C43.8474 63.0613 43.2394 63.3021 42.7684 63.7837ZM43.2947 67.2458C42.9534 66.8898 42.7828 66.4035 42.7828 65.787C42.7828 65.0169 42.9606 64.4678 43.3163 64.1397C43.6743 63.8093 44.1009 63.6441 44.5959 63.6441C44.9444 63.6441 45.258 63.7302 45.5367 63.9024C45.8179 64.0722 46.0306 64.313 46.1747 64.6248C46.3213 64.9343 46.3946 65.2972 46.3946 65.7137C46.3946 66.3721 46.224 66.8805 45.8828 67.2388C45.5439 67.5971 45.1114 67.7763 44.5851 67.7763C44.0685 67.7763 43.6383 67.5995 43.2947 67.2458Z" fill="#837258"/>
<path d="M50.3552 68.2684V63.152H51.0545V65.6893L53.6787 63.152H54.6267L52.4099 65.2251L54.724 68.2684H53.8012L51.9196 65.6788L51.0545 66.4955V68.2684H50.3552Z" fill="#837258"/>
<path d="M57.7943 63.152V68.2684H58.4935V63.152H57.7943Z" fill="#837258"/>
<path d="M62.0863 68.2684V63.152H62.8037L65.5792 67.169V63.152H66.2497V68.2684H65.5323L62.7568 64.2479V68.2684H62.0863Z" fill="#837258"/>
<path d="M72.2649 65.6613V66.2616H73.8185V67.2144C73.6695 67.3424 73.4509 67.4634 73.1625 67.5774C72.8741 67.689 72.5786 67.7449 72.2758 67.7449C71.9273 67.7449 71.5981 67.6704 71.2881 67.5215C70.9781 67.3726 70.7414 67.1446 70.578 66.8375C70.417 66.5304 70.3365 66.1488 70.3365 65.6928C70.3365 65.3228 70.4038 64.9796 70.5383 64.6632C70.6176 64.4794 70.7282 64.3107 70.87 64.1571C71.0142 64.0036 71.2028 63.8803 71.4359 63.7872C71.669 63.6918 71.9453 63.6441 72.2649 63.6441C72.5317 63.6441 72.7744 63.6895 72.9931 63.7802C73.2118 63.8686 73.38 63.9873 73.4977 64.1362C73.6155 64.2851 73.714 64.4899 73.7933 64.7504L74.4241 64.5829C74.3328 64.2386 74.1994 63.9594 74.024 63.7453C73.8486 63.5313 73.6059 63.3649 73.2959 63.2463C72.9883 63.1253 72.6434 63.0648 72.2613 63.0648C71.7351 63.0648 71.2701 63.1695 70.8664 63.3789C70.4627 63.5883 70.1527 63.9094 69.9364 64.3421C69.7225 64.7726 69.6156 65.2367 69.6156 65.7346C69.6156 66.2372 69.7237 66.6921 69.94 67.0992C70.1563 67.5064 70.4759 67.8182 70.8988 68.0346C71.3241 68.2486 71.7964 68.3556 72.3154 68.3556C72.6999 68.3556 73.0748 68.2893 73.44 68.1567C73.8053 68.0218 74.1598 67.8217 74.5034 67.5564V65.6579L72.2649 65.6613Z" fill="#837258"/>
<path d="M85.0729 66.4745L85.7722 66.6455C85.6256 67.2016 85.3613 67.6262 84.9792 67.9194C84.5995 68.2102 84.1345 68.3556 83.5842 68.3556C83.0147 68.3556 82.5509 68.244 82.1928 68.0206C81.8372 67.7949 81.5656 67.4692 81.3782 67.0434C81.1932 66.6176 81.1007 66.1604 81.1007 65.6718C81.1007 65.139 81.2052 64.6748 81.4143 64.2793C81.6257 63.8814 81.9249 63.5801 82.3118 63.3754C82.7011 63.1683 83.1288 63.0648 83.595 63.0648C84.1237 63.0648 84.5683 63.1951 84.9287 63.4557C85.2892 63.7162 85.5403 64.0827 85.6821 64.555L84.9936 64.7121C84.8711 64.3398 84.6932 64.0687 84.4601 63.8989C84.227 63.729 83.9339 63.6441 83.5806 63.6441C83.1745 63.6441 82.8345 63.7383 82.5605 63.9268C82.289 64.1153 82.0979 64.3689 81.9874 64.6876C81.8768 65.0041 81.8216 65.331 81.8216 65.6683C81.8216 66.1034 81.8865 66.4838 82.0162 66.8096C82.1484 67.133 82.3527 67.3749 82.629 67.5355C82.9054 67.696 83.2045 67.7763 83.5265 67.7763C83.9183 67.7763 84.2499 67.6669 84.5214 67.4482C84.793 67.2295 84.9768 66.905 85.0729 66.4745Z" fill="#837258"/>
<path d="M88.9722 63.152V68.2684H92.274V67.6646H89.6715V63.152H88.9722Z" fill="#837258"/>
<path d="M98.9415 63.152H99.6408V66.1081C99.6408 66.6223 99.5807 67.0306 99.4606 67.3331C99.3404 67.6355 99.1229 67.8822 98.8081 68.0729C98.4957 68.2614 98.0848 68.3556 97.5754 68.3556C97.0803 68.3556 96.6754 68.273 96.3606 68.1078C96.0458 67.9426 95.8211 67.7042 95.6865 67.3924C95.552 67.0783 95.4847 66.6502 95.4847 66.1081V63.152H96.184V66.1046C96.184 66.549 96.226 66.877 96.3101 67.0888C96.3967 67.2982 96.5432 67.4599 96.7499 67.5739C96.959 67.6879 97.2137 67.7449 97.5141 67.7449C98.0283 67.7449 98.3948 67.632 98.6135 67.4063C98.8322 67.1807 98.9415 66.7467 98.9415 66.1046V63.152Z" fill="#837258"/>
<path fill-rule="evenodd" clip-rule="evenodd" d="M103.144 63.152V68.2684H105.159C105.495 68.2684 105.779 68.2405 106.009 68.1846C106.243 68.1265 106.436 68.0415 106.59 67.9299C106.744 67.8182 106.872 67.66 106.976 67.4552C107.081 67.2481 107.134 67.0248 107.134 66.7851C107.134 66.4873 107.048 66.2291 106.875 66.0103C106.704 65.7916 106.459 65.6369 106.139 65.5462C106.387 65.4275 106.572 65.2716 106.694 65.0785C106.817 64.8854 106.878 64.6795 106.878 64.4608C106.878 64.2258 106.809 64.0013 106.669 63.7872C106.532 63.5708 106.341 63.4114 106.096 63.3091C105.853 63.2044 105.53 63.152 105.126 63.152H103.144ZM104.986 65.3019H103.843V63.7558H104.899C105.279 63.7558 105.547 63.7802 105.703 63.8291C105.859 63.8756 105.979 63.964 106.064 64.0943C106.148 64.2223 106.19 64.3712 106.19 64.541C106.19 64.7202 106.144 64.8691 106.053 64.9878C105.964 65.1064 105.83 65.1914 105.653 65.2425C105.518 65.2821 105.296 65.3019 104.986 65.3019ZM105.159 67.6646H103.843V65.9056H105.065C105.402 65.9056 105.659 65.9347 105.836 65.9929C106.017 66.0487 106.157 66.1476 106.258 66.2895C106.359 66.4291 106.41 66.5943 106.41 66.7851C106.41 66.948 106.375 67.0922 106.305 67.2179C106.235 67.3412 106.146 67.4354 106.038 67.5006C105.93 67.5657 105.796 67.6123 105.635 67.6402C105.543 67.6565 105.385 67.6646 105.159 67.6646Z" fill="#837258"/>
</g>
<defs>
<clipPath id="clip0_2589_2095">
<rect width="134" height="70" fill="white"/>
</clipPath>
</defs>
</svg>
