<svg width="22" height="20" viewBox="0 0 22 20" fill="none" xmlns="http://www.w3.org/2000/svg">
<path fill-rule="evenodd" clip-rule="evenodd" d="M14.572 3.04132C13.9225 1.32231 12.3395 0 10.31 0C8.68635 0 7.10332 1.19008 6.53506 2.29201C3.32841 0.705234 0 3.52617 0 6.83196C0 9.12397 1.2583 10.6667 3.04428 11.6364C2.93937 12.6617 2.80192 13.7694 2.66557 14.8683C2.53815 15.8952 2.41169 16.9144 2.31365 17.8512C2.305 17.9217 2.29543 17.9937 2.28572 18.0667C2.20432 18.6785 2.11337 19.3622 2.47601 19.8347C3.23419 20.0323 4.03768 20.0085 4.86956 19.9838C5.15109 19.9754 5.43587 19.9669 5.72325 19.9669H15.6273C16.1744 19.6874 16.2112 19.0476 16.2434 18.487C16.2518 18.3405 16.2599 18.1994 16.2768 18.0716C16.4761 16.1229 16.7539 13.9615 16.9945 12.089L17.0074 11.989C19.9705 12.0771 22 9.96143 22 6.96419C22 3.04132 17.941 0.484849 14.572 3.04132ZM13.3948 4.31956C13.3948 4.53035 13.3261 4.65403 13.2616 4.76994C13.2048 4.87217 13.1513 4.96836 13.1513 5.11295C13.1958 5.14519 13.2416 5.17874 13.2884 5.21312C13.6261 5.46076 14.0225 5.75152 14.4502 5.90634C14.8561 4.58402 16.2362 3.39394 17.9004 3.6584C19.524 3.87879 20.5793 5.68595 20.4576 7.40496C20.3358 8.8595 19.0775 10.314 17.1292 10.3581C17.2509 9.47658 17.2915 8.55096 16.5203 8.50689C15.7595 8.50689 15.6404 9.70694 15.5282 10.8373C15.5207 10.9131 15.5132 10.9886 15.5055 11.0634C15.4252 11.6961 15.3746 12.318 15.3293 12.8757C15.2831 13.4446 15.2423 13.9467 15.1808 14.3251H4.27738L4.2823 14.2808C4.43451 12.9145 4.58672 11.5482 4.74908 10.2259C2.92251 10.1377 1.33948 8.63912 1.54244 6.39118C1.86716 3.34986 5.84502 2.5124 7.26568 4.98072C7.34686 3.30579 8.48339 1.85124 9.90406 1.67493C11.5683 1.45455 12.9889 2.60055 13.3948 4.31956ZM14.9592 16.1833C14.9654 16.122 14.9716 16.0609 14.9779 16C13.2017 15.9002 9.04458 15.9259 6.02942 15.9445C5.30145 15.949 4.64004 15.9531 4.09478 15.9549C4.00383 16.758 3.91144 17.5547 3.8155 18.3361H14.6937C14.8062 17.6849 14.884 16.9211 14.9592 16.1833Z" fill="black"/>
</svg>
