<svg width="43" height="39" viewBox="0 0 43 39" fill="none" xmlns="http://www.w3.org/2000/svg">
<path fill-rule="evenodd" clip-rule="evenodd" d="M28.1974 6.45248C26.9797 3.22934 24.0115 0.75 20.2062 0.75C17.1619 0.75 14.1937 2.98141 13.1282 5.04752C7.11577 2.07231 0.875 7.36157 0.875 13.5599C0.875 17.8574 3.23432 20.75 6.58303 22.5682C6.38632 24.4907 6.12859 26.5677 5.87294 28.6281C5.63403 30.5536 5.39692 32.4645 5.2131 34.2211C5.19688 34.3532 5.17893 34.4881 5.16072 34.625C5.0081 35.7722 4.83757 37.054 5.51753 37.9401C6.93911 38.3106 8.44565 38.2658 10.0054 38.2195C10.5333 38.2039 11.0673 38.188 11.6061 38.188H30.1762C31.202 37.6638 31.271 36.4642 31.3314 35.4131C31.3472 35.1384 31.3624 34.874 31.3939 34.6343C31.7678 30.9805 32.2886 26.9279 32.7397 23.4168L32.7638 23.2293C38.3196 23.3946 42.125 19.4277 42.125 13.8079C42.125 6.45248 34.5143 1.65909 28.1974 6.45248ZM25.9903 8.84917C25.9903 9.24441 25.8614 9.4763 25.7405 9.69364C25.634 9.88531 25.5337 10.0657 25.5337 10.3368C25.6172 10.3972 25.7029 10.4601 25.7908 10.5246C26.4239 10.9889 27.1671 11.5341 27.9691 11.8244C28.7302 9.34504 31.3178 7.11364 34.4382 7.6095C37.4825 8.02273 39.4613 11.4112 39.2329 14.6343C39.0046 17.3616 36.6453 20.0888 32.9922 20.1715C33.2205 18.5186 33.2966 16.7831 31.8506 16.7004C30.4241 16.7004 30.2007 18.9505 29.9904 21.0699C29.9763 21.212 29.9622 21.3536 29.9479 21.4938C29.7972 22.6802 29.7024 23.8463 29.6175 24.8919C29.5308 25.9587 29.4543 26.9 29.339 27.6095H8.89508L8.90432 27.5266C9.18971 24.9647 9.4751 22.4028 9.77952 19.9236C6.35471 19.7583 3.38653 16.9483 3.76707 12.7335C4.37592 7.03099 11.8344 5.46074 14.4982 10.0888C14.6504 6.94835 16.7814 4.22107 19.4451 3.8905C22.5655 3.47727 25.2292 5.62603 25.9903 8.84917ZM28.9234 31.0936C28.9351 30.9787 28.9468 30.8641 28.9585 30.75C25.6282 30.5629 17.8336 30.6111 12.1802 30.646C10.8152 30.6545 9.57507 30.6621 8.55272 30.6655C8.38219 32.1712 8.20895 33.6651 8.02906 35.1302H28.4257C28.6365 33.9093 28.7825 32.477 28.9234 31.0936Z" fill="#EF4D08"/>
</svg>
