<svg width="188" height="386" viewBox="0 0 188 386" fill="none" xmlns="http://www.w3.org/2000/svg">
<path d="M86.4696 83.4104C82.2342 99.2239 73.2426 100.874 71.2131 108.451C70.1984 112.24 71.2779 115.001 72.3133 117.927C78.5901 133.205 87.6877 151.534 94.2157 167.232L188 386L164.239 379.629C163.839 377.049 61.0578 120.558 59.7577 118.621C53.24 106.28 44.9853 115.366 27.5413 102.39C19.3471 96.3086 16.353 89.1497 14.3975 80.1507C12.9308 73.4015 1.31294 16.2604 0.314911 13.8742C-0.342463 11.7675 -0.12245 7.19026 2.45026 6.4181C5.02296 5.64595 7.73747 8.89481 8.91723 12.5075C13.9754 26.2227 22.6749 46.5297 27.3936 60.1539C29.5458 66.3808 31.0125 73.13 35.9037 73.2057C44.4099 73.368 39.8713 63.1467 38.7544 59.8457C37.0604 54.6245 35.3223 49.568 33.798 44.3923L23.7155 13.44C22.7217 10.1409 21.5644 3.21608 24.8859 1.9096C28.5188 0.480622 31.803 7.21396 33.1856 10.6827C37.4528 22.5968 45.8071 43.0221 50.6649 55.4477C52.033 59.1691 54.0633 69.2475 61.1199 65.3134C65.8244 62.6907 62.2702 56.2645 60.1179 50.0376C58.5428 45.731 47.4635 11.4763 47.1443 9.27204C46.4079 6.74709 45.6393 1.75327 47.5521 0.427943C50.221 -1.42121 54.1049 3.22126 55.1681 4.86503C56.2314 6.5088 83.2168 58.8798 83.2168 58.8798C86.608 64.5562 89.0285 73.8564 86.4696 83.4104Z" fill="black"/>
</svg>
