<svg width="39" height="44" viewBox="0 0 39 44" fill="none" xmlns="http://www.w3.org/2000/svg">
<path d="M18.2338 0.959557L1.00814 30.7684C0.479712 31.6828 0.788491 32.8497 1.69767 33.3742L18.1627 42.8717C19.0719 43.3962 20.2378 43.0799 20.7662 42.1654L37.9919 12.3566C38.5203 11.4422 38.2115 10.2753 37.3023 9.75082L20.8373 0.253265C19.9281 -0.271178 18.7622 0.0451086 18.2338 0.959557ZM31.7506 9.8605C30.6934 11.6899 31.3108 14.0229 33.1296 15.0721L20.6889 36.6007C18.87 35.5515 16.5391 36.1839 15.4819 38.0133L7.24941 33.2645C8.30657 31.4351 7.68923 29.1021 5.87035 28.0529L18.3111 6.5243C20.13 7.57349 22.4609 6.94114 23.5181 5.11172L31.7506 9.8605Z" fill="#EF4D08"/>
<path d="M23.1722 25.6277L21.5238 24.6769L20.9692 25.6366L20.1337 25.1547L20.6883 24.1949L19.7625 23.6609L19.2079 24.6207L18.3724 24.1387L18.9271 23.179L15.2125 21.0363L16.772 18.3377C17.1069 17.7581 17.4875 17.3253 17.9138 17.0392C18.3443 16.7456 18.7915 16.597 19.2552 16.5935C19.7232 16.5825 20.1906 16.7115 20.6572 16.9807C21.1239 17.2499 21.4619 17.5854 21.6713 17.9872C21.8807 18.389 21.9626 18.8377 21.9171 19.3334C21.864 19.8246 21.6765 20.3488 21.3546 20.9058L20.6042 22.2043L21.53 22.7384L22.5806 20.9205L23.416 21.4024L22.3655 23.2203L24.0139 24.1711L23.1722 25.6277ZM19.7557 21.745L20.4017 20.6271C20.6844 20.1379 20.7906 19.7023 20.7202 19.3205C20.6542 18.9311 20.3991 18.6083 19.955 18.3522C19.5034 18.0916 19.0961 18.0323 18.7331 18.1742C18.3669 18.3043 18.0425 18.6139 17.7597 19.1032L17.1138 20.221L19.7557 21.745Z" fill="#EF4D08"/>
</svg>
