<svg width="20" height="23" viewBox="0 0 20 23" fill="none" xmlns="http://www.w3.org/2000/svg">
<path d="M9.32468 0.511764L0.137677 16.4098C-0.144154 16.8975 0.0205283 17.5199 0.505424 17.7996L9.28679 22.8649C9.77169 23.1446 10.3935 22.9759 10.6753 22.4882L19.8623 6.5902C20.1442 6.10249 19.9795 5.48014 19.4946 5.20044L10.7132 0.135075C10.2283 -0.144628 9.60651 0.0240579 9.32468 0.511764ZM16.5337 5.25893C15.9698 6.23462 16.2991 7.47889 17.2691 8.03846L10.6341 19.5204C9.66402 18.9608 8.42086 19.2981 7.85704 20.2737L3.46635 17.7411C4.03017 16.7654 3.70092 15.5211 2.73085 14.9615L9.36591 3.47963C10.336 4.03919 11.5791 3.70194 12.143 2.72625L16.5337 5.25893Z" fill="black"/>
<path d="M11.9585 13.6681L11.0794 13.161L10.7836 13.6729L10.338 13.4158L10.6338 12.904L10.14 12.6191L9.84422 13.131L9.39863 12.874L9.69443 12.3621L7.71335 11.2194L8.54505 9.78011C8.72369 9.47099 8.92667 9.24014 9.154 9.08757C9.38365 8.93098 9.62213 8.85175 9.86942 8.84987C10.119 8.84398 10.3683 8.91281 10.6172 9.05638C10.8661 9.19995 11.0464 9.37888 11.158 9.59317C11.2697 9.80747 11.3134 10.0468 11.2891 10.3111C11.2608 10.5731 11.1608 10.8527 10.9891 11.1498L10.5889 11.8423L11.0827 12.1271L11.643 11.1576L12.0886 11.4146L11.5283 12.3842L12.4074 12.8913L11.9585 13.6681ZM10.1364 11.5973L10.4809 11.0011C10.6317 10.7402 10.6883 10.5079 10.6508 10.3042C10.6156 10.0966 10.4795 9.92443 10.2427 9.78781C10.0018 9.64888 9.78459 9.61725 9.59099 9.69292C9.3957 9.76227 9.22265 9.92742 9.07186 10.1884L8.72734 10.7845L10.1364 11.5973Z" fill="black"/>
</svg>
