<svg width="775" height="419" viewBox="0 0 775 419" fill="none" xmlns="http://www.w3.org/2000/svg">
<path d="M739.115 370.257L732.428 364.74L717.975 451.077L724.661 456.593L739.115 370.257Z" fill="#FA6425"/>
<path fill-rule="evenodd" clip-rule="evenodd" d="M773.457 412.519C772.551 410.034 771.062 407.639 768.991 405.333C766.92 403.028 764.714 401.311 762.374 400.182C760.034 399.054 757.675 398.441 755.297 398.344C752.919 398.246 750.621 398.607 748.402 399.425C746.183 400.244 744.175 401.464 742.377 403.086C740.546 404.739 739.109 406.628 738.065 408.754C737.021 410.88 736.423 413.133 736.271 415.513C736.119 417.894 736.48 420.309 737.355 422.76C738.23 425.21 739.704 427.588 741.775 429.894C743.846 432.199 746.067 433.933 748.438 435.096C750.778 436.225 753.137 436.838 755.515 436.935C757.893 437.032 760.192 436.671 762.41 435.853C764.598 435 766.607 433.748 768.438 432.095C770.236 430.473 771.672 428.616 772.747 426.525C773.791 424.399 774.389 422.145 774.541 419.765C774.694 417.384 774.332 414.969 773.457 412.519ZM763.733 419.611C763.165 421.059 762.198 422.398 760.833 423.63C759.469 424.862 758.038 425.685 756.542 426.1C755.016 426.481 753.567 426.48 752.198 426.096C750.828 425.712 749.618 424.935 748.566 423.765C747.546 422.629 746.917 421.359 746.679 419.953C746.411 418.513 746.56 417.07 747.129 415.622C747.697 414.175 748.664 412.835 750.029 411.603C751.36 410.401 752.774 409.593 754.27 409.178C755.766 408.763 757.23 408.749 758.664 409.138C760.034 409.522 761.229 410.281 762.249 411.417C763.3 412.587 763.945 413.875 764.183 415.28C764.421 416.685 764.271 418.129 763.733 419.611Z" fill="#FA6425"/>
<path fill-rule="evenodd" clip-rule="evenodd" d="M720.152 400.103C719.246 397.619 717.758 395.223 715.686 392.918C713.615 390.612 711.409 388.895 709.069 387.767C706.729 386.638 704.37 386.026 701.992 385.928C699.615 385.831 697.316 386.192 695.097 387.01C692.879 387.828 690.871 389.049 689.073 390.671C687.242 392.323 685.804 394.213 684.76 396.339C683.716 398.465 683.118 400.718 682.966 403.098C682.814 405.479 683.176 407.894 684.051 410.344C684.926 412.795 686.399 415.173 688.47 417.478C690.542 419.784 692.763 421.518 695.134 422.681C697.474 423.809 699.833 424.422 702.211 424.519C704.589 424.617 706.887 424.256 709.106 423.438C711.294 422.585 713.303 421.332 715.134 419.68C716.932 418.058 718.368 416.201 719.443 414.109C720.487 411.983 721.085 409.73 721.237 407.35C721.389 404.969 721.028 402.554 720.152 400.103ZM710.429 407.196C709.86 408.643 708.894 409.983 707.529 411.215C706.164 412.447 704.734 413.27 703.238 413.685C701.711 414.066 700.263 414.064 698.893 413.68C697.523 413.296 696.313 412.519 695.262 411.349C694.242 410.214 693.613 408.943 693.375 407.538C693.106 406.098 693.256 404.654 693.824 403.207C694.393 401.759 695.359 400.42 696.724 399.188C698.056 397.986 699.47 397.178 700.965 396.763C702.461 396.347 703.926 396.334 705.36 396.722C706.73 397.106 707.925 397.866 708.945 399.002C709.996 400.172 710.64 401.459 710.878 402.865C711.116 404.27 710.966 405.714 710.429 407.196Z" fill="#FA6425"/>
<path fill-rule="evenodd" clip-rule="evenodd" d="M614.716 371.371C612.768 373.782 610.64 375.631 608.333 376.916C606.055 378.166 603.732 378.902 601.362 379.124C598.992 379.345 596.678 379.106 594.42 378.405C592.191 377.668 590.136 376.537 588.256 375.011C586.341 373.457 584.793 371.664 583.61 369.632C582.456 367.563 581.742 365.344 581.465 362.975C581.189 360.606 581.424 358.175 582.17 355.682C582.945 353.153 584.307 350.683 586.255 348.272C588.203 345.861 590.316 344.031 592.594 342.781C594.871 341.531 597.195 340.796 599.565 340.574C601.935 340.352 604.249 340.592 606.507 341.293C608.765 341.993 610.852 343.121 612.767 344.675C614.647 346.201 616.163 347.998 617.317 350.066C618.47 352.134 619.185 354.353 619.461 356.722C619.738 359.091 619.503 361.523 618.757 364.015C618.011 366.508 616.664 368.96 614.716 371.371ZM595.409 366.159C596.836 367.317 598.307 368.064 599.823 368.4C601.367 368.701 602.813 368.623 604.161 368.168C605.509 367.712 606.677 366.873 607.666 365.65C608.625 364.462 609.187 363.16 609.351 361.744C609.51 360.264 609.267 358.816 608.624 357.4C607.981 355.985 606.963 354.712 605.57 353.581C604.143 352.423 602.672 351.676 601.156 351.339C599.641 351.003 598.195 351.081 596.818 351.572C595.47 352.027 594.316 352.849 593.357 354.036C592.368 355.26 591.792 356.58 591.628 357.996C591.464 359.412 591.689 360.845 592.303 362.297C592.946 363.713 593.981 365 595.409 366.159Z" fill="#FA6425"/>
<path fill-rule="evenodd" clip-rule="evenodd" d="M604.437 431.625C606.744 430.34 608.871 428.492 610.82 426.08C612.768 423.669 614.115 421.217 614.861 418.724C615.607 416.232 615.841 413.801 615.565 411.431C615.289 409.062 614.574 406.843 613.421 404.775C612.267 402.707 610.75 400.91 608.87 399.384C606.956 397.83 604.869 396.702 602.611 396.002C600.352 395.301 598.038 395.061 595.669 395.283C593.299 395.505 590.975 396.24 588.697 397.49C586.419 398.74 584.306 400.57 582.358 402.981C580.41 405.392 579.049 407.862 578.274 410.391C577.528 412.884 577.293 415.315 577.569 417.684C577.845 420.054 578.56 422.272 579.714 424.341C580.896 426.373 582.445 428.166 584.36 429.72C586.24 431.246 588.294 432.377 590.524 433.114C592.782 433.815 595.096 434.054 597.466 433.833C599.835 433.611 602.159 432.875 604.437 431.625ZM595.927 423.109C594.411 422.773 592.94 422.026 591.512 420.868C590.085 419.709 589.05 418.422 588.406 417.006C587.792 415.554 587.567 414.121 587.732 412.705C587.896 411.289 588.472 409.969 589.461 408.745C590.42 407.558 591.574 406.736 592.922 406.281C594.298 405.79 595.745 405.712 597.26 406.048C598.775 406.385 600.247 407.132 601.674 408.29C603.067 409.421 604.085 410.694 604.728 412.109C605.371 413.525 605.613 414.973 605.455 416.453C605.291 417.869 604.729 419.171 603.769 420.359C602.781 421.582 601.613 422.422 600.265 422.877C598.917 423.332 597.471 423.41 595.927 423.109Z" fill="#FA6425"/>
<path d="M645.103 383.537L640.713 391.018L553.37 390.217L557.76 382.735L645.103 383.537Z" fill="#FA6425"/>
<path fill-rule="evenodd" clip-rule="evenodd" d="M679.074 265.029C679.398 268.114 679.197 270.929 678.473 273.473C677.744 275.971 676.62 278.138 675.101 279.974C673.582 281.81 671.776 283.281 669.685 284.386C667.589 285.445 665.338 286.101 662.932 286.354C660.482 286.612 658.121 286.442 655.851 285.843C653.577 285.198 651.506 284.136 649.639 282.656C647.772 281.177 646.223 279.291 644.992 277C643.755 274.662 642.976 271.951 642.652 268.865C642.329 265.78 642.531 262.988 643.26 260.49C643.989 257.992 645.113 255.825 646.633 253.989C648.152 252.153 649.957 250.682 652.048 249.577C654.14 248.472 656.411 247.791 658.861 247.533C661.267 247.279 663.607 247.475 665.882 248.12C668.157 248.765 670.228 249.827 672.095 251.307C673.961 252.786 675.511 254.672 676.742 256.963C677.973 259.255 678.751 261.943 679.074 265.029ZM661.744 275.026C663.571 274.833 665.138 274.319 666.447 273.483C667.751 272.6 668.719 271.521 669.351 270.243C669.983 268.966 670.216 267.545 670.052 265.979C669.893 264.459 669.372 263.141 668.489 262.023C667.556 260.864 666.363 260.012 664.91 259.467C663.456 258.922 661.838 258.743 660.056 258.931C658.23 259.123 656.662 259.637 655.353 260.474C654.044 261.31 653.077 262.39 652.45 263.713C651.818 264.99 651.582 266.388 651.741 267.908C651.905 269.474 652.429 270.815 653.312 271.933C654.195 273.051 655.365 273.905 656.824 274.496C658.277 275.042 659.917 275.218 661.744 275.026Z" fill="#FA6425"/>
<path fill-rule="evenodd" clip-rule="evenodd" d="M714.316 314.919C715.04 312.375 715.241 309.561 714.917 306.475C714.594 303.39 713.816 300.701 712.585 298.41C711.354 296.118 709.805 294.233 707.938 292.753C706.071 291.274 704 290.211 701.725 289.566C699.45 288.921 697.11 288.726 694.704 288.979C692.254 289.237 689.983 289.919 687.891 291.024C685.8 292.129 683.995 293.599 682.476 295.435C680.957 297.272 679.832 299.439 679.103 301.937C678.374 304.435 678.172 307.226 678.495 310.312C678.819 313.397 679.599 316.109 680.835 318.446C682.066 320.738 683.615 322.623 685.482 324.103C687.349 325.582 689.42 326.644 691.695 327.289C693.965 327.888 696.325 328.059 698.775 327.801C701.181 327.547 703.432 326.891 705.528 325.832C707.62 324.727 709.425 323.257 710.944 321.42C712.463 319.584 713.587 317.417 714.316 314.919ZM702.29 314.929C700.982 315.765 699.414 316.28 697.587 316.472C695.76 316.664 694.12 316.488 692.667 315.943C691.208 315.351 690.038 314.497 689.155 313.379C688.272 312.262 687.748 310.92 687.584 309.354C687.425 307.835 687.661 306.436 688.293 305.159C688.92 303.836 689.888 302.756 691.196 301.92C692.505 301.084 694.073 300.569 695.899 300.377C697.681 300.189 699.299 300.368 700.753 300.913C702.206 301.458 703.399 302.311 704.332 303.47C705.215 304.587 705.736 305.906 705.895 307.425C706.059 308.991 705.826 310.413 705.194 311.69C704.562 312.967 703.594 314.047 702.29 314.929Z" fill="#FA6425"/>
<path d="M709.144 252.095L711.318 260.497L648.992 321.83L646.818 313.428L709.144 252.095Z" fill="#FA6425"/>
<path fill-rule="evenodd" clip-rule="evenodd" d="M545.662 108.142C547.693 110.484 549.14 112.905 550.003 115.405C550.835 117.87 551.154 120.292 550.961 122.669C550.767 125.046 550.13 127.289 549.049 129.396C547.938 131.469 546.47 133.3 544.644 134.891C542.784 136.511 540.754 137.728 538.551 138.542C536.319 139.322 534.015 139.642 531.639 139.503C529.263 139.365 526.915 138.711 524.595 137.541C522.244 136.337 520.054 134.564 518.023 132.223C515.992 129.882 514.561 127.478 513.728 125.013C512.896 122.548 512.576 120.126 512.77 117.749C512.964 115.371 513.601 113.129 514.682 111.022C515.762 108.914 517.232 107.05 519.092 105.43C520.918 103.84 522.947 102.655 525.18 101.875C527.412 101.096 529.716 100.776 532.092 100.914C534.468 101.053 536.816 101.707 539.136 102.876C541.456 104.046 543.632 105.801 545.662 108.142ZM537.188 126.294C538.574 125.086 539.564 123.764 540.157 122.326C540.72 120.854 540.895 119.413 540.682 118.004C540.468 116.594 539.846 115.295 538.816 114.107C537.816 112.954 536.634 112.173 535.271 111.766C533.844 111.352 532.379 111.34 530.877 111.729C529.374 112.118 527.946 112.902 526.594 114.08C525.208 115.287 524.218 116.61 523.625 118.047C523.031 119.485 522.856 120.926 523.1 122.37C523.313 123.779 523.92 125.061 524.92 126.214C525.951 127.402 527.147 128.2 528.51 128.608C529.873 129.016 531.321 129.043 532.854 128.689C534.357 128.3 535.801 127.502 537.188 126.294Z" fill="#FA6425"/>
<path fill-rule="evenodd" clip-rule="evenodd" d="M603.083 128.751C602.22 126.25 600.773 123.83 598.743 121.488C596.712 119.147 594.536 117.391 592.216 116.222C589.896 115.053 587.548 114.399 585.172 114.26C582.796 114.121 580.492 114.442 578.26 115.221C576.027 116 573.998 117.185 572.172 118.776C570.313 120.396 568.842 122.26 567.762 124.367C566.681 126.475 566.044 128.717 565.85 131.095C565.657 133.472 565.976 135.893 566.808 138.359C567.641 140.824 569.072 143.227 571.103 145.569C573.134 147.91 575.324 149.683 577.675 150.887C579.995 152.056 582.343 152.71 584.719 152.849C587.095 152.988 589.399 152.668 591.631 151.888C593.834 151.074 595.865 149.857 597.724 148.237C599.55 146.646 601.018 144.814 602.129 142.742C603.21 140.635 603.847 138.392 604.041 136.015C604.234 133.637 603.915 131.216 603.083 128.751ZM593.237 135.672C592.644 137.109 591.654 138.432 590.268 139.64C588.882 140.847 587.437 141.646 585.934 142.035C584.401 142.389 582.953 142.362 581.59 141.954C580.228 141.546 579.031 140.748 578 139.56C577 138.406 576.393 137.125 576.18 135.716C575.936 134.271 576.111 132.831 576.705 131.393C577.298 129.956 578.288 128.633 579.674 127.426C581.026 126.247 582.454 125.464 583.957 125.075C585.46 124.686 586.924 124.698 588.351 125.111C589.714 125.519 590.896 126.3 591.896 127.453C592.927 128.641 593.549 129.94 593.762 131.349C593.975 132.759 593.8 134.2 593.237 135.672Z" fill="#FA6425"/>
<path d="M562.893 80.2618L569.482 85.8943L553.527 171.965L546.938 166.332L562.893 80.2618Z" fill="#FA6425"/>
<path fill-rule="evenodd" clip-rule="evenodd" d="M629.031 7.78344C630.672 10.4145 631.723 13.0323 632.185 15.6371C632.622 18.2025 632.56 20.6441 631.997 22.962C631.435 25.2798 630.456 27.3947 629.059 29.3067C627.638 31.1793 625.902 32.7581 623.851 34.0429C621.761 35.3515 619.565 36.2353 617.263 36.6944C614.936 37.1141 612.61 37.0692 610.285 36.5596C607.96 36.0501 605.743 35.036 603.634 33.5175C601.501 31.9596 599.614 29.8652 597.974 27.2342C596.333 24.6032 595.295 22.0049 594.857 19.4395C594.42 16.874 594.482 14.4324 595.045 12.1146C595.607 9.79677 596.586 7.68184 597.983 5.76989C599.379 3.85793 601.122 2.24764 603.212 0.939018C605.263 -0.345833 607.452 -1.1981 609.779 -1.61781C612.106 -2.03757 614.432 -1.99265 616.757 -1.4831C619.082 -0.973549 621.299 0.0405502 623.408 1.55907C625.517 3.07763 627.391 5.15243 629.031 7.78344ZM617.828 24.3827C619.386 23.4072 620.57 22.2561 621.38 20.9295C622.166 19.5636 622.564 18.1679 622.573 16.7425C622.582 15.317 622.171 13.9367 621.338 12.6015C620.53 11.3057 619.485 10.3494 618.203 9.73293C616.858 9.10094 615.413 8.85918 613.868 9.00774C612.323 9.15627 610.791 9.70641 609.271 10.6581C607.713 11.6337 606.529 12.7847 605.719 14.1114C604.908 15.438 604.511 16.8336 604.526 18.2984C604.517 19.7238 604.916 21.0846 605.724 22.3804C606.556 23.7156 607.614 24.6914 608.896 25.3079C610.179 25.9245 611.604 26.1781 613.174 26.0688C614.719 25.9202 616.27 25.3582 617.828 24.3827Z" fill="#FA6425"/>
<path fill-rule="evenodd" clip-rule="evenodd" d="M682.528 37.1408C682.067 34.5361 681.016 31.9182 679.375 29.2872C677.735 26.6562 675.86 24.5814 673.751 23.0628C671.642 21.5443 669.425 20.5302 667.1 20.0207C664.775 19.5111 662.449 19.4662 660.123 19.8859C657.796 20.3057 655.607 21.158 653.555 22.4428C651.466 23.7514 649.723 25.3617 648.326 27.2736C646.93 29.1856 645.951 31.3005 645.388 33.6183C644.826 35.9362 644.764 38.3778 645.201 40.9432C645.638 43.5087 646.677 46.1069 648.317 48.7379C649.958 51.369 651.845 53.4634 653.978 55.0212C656.087 56.5398 658.304 57.5538 660.629 58.0634C662.954 58.573 665.28 58.6179 667.607 58.1981C669.909 57.7391 672.105 56.8553 674.194 55.5467C676.246 54.2619 677.982 52.6831 679.403 50.8104C680.799 48.8984 681.779 46.7835 682.341 44.4657C682.903 42.1479 682.966 39.7063 682.528 37.1408ZM671.724 42.4333C670.913 43.7599 669.729 44.911 668.172 45.8865C666.614 46.862 665.063 47.424 663.518 47.5726C661.948 47.6818 660.522 47.4282 659.24 46.8117C657.957 46.1952 656.9 45.2193 656.068 43.8842C655.26 42.5883 654.86 41.2276 654.87 39.8021C654.854 38.3374 655.252 36.9417 656.063 35.6151C656.873 34.2885 658.057 33.1374 659.615 32.1619C661.134 31.2102 662.667 30.6601 664.212 30.5115C665.757 30.363 667.202 30.6047 668.546 31.2367C669.829 31.8532 670.874 32.8094 671.682 34.1053C672.514 35.4404 672.926 36.8207 672.917 38.2462C672.907 39.6717 672.51 41.0674 671.724 42.4333Z" fill="#FA6425"/>
<path d="M650.401 -17.0524L656.03 -10.4561L626.838 72.0532L621.209 65.457L650.401 -17.0524Z" fill="#FA6425"/>
<path fill-rule="evenodd" clip-rule="evenodd" d="M539.924 27.0682C539.708 23.9733 540.006 21.1673 540.819 18.6502C541.634 16.1793 542.833 14.0528 544.415 12.2709C545.997 10.489 547.853 9.08241 549.981 8.05128C552.113 7.06636 554.386 6.48933 556.799 6.32018C559.257 6.14793 561.609 6.40084 563.857 7.07878C566.108 7.803 568.141 8.93709 569.955 10.481C571.769 12.0249 573.252 13.9634 574.403 16.2965C575.557 18.6758 576.242 21.4129 576.457 24.5078C576.673 27.6027 576.374 30.3856 575.558 32.8566C574.742 35.3274 573.544 37.4539 571.961 39.2358C570.379 41.0178 568.524 42.4243 566.395 43.4555C564.267 44.4866 561.974 45.0883 559.516 45.2605C557.102 45.4296 554.77 45.1521 552.519 44.4279C550.268 43.7038 548.236 42.5697 546.421 41.0258C544.607 39.4819 543.125 37.5434 541.974 35.2103C540.823 32.8771 540.14 30.1631 539.924 27.0682ZM557.592 17.6836C555.759 17.812 554.175 18.2712 552.838 19.0612C551.504 19.8974 550.499 20.9426 549.823 22.1968C549.147 23.4511 548.864 24.8634 548.974 26.434C549.08 27.9584 549.555 29.2944 550.398 30.4422C551.29 31.633 552.452 32.5263 553.886 33.1221C555.32 33.7179 556.93 33.9532 558.718 33.8279C560.55 33.6995 562.135 33.2402 563.472 32.4503C564.809 31.6603 565.814 30.6151 566.486 29.3147C567.162 28.0604 567.447 26.6711 567.341 25.1467C567.231 23.5762 566.755 22.217 565.911 21.0693C565.068 19.9215 563.927 19.0266 562.491 18.3847C561.057 17.7889 559.424 17.5552 557.592 17.6836Z" fill="#FA6425"/>
<path fill-rule="evenodd" clip-rule="evenodd" d="M506.44 -24.0246C505.628 -21.5075 505.33 -18.7015 505.546 -15.6066C505.762 -12.5117 506.445 -9.79772 507.596 -7.46459C508.747 -5.13149 510.229 -3.19295 512.043 -1.64907C513.857 -0.105122 515.89 1.02892 518.141 1.75313C520.392 2.47728 522.724 2.75484 525.137 2.58571C527.595 2.41344 529.889 1.81175 532.017 0.780624C534.146 -0.250504 536.001 -1.65706 537.583 -3.43898C539.165 -5.22093 540.364 -7.34737 541.18 -9.81831C541.995 -12.2892 542.295 -15.0721 542.079 -18.167C541.863 -21.2619 541.178 -23.999 540.024 -26.3783C538.874 -28.7114 537.391 -30.6499 535.577 -32.1939C533.763 -33.7378 531.73 -34.8718 529.479 -35.596C527.231 -36.274 524.878 -36.5269 522.421 -36.3546C520.007 -36.1855 517.735 -35.6085 515.603 -34.6235C513.475 -33.5924 511.619 -32.1859 510.037 -30.4039C508.455 -28.622 507.256 -26.4955 506.44 -24.0246ZM518.459 -23.6137C519.796 -24.4036 521.381 -24.8628 523.213 -24.9913C525.046 -25.1196 526.679 -24.886 528.112 -24.2902C529.549 -23.6482 530.689 -22.7533 531.533 -21.6055C532.376 -20.4578 532.853 -19.0986 532.963 -17.5281C533.069 -16.0037 532.784 -14.6144 532.108 -13.3602C531.436 -12.0597 530.431 -11.0145 529.094 -10.2246C527.757 -9.43456 526.172 -8.97539 524.34 -8.84694C522.552 -8.72167 520.942 -8.95696 519.508 -9.55272C518.074 -10.1485 516.912 -11.0418 516.02 -12.2327C515.177 -13.3804 514.702 -14.7165 514.595 -16.2408C514.486 -17.8114 514.769 -19.2238 515.445 -20.478C516.121 -21.7323 517.126 -22.7775 518.459 -23.6137Z" fill="#FA6425"/>
<path d="M509.422 38.9419L507.542 30.4692L571.966 -28.6464L573.846 -20.1737L509.422 38.9419Z" fill="#FA6425"/>
<path fill-rule="evenodd" clip-rule="evenodd" d="M540.998 234.5C543.437 236.41 545.318 238.51 546.641 240.799C547.927 243.06 548.702 245.376 548.965 247.747C549.227 250.117 549.029 252.44 548.369 254.716C547.673 256.963 546.58 259.041 545.091 260.952C543.574 262.898 541.812 264.481 539.805 265.702C537.762 266.894 535.561 267.649 533.202 267.967C530.844 268.285 528.414 268.092 525.914 267.388C523.378 266.655 520.89 265.334 518.451 263.424C516.012 261.514 514.149 259.429 512.862 257.168C511.576 254.907 510.801 252.591 510.539 250.22C510.276 247.85 510.475 245.527 511.134 243.251C511.794 240.976 512.883 238.865 514.399 236.919C515.889 235.009 517.655 233.457 519.698 232.265C521.741 231.073 523.942 230.318 526.301 230C528.66 229.682 531.089 229.875 533.589 230.579C536.089 231.283 538.559 232.59 540.998 234.5ZM536.135 253.939C537.265 252.488 537.985 251.001 538.294 249.476C538.567 247.923 538.464 246.475 537.986 245.133C537.508 243.79 536.651 242.634 535.413 241.665C534.211 240.724 532.903 240.184 531.488 240.044C530.008 239.911 528.568 240.179 527.167 240.848C525.766 241.518 524.513 242.56 523.41 243.975C522.279 245.426 521.56 246.913 521.251 248.438C520.942 249.962 521.044 251.41 521.559 252.781C522.036 254.124 522.876 255.266 524.077 256.206C525.315 257.176 526.642 257.73 528.057 257.87C529.473 258.01 530.899 257.759 532.337 257.118C533.738 256.449 535.004 255.389 536.135 253.939Z" fill="#FA6425"/>
<path fill-rule="evenodd" clip-rule="evenodd" d="M601.287 243.749C599.964 241.459 598.083 239.36 595.644 237.45C593.205 235.54 590.735 234.233 588.235 233.529C585.735 232.824 583.306 232.632 580.947 232.95C578.588 233.268 576.387 234.023 574.344 235.215C572.301 236.407 570.535 237.958 569.045 239.869C567.528 241.815 566.44 243.925 565.78 246.201C565.121 248.476 564.922 250.799 565.185 253.17C565.447 255.541 566.222 257.857 567.508 260.117C568.795 262.378 570.657 264.464 573.097 266.374C575.536 268.284 578.024 269.605 580.56 270.338C583.06 271.042 585.489 271.235 587.848 270.916C590.207 270.598 592.408 269.843 594.451 268.651C596.458 267.431 598.22 265.847 599.737 263.901C601.226 261.991 602.319 259.912 603.015 257.665C603.674 255.39 603.873 253.067 603.61 250.696C603.348 248.325 602.573 246.01 601.287 243.749ZM592.94 252.426C592.631 253.95 591.911 255.438 590.78 256.888C589.65 258.339 588.384 259.399 586.983 260.068C585.545 260.709 584.119 260.959 582.703 260.82C581.288 260.68 579.961 260.125 578.723 259.156C577.522 258.215 576.682 257.073 576.204 255.731C575.69 254.36 575.588 252.912 575.897 251.387C576.205 249.863 576.925 248.375 578.056 246.925C579.159 245.509 580.411 244.467 581.813 243.798C583.214 243.129 584.654 242.861 586.133 242.994C587.549 243.133 588.857 243.674 590.059 244.614C591.297 245.584 592.154 246.74 592.632 248.082C593.11 249.425 593.212 250.873 592.94 252.426Z" fill="#FA6425"/>
<path d="M552.604 203.837L560.144 208.106L560.869 295.646L553.328 291.377L552.604 203.837Z" fill="#FA6425"/>
<path fill-rule="evenodd" clip-rule="evenodd" d="M678.778 169.756C676.125 171.354 673.495 172.361 670.888 172.779C668.321 173.172 665.886 173.067 663.584 172.463C661.282 171.859 659.189 170.841 657.306 169.408C655.462 167.951 653.918 166.184 652.672 164.106C651.403 161.989 650.559 159.773 650.142 157.458C649.764 155.119 649.849 152.789 650.398 150.468C650.947 148.147 651.997 145.943 653.549 143.856C655.14 141.746 657.262 139.891 659.916 138.293C662.569 136.696 665.179 135.7 667.746 135.306C670.313 134.913 672.748 135.018 675.05 135.622C677.353 136.226 679.445 137.244 681.328 138.677C683.211 140.11 684.788 141.884 686.057 144.001C687.302 146.079 688.115 148.288 688.493 150.627C688.871 152.966 688.785 155.296 688.236 157.617C687.688 159.938 686.637 162.142 685.086 164.229C683.534 166.316 681.431 168.158 678.778 169.756ZM662.414 158.239C663.36 159.817 664.488 161.024 665.797 161.859C667.146 162.67 668.531 163.093 669.953 163.127C671.375 163.162 672.759 162.773 674.106 161.962C675.413 161.175 676.385 160.145 677.022 158.87C677.676 157.534 677.942 156.09 677.821 154.539C677.7 152.988 677.178 151.443 676.255 149.904C675.309 148.326 674.181 147.119 672.872 146.284C671.563 145.448 670.177 145.026 668.716 145.015C667.294 144.981 665.93 145.358 664.623 146.145C663.276 146.955 662.284 147.998 661.647 149.272C661.009 150.547 660.732 151.971 660.813 153.546C660.934 155.097 661.468 156.661 662.414 158.239Z" fill="#FA6425"/>
<path fill-rule="evenodd" clip-rule="evenodd" d="M648.557 222.853C651.164 222.435 653.794 221.428 656.447 219.83C659.1 218.232 661.203 216.39 662.755 214.303C664.306 212.216 665.357 210.012 665.906 207.691C666.454 205.37 666.54 203.04 666.162 200.701C665.784 198.362 664.971 196.153 663.726 194.075C662.457 191.958 660.881 190.184 658.998 188.751C657.115 187.318 655.022 186.3 652.719 185.696C650.417 185.092 647.982 184.987 645.415 185.38C642.848 185.774 640.238 186.77 637.585 188.367C634.932 189.965 632.809 191.82 631.218 193.93C629.666 196.017 628.616 198.221 628.067 200.542C627.518 202.863 627.433 205.193 627.811 207.532C628.228 209.847 629.072 212.063 630.341 214.18C631.587 216.258 633.131 218.026 634.975 219.482C636.858 220.915 638.951 221.933 641.253 222.537C643.555 223.141 645.99 223.246 648.557 222.853ZM643.466 211.933C642.157 211.098 641.029 209.891 640.083 208.313C639.137 206.735 638.603 205.171 638.482 203.62C638.401 202.045 638.679 200.621 639.316 199.346C639.953 198.072 640.945 197.029 642.292 196.219C643.599 195.432 644.963 195.055 646.385 195.089C647.846 195.1 649.232 195.523 650.541 196.358C651.85 197.193 652.978 198.4 653.924 199.978C654.847 201.517 655.369 203.062 655.49 204.613C655.611 206.164 655.345 207.608 654.691 208.944C654.054 210.219 653.082 211.249 651.775 212.036C650.428 212.847 649.044 213.236 647.622 213.201C646.2 213.167 644.815 212.744 643.466 211.933Z" fill="#FA6425"/>
<path d="M703.181 191.604L696.502 197.129L614.7 166.436L621.379 160.91L703.181 191.604Z" fill="#FA6425"/>
<path fill-rule="evenodd" clip-rule="evenodd" d="M501.306 375.186C500.505 372.19 500.264 369.378 500.582 366.752C500.912 364.17 501.684 361.854 502.898 359.802C504.112 357.75 505.665 356.015 507.558 354.595C509.463 353.221 511.584 352.22 513.921 351.592C516.301 350.953 518.659 350.751 520.994 350.987C523.342 351.268 525.553 351.992 527.628 353.161C529.703 354.329 531.527 355.949 533.101 358.019C534.686 360.134 535.88 362.69 536.681 365.686C537.482 368.683 537.718 371.472 537.388 374.054C537.057 376.635 536.285 378.952 535.072 381.004C533.858 383.055 532.304 384.791 530.411 386.21C528.518 387.629 526.381 388.659 524.001 389.298C521.665 389.925 519.323 390.099 516.975 389.818C514.628 389.538 512.416 388.813 510.342 387.645C508.267 386.476 506.443 384.857 504.869 382.787C503.295 380.716 502.108 378.183 501.306 375.186ZM516.863 362.595C515.089 363.072 513.62 363.826 512.458 364.857C511.308 365.933 510.521 367.151 510.096 368.511C509.671 369.872 509.662 371.312 510.069 372.833C510.464 374.309 511.184 375.53 512.231 376.495C513.332 377.494 514.644 378.148 516.164 378.459C517.685 378.769 519.311 378.692 521.042 378.228C522.816 377.751 524.284 376.997 525.446 375.966C526.608 374.935 527.396 373.717 527.808 372.312C528.233 370.951 528.248 369.533 527.854 368.057C527.447 366.536 526.721 365.293 525.674 364.328C524.628 363.362 523.338 362.702 521.805 362.347C520.284 362.036 518.637 362.119 516.863 362.595Z" fill="#FA6425"/>
<path fill-rule="evenodd" clip-rule="evenodd" d="M458.711 331.435C458.393 334.062 458.634 336.873 459.435 339.87C460.237 342.867 461.424 345.4 462.998 347.47C464.572 349.54 466.396 351.16 468.471 352.328C470.545 353.497 472.757 354.222 475.104 354.502C477.452 354.782 479.794 354.609 482.13 353.981C484.51 353.342 486.647 352.313 488.54 350.894C490.433 349.474 491.987 347.739 493.201 345.687C494.414 343.635 495.186 341.319 495.517 338.737C495.847 336.156 495.611 333.367 494.81 330.37C494.009 327.373 492.815 324.817 491.23 322.702C489.656 320.632 487.832 319.013 485.757 317.844C483.682 316.676 481.471 315.951 479.123 315.671C476.788 315.435 474.43 315.637 472.05 316.276C469.713 316.903 467.592 317.904 465.687 319.279C463.794 320.698 462.241 322.434 461.027 324.486C459.813 326.537 459.041 328.854 458.711 331.435ZM470.587 329.54C471.749 328.509 473.217 327.755 474.992 327.279C476.766 326.802 478.413 326.72 479.934 327.03C481.467 327.386 482.756 328.046 483.803 329.011C484.85 329.977 485.576 331.22 485.983 332.741C486.377 334.217 486.362 335.635 485.937 336.995C485.525 338.4 484.737 339.619 483.575 340.65C482.413 341.681 480.945 342.435 479.171 342.911C477.44 343.376 475.814 343.453 474.293 343.142C472.773 342.832 471.461 342.177 470.36 341.179C469.313 340.213 468.592 338.993 468.198 337.517C467.791 335.996 467.8 334.555 468.225 333.195C468.65 331.834 469.437 330.616 470.587 329.54Z" fill="#FA6425"/>
<path d="M473.625 392.675L470.167 384.717L522.153 314.368L525.611 322.325L473.625 392.675Z" fill="#FA6425"/>
<path fill-rule="evenodd" clip-rule="evenodd" d="M291.765 147.608C294.396 147.887 297.203 147.604 300.188 146.758C303.172 145.912 305.688 144.686 307.734 143.082C309.78 141.477 311.372 139.629 312.509 137.537C313.647 135.444 314.338 133.223 314.583 130.871C314.829 128.52 314.62 126.181 313.957 123.854C313.283 121.483 312.222 119.363 310.774 117.491C309.327 115.619 307.568 114.092 305.498 112.909C303.429 111.726 301.101 110.989 298.514 110.697C295.928 110.406 293.143 110.683 290.159 111.529C287.174 112.375 284.637 113.607 282.546 115.224C280.499 116.829 278.907 118.677 277.77 120.769C276.633 122.861 275.941 125.083 275.696 127.435C275.496 129.773 275.733 132.128 276.407 134.498C277.07 136.825 278.103 138.931 279.506 140.815C280.953 142.687 282.712 144.214 284.781 145.397C286.851 146.58 289.179 147.317 291.765 147.608ZM289.692 135.762C288.644 134.615 287.868 133.159 287.365 131.392C286.862 129.625 286.754 127.979 287.042 126.454C287.375 124.916 288.016 123.616 288.965 122.555C289.915 121.495 291.147 120.749 292.661 120.32C294.131 119.903 295.55 119.897 296.916 120.302C298.327 120.693 299.557 121.462 300.606 122.609C301.654 123.755 302.43 125.212 302.933 126.979C303.424 128.702 303.525 130.327 303.237 131.852C302.949 133.377 302.315 134.698 301.333 135.815C300.383 136.876 299.173 137.615 297.703 138.031C296.189 138.461 294.748 138.473 293.382 138.069C292.015 137.665 290.785 136.896 289.692 135.762Z" fill="#FA6425"/>
<path fill-rule="evenodd" clip-rule="evenodd" d="M326.45 105.213C329.081 105.491 331.888 105.208 334.873 104.362C337.857 103.516 340.372 102.291 342.419 100.686C344.465 99.0813 346.057 97.2329 347.194 95.1408C348.332 93.0487 349.023 90.827 349.268 88.4755C349.513 86.124 349.305 83.7848 348.642 81.4578C347.967 79.0877 346.906 76.9668 345.459 75.0952C344.011 73.2235 342.253 71.6963 340.183 70.5133C338.113 69.3303 335.785 68.5931 333.199 68.3017C330.613 68.0102 327.828 68.2875 324.843 69.1335C321.859 69.9795 319.321 71.2112 317.23 72.8284C315.184 74.4331 313.592 76.2814 312.455 78.3735C311.317 80.4656 310.626 82.6874 310.381 85.0389C310.18 87.3777 310.417 89.7322 311.092 92.1023C311.755 94.4293 312.787 96.5349 314.19 98.4192C315.638 100.291 317.396 101.818 319.466 103.001C321.536 104.184 323.864 104.921 326.45 105.213ZM324.377 93.3659C323.329 92.2195 322.553 90.7628 322.05 88.996C321.547 87.2292 321.439 85.5832 321.727 84.058C322.059 82.5201 322.7 81.2206 323.65 80.1597C324.6 79.0988 325.832 78.3538 327.346 77.9244C328.816 77.5078 330.234 77.5016 331.601 77.9058C333.012 78.2975 334.242 79.0666 335.29 80.213C336.339 81.3595 337.115 82.8161 337.618 84.5829C338.108 86.3066 338.21 87.9311 337.922 89.4564C337.634 90.9817 336.999 92.3026 336.017 93.4193C335.068 94.4801 333.858 95.219 332.388 95.6357C330.874 96.0649 329.433 96.0774 328.066 95.6732C326.7 95.2689 325.47 94.4998 324.377 93.3659Z" fill="#FA6425"/>
<path d="M352.774 131.778L344.869 135.355L273.748 84.4294L281.653 80.8519L352.774 131.778Z" fill="#FA6425"/>
<path d="M40.2689 171.82L47.4147 176.632L53.3468 90.0369L46.2011 85.2259L40.2689 171.82Z" fill="#FA6425"/>
<path fill-rule="evenodd" clip-rule="evenodd" d="M61.2416 147.229C58.9701 145.149 57.2661 142.926 56.1296 140.56C55.0269 138.224 54.4356 135.874 54.3555 133.51C54.2755 131.145 54.6487 128.865 55.4751 126.667C56.3354 124.5 57.5758 122.531 59.1964 120.759C60.847 118.954 62.7127 117.527 64.7936 116.478C66.9082 115.46 69.146 114.886 71.5069 114.756C73.8678 114.627 76.2599 115.008 78.683 115.9C81.1401 116.823 83.5043 118.324 85.7758 120.403C88.0472 122.482 89.7343 124.69 90.837 127.026C91.9396 129.361 92.531 131.711 92.611 134.076C92.6911 136.44 92.3178 138.721 91.4914 140.918C90.6651 143.116 89.4266 145.117 87.7759 146.922C86.1553 148.694 84.2876 150.089 82.173 151.107C80.0583 152.125 77.8205 152.699 75.4596 152.829C73.0987 152.959 70.7066 152.578 68.2835 151.686C65.8603 150.794 63.513 149.308 61.2416 147.229ZM67.5364 128.394C66.3059 129.739 65.4798 131.153 65.058 132.636C64.67 134.15 64.6617 135.589 65.0329 136.954C65.4042 138.319 66.1662 139.529 67.3189 140.584C68.4377 141.608 69.6928 142.245 71.0845 142.494C72.5401 142.741 73.9873 142.589 75.4261 142.037C76.865 141.485 78.1847 140.553 79.3852 139.241C80.6156 137.895 81.4417 136.481 81.8636 134.998C82.2854 133.516 82.2937 132.076 81.8885 130.681C81.5173 129.316 80.7723 128.121 79.6535 127.097C78.5008 126.042 77.2287 125.39 75.837 125.141C74.4454 124.892 73.0132 125.027 71.5404 125.548C70.1015 126.1 68.7668 127.048 67.5364 128.394Z" fill="#FA6425"/>
<path fill-rule="evenodd" clip-rule="evenodd" d="M7.32932 140.03C5.05784 137.951 3.35386 135.728 2.21732 133.361C1.11466 131.025 0.523291 128.675 0.443213 126.311C0.363196 123.947 0.736366 121.666 1.56278 119.469C2.42307 117.302 3.66355 115.333 5.28416 113.561C6.93479 111.756 8.80045 110.329 10.8813 109.28C12.9959 108.261 15.2337 107.688 17.5946 107.558C19.9555 107.428 22.3476 107.809 24.7707 108.701C27.2278 109.624 29.592 111.125 31.8635 113.205C34.1349 115.284 35.822 117.492 36.9247 119.827C38.0273 122.163 38.6187 124.513 38.6987 126.877C38.7788 129.241 38.4056 131.522 37.5792 133.72C36.7528 135.917 35.5143 137.919 33.8636 139.723C32.243 141.495 30.3754 142.891 28.2607 143.909C26.146 144.927 23.9082 145.501 21.5473 145.631C19.1864 145.76 16.7943 145.379 14.3712 144.487C11.948 143.595 9.60074 142.11 7.32932 140.03ZM13.6241 121.195C12.3936 122.541 11.5675 123.955 11.1457 125.438C10.7577 126.952 10.7494 128.391 11.1207 129.756C11.4919 131.12 12.2539 132.33 13.4066 133.385C14.5254 134.41 15.7806 135.046 17.1722 135.295C18.6278 135.543 20.075 135.39 21.5139 134.839C22.9527 134.287 24.2724 133.355 25.4729 132.042C26.7033 130.697 27.5295 129.283 27.9513 127.8C28.3731 126.317 28.3814 124.878 27.9762 123.482C27.605 122.117 26.86 120.923 25.7412 119.899C24.5885 118.844 23.3164 118.191 21.9247 117.942C20.5331 117.693 19.1009 117.829 17.6281 118.35C16.1892 118.902 14.8545 119.85 13.6241 121.195Z" fill="#FA6425"/>
<path fill-rule="evenodd" clip-rule="evenodd" d="M120.458 210.941C117.847 210.664 115.06 210.946 112.098 211.785C109.136 212.625 106.639 213.842 104.607 215.434C102.576 217.027 100.996 218.862 99.8672 220.938C98.7382 223.015 98.052 225.22 97.8086 227.555C97.5653 229.889 97.7724 232.211 98.43 234.52C99.0997 236.873 100.153 238.978 101.59 240.836C103.027 242.694 104.772 244.21 106.827 245.384C108.881 246.558 111.192 247.29 113.759 247.579C116.326 247.869 119.091 247.593 122.053 246.754C125.015 245.914 127.534 244.691 129.61 243.086C131.641 241.493 133.221 239.659 134.35 237.582C135.479 235.505 136.165 233.3 136.409 230.966C136.608 228.644 136.372 226.307 135.703 223.955C135.045 221.645 134.02 219.555 132.627 217.684C131.191 215.826 129.445 214.31 127.391 213.136C125.336 211.962 123.025 211.23 120.458 210.941ZM122.516 222.7C123.557 223.838 124.327 225.284 124.826 227.038C125.325 228.792 125.432 230.425 125.146 231.939C124.816 233.466 124.18 234.756 123.238 235.809C122.295 236.862 121.072 237.602 119.569 238.028C118.11 238.441 116.702 238.447 115.345 238.046C113.944 237.657 112.724 236.894 111.683 235.756C110.642 234.618 109.872 233.172 109.373 231.418C108.886 229.707 108.785 228.095 109.071 226.581C109.357 225.067 109.987 223.756 110.961 222.647C111.904 221.594 113.105 220.861 114.564 220.447C116.067 220.021 117.497 220.009 118.854 220.41C120.21 220.811 121.431 221.575 122.516 222.7Z" fill="#FA6425"/>
<path fill-rule="evenodd" clip-rule="evenodd" d="M154.887 168.858C152.276 168.582 149.489 168.863 146.527 169.703C143.564 170.543 141.067 171.759 139.036 173.352C137.005 174.944 135.425 176.779 134.296 178.856C133.167 180.932 132.481 183.138 132.237 185.472C131.994 187.806 132.201 190.128 132.859 192.438C133.528 194.79 134.582 196.896 136.018 198.753C137.455 200.611 139.201 202.127 141.255 203.301C143.31 204.476 145.62 205.208 148.188 205.497C150.755 205.786 153.519 205.511 156.482 204.671C159.444 203.831 161.963 202.609 164.038 201.003C166.07 199.411 167.65 197.576 168.779 195.499C169.908 193.423 170.594 191.217 170.837 188.883C171.036 186.562 170.801 184.225 170.131 181.872C169.474 179.562 168.449 177.472 167.056 175.602C165.619 173.744 163.874 172.228 161.819 171.054C159.765 169.879 157.454 169.148 154.887 168.858ZM156.945 180.618C157.985 181.756 158.755 183.201 159.255 184.955C159.754 186.709 159.861 188.343 159.575 189.857C159.245 191.383 158.609 192.673 157.666 193.726C156.724 194.779 155.501 195.519 153.997 195.945C152.538 196.359 151.131 196.365 149.774 195.964C148.373 195.575 147.152 194.811 146.112 193.673C145.071 192.535 144.301 191.089 143.802 189.336C143.315 187.625 143.214 186.012 143.5 184.498C143.785 182.984 144.415 181.673 145.39 180.565C146.333 179.512 147.533 178.778 148.992 178.365C150.496 177.939 151.926 177.926 153.282 178.327C154.639 178.729 155.86 179.492 156.945 180.618Z" fill="#FA6425"/>
<path d="M94.3284 184.572L102.175 181.021L172.771 231.571L164.924 235.122L94.3284 184.572Z" fill="#FA6425"/>
<path d="M173.476 441.574L164.997 443.072L109.381 376.558L117.86 375.06L173.476 441.574Z" fill="#FA6425"/>
<path fill-rule="evenodd" clip-rule="evenodd" d="M110.963 441.8C113.42 442.715 116.186 443.133 119.261 443.053C122.337 442.973 125.057 442.413 127.421 441.372C129.785 440.331 131.773 438.944 133.385 437.21C134.998 435.476 136.214 433.508 137.034 431.305C137.855 429.102 138.236 426.799 138.179 424.396C138.121 421.949 137.63 419.647 136.705 417.489C135.781 415.332 134.473 413.429 132.78 411.781C131.087 410.133 129.035 408.851 126.625 407.934C124.214 407.017 121.471 406.599 118.396 406.679C115.32 406.759 112.577 407.32 110.167 408.362C107.803 409.403 105.815 410.79 104.203 412.524C102.59 414.258 101.374 416.226 100.554 418.429C99.7793 420.631 99.4212 422.955 99.4794 425.403C99.5366 427.805 100.004 430.086 100.883 432.245C101.807 434.402 103.115 436.305 104.808 437.953C106.501 439.601 108.553 440.883 110.963 441.8ZM111.92 429.888C111.198 428.526 110.816 426.933 110.773 425.109C110.729 423.285 111.035 421.674 111.691 420.277C112.393 418.878 113.331 417.785 114.507 416.998C115.683 416.21 117.051 415.796 118.612 415.756C120.126 415.716 121.49 416.059 122.701 416.785C123.959 417.509 124.948 418.552 125.67 419.913C126.391 421.275 126.774 422.867 126.817 424.692C126.859 426.472 126.553 428.06 125.897 429.457C125.241 430.855 124.303 431.97 123.083 432.803C121.907 433.59 120.562 434.004 119.047 434.043C117.486 434.084 116.1 433.741 114.888 433.016C113.677 432.291 112.687 431.248 111.92 429.888Z" fill="#FA6425"/>
<path fill-rule="evenodd" clip-rule="evenodd" d="M154.81 409.529C157.266 410.444 160.033 410.862 163.108 410.782C166.184 410.702 168.904 410.142 171.268 409.101C173.632 408.06 175.62 406.672 177.232 404.938C178.845 403.205 180.061 401.236 180.881 399.033C181.702 396.831 182.083 394.528 182.026 392.125C181.968 389.678 181.477 387.375 180.553 385.218C179.628 383.06 178.32 381.158 176.627 379.51C174.934 377.862 172.882 376.58 170.472 375.663C168.061 374.746 165.318 374.328 162.243 374.408C159.167 374.488 156.424 375.049 154.014 376.091C151.65 377.132 149.662 378.519 148.05 380.253C146.437 381.987 145.221 383.955 144.401 386.158C143.626 388.36 143.268 390.684 143.326 393.131C143.384 395.534 143.851 397.815 144.73 399.974C145.654 402.131 146.962 404.034 148.655 405.682C150.348 407.329 152.4 408.612 154.81 409.529ZM155.767 397.616C155.045 396.255 154.663 394.662 154.62 392.838C154.576 391.013 154.882 389.403 155.538 388.005C156.24 386.607 157.178 385.514 158.354 384.727C159.53 383.939 160.898 383.525 162.459 383.485C163.974 383.445 165.337 383.788 166.548 384.513C167.806 385.238 168.795 386.28 169.517 387.642C170.238 389.003 170.621 390.596 170.664 392.42C170.706 394.2 170.4 395.789 169.744 397.186C169.088 398.583 168.15 399.698 166.93 400.532C165.754 401.319 164.409 401.732 162.894 401.772C161.333 401.812 159.947 401.47 158.735 400.745C157.524 400.019 156.534 398.976 155.767 397.616Z" fill="#FA6425"/>
<path d="M99.2117 51.5347L105.851 56.9999L120.203 -28.5348L113.564 -34.0001L99.2117 51.5347Z" fill="#FA6425"/>
<path fill-rule="evenodd" clip-rule="evenodd" d="M65.1103 9.66507C66.01 12.1268 67.4882 14.4997 69.545 16.7839C71.6017 19.0681 73.7919 20.7691 76.1155 21.8871C78.439 23.0051 80.7815 23.6122 83.1428 23.7084C85.5041 23.8047 87.7864 23.4475 89.9895 22.6368C92.1926 21.8261 94.1868 20.6171 95.9719 19.0098C97.7901 17.3727 99.2175 15.5011 100.254 13.3949C101.291 11.2887 101.885 9.05643 102.036 6.69807C102.187 4.3397 101.828 1.94669 100.959 -0.480888C100.09 -2.9085 98.6268 -5.2644 96.5701 -7.54855C94.5133 -9.83273 92.3077 -11.5508 89.9535 -12.7029C87.6299 -13.8209 85.2875 -14.428 82.9261 -14.5243C80.5648 -14.6205 78.2826 -14.2633 76.0795 -13.4526C73.907 -12.6078 71.9117 -11.3669 70.0936 -9.72982C68.3084 -8.12252 66.8822 -6.28283 65.8149 -4.21072C64.7783 -2.10452 64.1844 0.127781 64.0334 2.48615C63.8823 4.84452 64.2413 7.23749 65.1103 9.66507ZM74.7656 2.63846C75.3299 1.20438 76.2898 -0.122829 77.6452 -1.34317C79.0006 -2.5635 80.4209 -3.37936 81.9062 -3.79067C83.4222 -4.1679 84.8602 -4.16631 86.2204 -3.78591C87.5805 -3.40551 88.7825 -2.63573 89.8262 -1.47662C90.8392 -0.351555 91.4638 0.907143 91.6999 2.29954C91.9668 3.72602 91.818 5.15629 91.2537 6.59037C90.6894 8.02445 89.7295 9.35166 88.3741 10.572C87.0518 11.7626 85.648 12.5635 84.1628 12.9749C82.6775 13.3862 81.2229 13.3995 79.799 13.0147C78.4389 12.6343 77.2523 11.8816 76.2392 10.7566C75.1955 9.59745 74.5556 8.32169 74.3194 6.92929C74.0832 5.5369 74.232 4.10663 74.7656 2.63846Z" fill="#FA6425"/>
<path fill-rule="evenodd" clip-rule="evenodd" d="M118.041 21.9651C118.941 24.4268 120.419 26.7998 122.476 29.0839C124.532 31.3681 126.723 33.0692 129.046 34.1871C131.37 35.3051 133.712 35.9122 136.073 36.0085C138.435 36.1047 140.717 35.7475 142.92 34.9368C145.123 34.1261 147.117 32.9171 148.903 31.3098C150.721 29.6728 152.148 27.8012 153.185 25.6949C154.221 23.5887 154.815 21.3564 154.966 18.9981C155.117 16.6397 154.758 14.2467 153.889 11.8191C153.02 9.39152 151.557 7.03563 149.501 4.75148C147.444 2.4673 145.238 0.749187 142.884 -0.402882C140.561 -1.52086 138.218 -2.12798 135.857 -2.22423C133.495 -2.32048 131.213 -1.96328 129.01 -1.15258C126.838 -0.307758 124.842 0.933147 123.024 2.5702C121.239 4.1775 119.813 6.01719 118.746 8.0893C117.709 10.1955 117.115 12.4278 116.964 14.7861C116.813 17.1445 117.172 19.5375 118.041 21.9651ZM127.696 14.9385C128.261 13.5044 129.221 12.1772 130.576 10.9569C131.931 9.73652 133.352 8.9207 134.837 8.50935C136.353 8.13215 137.791 8.13371 139.151 8.51411C140.511 8.89451 141.713 9.66429 142.757 10.8234C143.77 11.9485 144.394 13.2072 144.631 14.5996C144.897 16.026 144.749 17.4563 144.184 18.8904C143.62 20.3245 142.66 21.6517 141.305 22.872C139.982 24.0626 138.579 24.8636 137.093 25.2749C135.608 25.6862 134.154 25.6995 132.73 25.3148C131.369 24.9344 130.183 24.1817 129.17 23.0566C128.126 21.8975 127.486 20.6217 127.25 19.2293C127.014 17.8369 127.163 16.4067 127.696 14.9385Z" fill="#FA6425"/>
<path fill-rule="evenodd" clip-rule="evenodd" d="M59.8663 329.904C58.0059 331.749 56.4682 334.083 55.2534 336.908C54.0385 339.732 53.4093 342.435 53.3658 345.016C53.3223 347.596 53.7509 349.982 54.6516 352.171C55.5523 354.36 56.832 356.289 58.4907 357.956C60.1493 359.623 62.0825 360.935 64.2901 361.889C66.5385 362.862 68.8366 363.381 71.1843 363.446C73.532 363.512 75.809 363.122 78.0152 362.276C80.2215 361.431 82.2457 360.106 84.088 358.303C85.9303 356.5 87.4589 354.187 88.6738 351.362C89.8886 348.538 90.5269 345.814 90.5885 343.191C90.632 340.61 90.2034 338.225 89.3027 336.036C88.402 333.846 87.1223 331.918 85.4636 330.251C83.7868 328.626 81.8242 327.327 79.5758 326.354C77.3682 325.399 75.0996 324.868 72.77 324.761C70.4223 324.695 68.1453 325.085 65.9391 325.931C63.7328 326.776 61.7086 328.101 59.8663 329.904ZM70.292 335.763C71.8313 335.679 73.439 335.999 75.1151 336.724C76.7913 337.449 78.127 338.402 79.1223 339.582C80.0995 340.805 80.6999 342.114 80.9234 343.511C81.147 344.907 80.9505 346.322 80.334 347.755C79.7356 349.146 78.8532 350.24 77.6868 351.035C76.5022 351.873 75.1403 352.333 73.601 352.418C72.0617 352.502 70.4539 352.181 68.7778 351.456C67.1426 350.749 65.8273 349.805 64.832 348.625C63.8367 347.444 63.2158 346.126 62.9696 344.67C62.746 343.273 62.9334 341.879 63.5318 340.488C64.1483 339.055 65.0398 337.941 66.2063 337.145C67.3726 336.35 68.7346 335.889 70.292 335.763Z" fill="#FA6425"/>
<path fill-rule="evenodd" clip-rule="evenodd" d="M48.8925 276.599C47.0321 278.444 45.4944 280.778 44.2796 283.603C43.0647 286.427 42.4355 289.129 42.392 291.71C42.3485 294.291 42.7771 296.677 43.6778 298.866C44.5785 301.055 45.8582 302.984 47.5169 304.651C49.1756 306.318 51.1087 307.629 53.3162 308.584C55.5647 309.557 57.8628 310.076 60.2105 310.141C62.5582 310.207 64.8352 309.817 67.0414 308.971C69.2476 308.125 71.2719 306.801 73.1142 304.998C74.9564 303.195 76.4851 300.882 77.6999 298.057C78.9148 295.233 79.5531 292.509 79.6147 289.886C79.6582 287.305 79.2296 284.92 78.3289 282.731C77.4282 280.541 76.1485 278.613 74.4898 276.946C72.813 275.32 70.8504 274.022 68.6019 273.049C66.3944 272.094 64.1258 271.563 61.7962 271.456C59.4485 271.39 57.1715 271.78 54.9653 272.626C52.759 273.471 50.7348 274.796 48.8925 276.599ZM59.3182 282.458C60.8575 282.374 62.4652 282.694 64.1413 283.419C65.8175 284.144 67.1532 285.096 68.1485 286.277C69.1258 287.5 69.7261 288.809 69.9496 290.206C70.1732 291.602 69.9766 293.017 69.3601 294.45C68.7617 295.841 67.8794 296.935 66.713 297.73C65.5284 298.568 64.1665 299.028 62.6272 299.113C61.0879 299.197 59.4801 298.876 57.804 298.151C56.1688 297.444 54.8535 296.5 53.8582 295.32C52.8628 294.139 52.242 292.821 51.9958 291.365C51.7722 289.968 51.9596 288.574 52.558 287.183C53.1745 285.75 54.0659 284.636 55.2324 283.84C56.3988 283.045 57.7608 282.584 59.3182 282.458Z" fill="#FA6425"/>
<path d="M22.9292 333.413L25.1169 325.092L108.848 302.498L106.66 310.82L22.9292 333.413Z" fill="#FA6425"/>
<path fill-rule="evenodd" clip-rule="evenodd" d="M262.423 431.919C262.207 428.852 262.505 426.07 263.317 423.575C264.132 421.126 265.33 419.018 266.911 417.252C268.492 415.485 270.346 414.091 272.474 413.069C274.604 412.093 276.875 411.521 279.286 411.353C281.743 411.182 284.094 411.433 286.34 412.105C288.59 412.823 290.621 413.947 292.434 415.477C294.247 417.008 295.729 418.929 296.879 421.242C298.032 423.6 298.716 426.314 298.932 429.381C299.148 432.449 298.848 435.208 298.033 437.657C297.218 440.106 296.02 442.214 294.439 443.98C292.858 445.747 291.004 447.141 288.877 448.163C286.749 449.185 284.458 449.782 282.002 449.952C279.59 450.12 277.259 449.845 275.01 449.127C272.76 448.409 270.729 447.285 268.916 445.755C267.103 444.224 265.622 442.303 264.472 439.99C263.322 437.677 262.639 434.987 262.423 431.919ZM280.079 422.617C278.248 422.744 276.664 423.199 275.328 423.982C273.995 424.811 272.991 425.847 272.315 427.091C271.64 428.334 271.357 429.734 271.467 431.291C271.573 432.802 272.047 434.126 272.89 435.264C273.781 436.444 274.943 437.33 276.376 437.92C277.808 438.511 279.418 438.744 281.204 438.62C283.035 438.493 284.619 438.037 285.955 437.254C287.291 436.471 288.295 435.435 288.968 434.146C289.643 432.903 289.928 431.526 289.822 430.015C289.712 428.458 289.236 427.111 288.393 425.973C287.55 424.835 286.41 423.948 284.974 423.312C283.542 422.721 281.91 422.49 280.079 422.617Z" fill="#FA6425"/>
<path fill-rule="evenodd" clip-rule="evenodd" d="M228.068 389.618C227.852 386.55 228.15 383.769 228.962 381.274C229.777 378.825 230.975 376.717 232.556 374.95C234.137 373.184 235.991 371.79 238.118 370.768C240.249 369.791 242.52 369.22 244.931 369.052C247.388 368.881 249.739 369.132 251.985 369.804C254.235 370.522 256.266 371.646 258.079 373.176C259.892 374.707 261.373 376.628 262.523 378.941C263.677 381.299 264.361 384.012 264.577 387.08C264.793 390.148 264.493 392.907 263.678 395.356C262.863 397.805 261.665 399.913 260.084 401.679C258.503 403.446 256.648 404.84 254.521 405.862C252.394 406.884 250.103 407.48 247.646 407.651C245.235 407.819 242.904 407.544 240.655 406.826C238.405 406.108 236.374 404.984 234.561 403.454C232.748 401.923 231.266 400.002 230.116 397.689C228.966 395.376 228.284 392.686 228.068 389.618ZM245.724 380.316C243.892 380.443 242.309 380.898 240.973 381.681C239.64 382.51 238.636 383.546 237.96 384.789C237.285 386.033 237.002 387.433 237.111 388.99C237.218 390.501 237.692 391.825 238.535 392.963C239.426 394.143 240.588 395.029 242.021 395.619C243.453 396.21 245.063 396.443 246.849 396.319C248.68 396.191 250.264 395.736 251.6 394.953C252.936 394.17 253.94 393.134 254.613 391.845C255.288 390.602 255.573 389.225 255.466 387.714C255.357 386.157 254.881 384.81 254.038 383.672C253.195 382.534 252.055 381.647 250.619 381.011C249.186 380.42 247.555 380.188 245.724 380.316Z" fill="#FA6425"/>
<path d="M230.063 435.291L231.941 443.689L296.323 385.091L294.444 376.693L230.063 435.291Z" fill="#FA6425"/>
<path d="M192.917 331.707L196.863 339.356L243.761 266.227L239.815 258.578L192.917 331.707Z" fill="#FA6425"/>
<path fill-rule="evenodd" clip-rule="evenodd" d="M223.14 320.193C222.151 317.279 221.728 314.511 221.871 311.889C222.03 309.311 222.643 306.965 223.711 304.853C224.78 302.74 226.205 300.918 227.988 299.386C229.785 297.898 231.82 296.766 234.094 295.989C236.41 295.197 238.732 294.84 241.061 294.918C243.405 295.039 245.642 295.609 247.774 296.628C249.906 297.647 251.819 299.129 253.513 301.075C255.222 303.063 256.571 305.515 257.561 308.429C258.55 311.343 258.966 314.089 258.807 316.668C258.649 319.246 258.036 321.592 256.967 323.704C255.899 325.817 254.474 327.639 252.691 329.171C250.909 330.702 248.859 331.864 246.544 332.655C244.27 333.433 241.961 333.76 239.618 333.639C237.274 333.518 235.036 332.948 232.905 331.929C230.773 330.91 228.86 329.428 227.166 327.483C225.472 325.537 224.13 323.108 223.14 320.193ZM237.727 306.689C236.001 307.279 234.596 308.123 233.512 309.221C232.443 310.363 231.743 311.622 231.411 312.998C231.079 314.373 231.164 315.8 231.666 317.279C232.154 318.715 232.947 319.875 234.047 320.762C235.204 321.677 236.545 322.238 238.072 322.444C239.599 322.651 241.204 322.466 242.889 321.89C244.615 321.3 246.02 320.456 247.104 319.357C248.187 318.259 248.888 317 249.205 315.581C249.536 314.206 249.459 312.8 248.971 311.365C248.469 309.886 247.668 308.703 246.568 307.817C245.469 306.931 244.148 306.363 242.607 306.113C241.08 305.907 239.453 306.099 237.727 306.689Z" fill="#FA6425"/>
<path fill-rule="evenodd" clip-rule="evenodd" d="M179.356 288.01C178.367 285.096 177.944 282.328 178.087 279.706C178.246 277.128 178.859 274.782 179.927 272.67C180.996 270.557 182.421 268.735 184.204 267.203C186.001 265.715 188.036 264.583 190.31 263.806C192.626 263.014 194.948 262.657 197.277 262.735C199.621 262.856 201.858 263.426 203.99 264.445C206.122 265.464 208.034 266.946 209.729 268.892C211.438 270.88 212.787 273.332 213.776 276.246C214.766 279.16 215.181 281.906 215.023 284.485C214.865 287.063 214.251 289.409 213.183 291.521C212.115 293.634 210.689 295.456 208.907 296.988C207.124 298.519 205.075 299.681 202.759 300.472C200.486 301.249 198.177 301.577 195.834 301.456C193.49 301.335 191.252 300.765 189.12 299.746C186.989 298.727 185.076 297.245 183.382 295.299C181.687 293.354 180.346 290.925 179.356 288.01ZM193.943 274.505C192.217 275.095 190.812 275.94 189.728 277.038C188.659 278.18 187.959 279.439 187.627 280.815C187.295 282.19 187.38 283.617 187.882 285.096C188.37 286.532 189.163 287.692 190.263 288.579C191.42 289.494 192.761 290.055 194.288 290.261C195.815 290.467 197.42 290.283 199.104 289.707C200.831 289.117 202.236 288.273 203.319 287.174C204.403 286.076 205.103 284.817 205.421 283.398C205.752 282.022 205.674 280.617 205.187 279.182C204.685 277.703 203.884 276.52 202.784 275.634C201.685 274.748 200.364 274.18 198.822 273.93C197.296 273.724 195.669 273.915 193.943 274.505Z" fill="#FA6425"/>
<path fill-rule="evenodd" clip-rule="evenodd" d="M461.134 144.013C459.91 146.859 458.361 149.211 456.487 151.07C454.631 152.886 452.592 154.22 450.369 155.072C448.146 155.924 445.852 156.317 443.487 156.251C441.14 156.142 438.855 155.607 436.631 154.645C434.366 153.666 432.388 152.357 430.699 150.72C429.028 149.04 427.739 147.097 426.832 144.892C425.924 142.686 425.492 140.283 425.536 137.683C425.598 135.04 426.241 132.296 427.465 129.451C428.689 126.606 430.229 124.275 432.085 122.459C433.941 120.642 435.98 119.308 438.203 118.456C440.426 117.604 442.72 117.211 445.085 117.277C447.45 117.343 449.765 117.866 452.03 118.846C454.254 119.808 456.202 121.129 457.873 122.808C459.544 124.488 460.833 126.431 461.74 128.636C462.648 130.842 463.08 133.245 463.036 135.845C462.992 138.445 462.358 141.168 461.134 144.013ZM441.125 144.198C442.813 144.929 444.433 145.252 445.984 145.167C447.553 145.04 448.925 144.575 450.1 143.774C451.275 142.973 452.173 141.85 452.794 140.406C453.397 139.005 453.586 137.601 453.361 136.194C453.112 134.726 452.487 133.398 451.484 132.209C450.482 131.02 449.156 130.069 447.509 129.356C445.82 128.626 444.201 128.303 442.65 128.388C441.099 128.473 439.727 128.937 438.534 129.781C437.359 130.582 436.47 131.684 435.867 133.085C435.246 134.529 435.048 135.954 435.273 137.361C435.498 138.768 436.103 140.087 437.088 141.319C438.09 142.508 439.436 143.468 441.125 144.198Z" fill="#FA6425"/>
<path fill-rule="evenodd" clip-rule="evenodd" d="M450.079 90.3117C448.855 93.157 447.306 95.509 445.431 97.3679C443.575 99.1843 441.536 100.518 439.313 101.37C437.091 102.222 434.797 102.615 432.432 102.549C430.085 102.441 427.799 101.906 425.575 100.944C423.31 99.9639 421.333 98.6554 419.644 97.0182C417.973 95.3385 416.684 93.3958 415.776 91.1901C414.869 88.9844 414.437 86.5814 414.481 83.9813C414.543 81.3387 415.186 78.5947 416.41 75.7494C417.634 72.9042 419.174 70.5733 421.03 68.757C422.885 66.9406 424.925 65.6065 427.148 64.7546C429.37 63.9027 431.664 63.5097 434.029 63.5757C436.394 63.6417 438.71 64.1645 440.975 65.1442C443.199 66.1061 445.146 67.427 446.817 69.1067C448.488 70.7864 449.778 72.7291 450.685 74.9348C451.592 77.1405 452.024 79.5434 451.98 82.1436C451.936 84.7437 451.303 87.4665 450.079 90.3117ZM430.069 90.4969C431.758 91.2272 433.377 91.55 434.928 91.4652C436.497 91.3379 437.869 90.8736 439.044 90.0723C440.219 89.271 441.118 88.1484 441.739 86.7046C442.341 85.3032 442.53 83.899 442.305 82.492C442.057 81.0248 441.432 79.6965 440.429 78.5073C439.426 77.3181 438.101 76.3673 436.454 75.6548C434.765 74.9244 433.145 74.6016 431.595 74.6864C430.044 74.7712 428.672 75.2355 427.478 76.0793C426.303 76.8806 425.414 77.9819 424.811 79.3833C424.19 80.8272 423.992 82.2526 424.218 83.6596C424.443 85.0665 425.048 86.3859 426.032 87.6175C427.035 88.8067 428.381 89.7665 430.069 90.4969Z" fill="#FA6425"/>
<path d="M480.439 102.215L482.643 93.8322L398.289 116.594L396.085 124.977L480.439 102.215Z" fill="#FA6425"/>
<path d="M396.853 364.147L403.539 369.664L389.086 456L382.4 450.484L396.853 364.147Z" fill="#FA6425"/>
<path fill-rule="evenodd" clip-rule="evenodd" d="M433.415 404.74C435.487 407.046 436.975 409.441 437.881 411.926C438.757 414.376 439.118 416.791 438.966 419.172C438.814 421.552 438.216 423.806 437.172 425.931C436.097 428.023 434.661 429.88 432.863 431.502C431.032 433.155 429.023 434.407 426.835 435.26C424.616 436.078 422.318 436.439 419.94 436.342C417.562 436.244 415.203 435.632 412.863 434.503C410.492 433.34 408.271 431.606 406.199 429.301C404.128 426.995 402.655 424.617 401.78 422.167C400.905 419.716 400.543 417.301 400.695 414.92C400.848 412.54 401.446 410.287 402.489 408.161C403.533 406.035 404.971 404.146 406.802 402.493C408.6 400.871 410.608 399.651 412.827 398.832C415.045 398.014 417.344 397.653 419.722 397.751C422.1 397.848 424.459 398.461 426.799 399.589C429.138 400.717 431.344 402.434 433.415 404.74ZM425.258 423.037C426.623 421.805 427.59 420.466 428.158 419.018C428.695 417.536 428.845 416.092 428.607 414.687C428.369 413.282 427.725 411.994 426.674 410.824C425.654 409.688 424.459 408.929 423.089 408.545C421.655 408.156 420.19 408.17 418.694 408.585C417.199 409 415.785 409.808 414.453 411.01C413.088 412.242 412.122 413.582 411.553 415.029C410.985 416.477 410.835 417.92 411.104 419.36C411.342 420.766 411.971 422.036 412.991 423.172C414.042 424.342 415.253 425.119 416.622 425.503C417.992 425.887 419.44 425.888 420.967 425.507C422.463 425.092 423.893 424.269 425.258 423.037Z" fill="#FA6425"/>
<path fill-rule="evenodd" clip-rule="evenodd" d="M380.111 392.325C382.182 394.63 383.671 397.026 384.577 399.51C385.452 401.961 385.814 404.376 385.661 406.757C385.509 409.137 384.911 411.39 383.867 413.516C382.793 415.608 381.356 417.465 379.559 419.087C377.727 420.739 375.718 421.992 373.53 422.845C371.312 423.663 369.013 424.023 366.635 423.926C364.257 423.829 361.898 423.216 359.558 422.088C357.187 420.925 354.966 419.191 352.895 416.885C350.824 414.58 349.351 412.202 348.475 409.751C347.6 407.301 347.239 404.886 347.391 402.505C347.543 400.125 348.141 397.871 349.185 395.746C350.229 393.62 351.666 391.73 353.497 390.078C355.295 388.456 357.303 387.235 359.522 386.417C361.741 385.599 364.039 385.238 366.417 385.335C368.795 385.432 371.154 386.045 373.494 387.174C375.834 388.302 378.04 390.019 380.111 392.325ZM371.953 410.622C373.318 409.39 374.285 408.05 374.853 406.603C375.391 405.121 375.541 403.677 375.303 402.272C375.065 400.866 374.42 399.579 373.369 398.409C372.349 397.273 371.154 396.513 369.784 396.129C368.351 395.741 366.886 395.754 365.39 396.169C363.894 396.585 362.48 397.393 361.149 398.595C359.784 399.827 358.817 401.166 358.249 402.614C357.681 404.061 357.531 405.505 357.799 406.945C358.037 408.35 358.666 409.621 359.687 410.756C360.738 411.926 361.948 412.703 363.318 413.087C364.688 413.471 366.136 413.473 367.662 413.092C369.158 412.677 370.589 411.854 371.953 410.622Z" fill="#FA6425"/>
<path fill-rule="evenodd" clip-rule="evenodd" d="M357.793 350.765C356.057 353.332 354.093 355.357 351.901 356.837C349.735 358.279 347.479 359.214 345.132 359.642C342.786 360.071 340.455 360.036 338.14 359.537C335.85 359 333.701 358.056 331.692 356.704C329.646 355.327 327.944 353.681 326.588 351.764C325.257 349.809 324.351 347.667 323.871 345.336C323.39 343.005 323.414 340.568 323.943 338.024C324.497 335.442 325.643 332.867 327.379 330.3C329.115 327.732 331.066 325.727 333.232 324.285C335.398 322.843 337.654 321.908 340 321.48C342.347 321.051 344.678 321.086 346.993 321.585C349.308 322.083 351.489 323.021 353.535 324.398C355.544 325.75 357.214 327.403 358.545 329.358C359.875 331.313 360.781 333.456 361.262 335.786C361.743 338.117 361.719 340.555 361.19 343.098C360.661 345.642 359.529 348.197 357.793 350.765ZM338.066 347.277C339.592 348.303 341.125 348.917 342.667 349.118C344.235 349.281 345.672 349.077 346.978 348.506C348.284 347.935 349.378 346.999 350.259 345.696C351.114 344.431 351.562 343.088 351.603 341.666C351.633 340.18 351.266 338.762 350.501 337.411C349.737 336.06 348.61 334.884 347.122 333.883C345.597 332.857 344.063 332.243 342.521 332.042C340.979 331.84 339.542 332.044 338.21 332.653C336.904 333.224 335.823 334.142 334.968 335.407C334.087 336.71 333.626 338.072 333.585 339.494C333.544 340.916 333.893 342.322 334.631 343.711C335.396 345.062 336.541 346.25 338.066 347.277Z" fill="#FA6425"/>
<path fill-rule="evenodd" clip-rule="evenodd" d="M356.946 296.039C355.21 298.607 353.246 300.631 351.054 302.111C348.888 303.553 346.632 304.489 344.285 304.917C341.939 305.345 339.608 305.31 337.292 304.812C335.003 304.275 332.854 303.33 330.845 301.979C328.799 300.602 327.097 298.955 325.741 297.039C324.41 295.084 323.504 292.941 323.023 290.61C322.543 288.279 322.567 285.842 323.095 283.298C323.65 280.717 324.796 278.142 326.532 275.574C328.268 273.007 330.219 271.002 332.385 269.56C334.551 268.118 336.807 267.182 339.153 266.754C341.5 266.326 343.831 266.361 346.146 266.859C348.461 267.358 350.642 268.296 352.688 269.672C354.697 271.024 356.367 272.678 357.698 274.632C359.028 276.587 359.934 278.73 360.415 281.061C360.896 283.392 360.872 285.829 360.343 288.373C359.814 290.916 358.682 293.472 356.946 296.039ZM337.219 292.551C338.744 293.578 340.278 294.191 341.82 294.393C343.388 294.555 344.825 294.352 346.131 293.781C347.437 293.21 348.531 292.273 349.412 290.97C350.267 289.705 350.715 288.362 350.756 286.94C350.786 285.455 350.419 284.037 349.654 282.686C348.89 281.335 347.763 280.159 346.275 279.157C344.75 278.131 343.216 277.517 341.674 277.316C340.132 277.115 338.695 277.319 337.363 277.928C336.057 278.499 334.976 279.416 334.121 280.681C333.24 281.984 332.779 283.347 332.738 284.768C332.697 286.19 333.045 287.596 333.784 288.985C334.549 290.336 335.694 291.525 337.219 292.551Z" fill="#FA6425"/>
<path d="M384.6 313.289L388.336 305.466L301.069 312.332L297.333 320.154L384.6 313.289Z" fill="#FA6425"/>
<path fill-rule="evenodd" clip-rule="evenodd" d="M403.97 3.54068C401.495 2.61826 398.708 2.19736 395.61 2.27793C392.511 2.35852 389.771 2.92316 387.39 3.97187C385.008 5.02057 383.005 6.41824 381.381 8.16492C379.756 9.91159 378.531 11.8946 377.705 14.1139C376.878 16.3332 376.494 18.6531 376.551 21.0737C376.61 23.5391 377.105 25.8586 378.036 28.0322C378.967 30.2058 380.285 32.1227 381.991 33.7827C383.696 35.4428 385.763 36.7347 388.191 37.6583C390.62 38.5819 393.383 39.0034 396.482 38.9229C399.581 38.8423 402.344 38.277 404.772 37.2271C407.153 36.1784 409.156 34.7807 410.78 33.0341C412.405 31.2874 413.63 29.3044 414.457 27.0851C415.237 24.867 415.598 22.5252 415.539 20.0598C415.481 17.6393 415.01 15.3416 414.125 13.1668C413.194 10.9932 411.876 9.07633 410.171 7.41623C408.465 5.75614 406.398 4.4643 403.97 3.54068ZM403.006 15.5416C403.733 16.9132 404.118 18.5179 404.162 20.3557C404.205 22.1935 403.897 23.8163 403.236 25.2239C402.529 26.6328 401.584 27.7339 400.4 28.5272C399.215 29.3205 397.837 29.7375 396.264 29.7784C394.738 29.8181 393.365 29.4726 392.144 28.7418C390.877 28.0123 389.88 26.9617 389.154 25.5902C388.427 24.2186 388.042 22.6139 387.998 20.7761C387.955 18.983 388.264 17.3827 388.925 15.9751C389.585 14.5674 390.53 13.4439 391.76 12.6046C392.944 11.8113 394.3 11.3948 395.826 11.3551C397.398 11.3142 398.795 11.6592 400.015 12.3899C401.236 13.1207 402.233 14.1713 403.006 15.5416Z" fill="#FA6425"/>
<path fill-rule="evenodd" clip-rule="evenodd" d="M448.143 -28.9707C445.668 -29.8931 442.882 -30.314 439.783 -30.2334C436.684 -30.1529 433.944 -29.5882 431.563 -28.5395C429.181 -27.4908 427.178 -26.0931 425.554 -24.3465C423.93 -22.5998 422.704 -20.6168 421.878 -18.3975C421.051 -16.1782 420.667 -13.8582 420.724 -11.4376C420.783 -8.97225 421.278 -6.65273 422.209 -4.47915C423.14 -2.30553 424.458 -0.388699 426.164 1.2714C427.869 2.93146 429.936 4.2233 432.365 5.14692C434.793 6.07056 437.557 6.49207 440.655 6.41151C443.754 6.33094 446.517 5.76569 448.945 4.7158C451.326 3.66709 453.329 2.26939 454.954 0.522713C456.578 -1.22396 457.803 -3.20693 458.63 -5.42623C459.41 -7.64434 459.771 -9.98607 459.712 -12.4515C459.654 -14.8721 459.183 -17.1698 458.298 -19.3446C457.367 -21.5182 456.049 -23.435 454.344 -25.0951C452.638 -26.7552 450.571 -28.047 448.143 -28.9707ZM447.179 -16.9697C447.906 -15.5982 448.291 -13.9935 448.335 -12.1556C448.379 -10.3178 448.07 -8.69503 447.41 -7.28741C446.703 -5.87856 445.757 -4.77749 444.573 -3.98418C443.388 -3.19088 442.01 -2.77383 440.438 -2.73293C438.911 -2.69323 437.538 -3.03878 436.317 -3.76955C435.05 -4.49911 434.054 -5.54968 433.327 -6.9212C432.6 -8.29278 432.215 -9.89746 432.171 -11.7353C432.128 -13.5283 432.437 -15.1287 433.098 -16.5363C433.759 -17.9439 434.704 -19.0674 435.933 -19.9068C437.118 -20.7001 438.473 -21.1165 439.999 -21.1562C441.571 -21.1971 442.968 -20.8522 444.189 -20.1214C445.409 -19.3906 446.406 -18.3401 447.179 -16.9697Z" fill="#FA6425"/>
<path d="M385.165 -28.7428L393.707 -30.2524L449.737 36.7561L441.194 38.2658L385.165 -28.7428Z" fill="#FA6425"/>
<path fill-rule="evenodd" clip-rule="evenodd" d="M301.932 27.1996C302.148 30.2945 301.85 33.1005 301.037 35.6176C300.222 38.0885 299.023 40.2149 297.441 41.9969C295.858 43.7788 294.003 45.1854 291.875 46.2165C289.743 47.2014 287.47 47.7784 285.057 47.9476C282.599 48.1198 280.246 47.867 277.999 47.189C275.748 46.4648 273.715 45.3307 271.901 43.7868C270.086 42.2429 268.604 40.3044 267.453 37.9713C266.299 35.592 265.614 32.8549 265.398 29.76C265.182 26.6651 265.482 23.8822 266.298 21.4113C267.113 18.9404 268.312 16.8139 269.895 15.0319C271.477 13.25 273.332 11.8435 275.461 10.8123C277.589 9.78121 279.882 9.1795 282.34 9.00726C284.753 8.83813 287.086 9.11565 289.337 9.83984C291.588 10.564 293.62 11.6981 295.434 13.242C297.249 14.7859 298.731 16.7245 299.882 19.0576C301.033 21.3907 301.716 24.1047 301.932 27.1996ZM284.264 36.5842C286.097 36.4558 287.681 35.9966 289.018 35.2066C290.352 34.3704 291.357 33.3252 292.033 32.071C292.709 30.8167 292.992 29.4044 292.882 27.8338C292.776 26.3094 292.301 24.9734 291.458 23.8256C290.566 22.6348 289.404 21.7415 287.97 21.1457C286.536 20.5499 284.925 20.3146 283.138 20.4399C281.306 20.5684 279.721 21.0275 278.384 21.8175C277.047 22.6075 276.042 23.6527 275.369 24.9531C274.693 26.2074 274.409 27.5967 274.515 29.1211C274.625 30.6916 275.101 32.0507 275.945 33.1985C276.788 34.3463 277.928 35.2411 279.365 35.8831C280.799 36.4789 282.432 36.7126 284.264 36.5842Z" fill="#FA6425"/>
<path fill-rule="evenodd" clip-rule="evenodd" d="M267.554 -15.4753C267.77 -12.3803 267.471 -9.57438 266.659 -7.05726C265.843 -4.58634 264.645 -2.45991 263.062 -0.677956C261.48 1.104 259.625 2.51052 257.496 3.54168C255.365 4.5266 253.092 5.10363 250.679 5.27279C248.221 5.44503 245.868 5.19216 243.62 4.51418C241.369 3.78997 239.337 2.65587 237.523 1.11199C235.708 -0.431927 234.226 -2.37043 233.075 -4.70356C231.921 -7.08287 231.236 -9.81996 231.02 -12.9148C230.804 -16.0097 231.104 -18.7927 231.92 -21.2636C232.735 -23.7345 233.934 -25.8609 235.516 -27.6429C237.098 -29.4248 238.954 -30.8314 241.082 -31.8625C243.211 -32.8936 245.504 -33.4953 247.962 -33.6676C250.375 -33.8367 252.707 -33.5592 254.958 -32.835C257.209 -32.1108 259.242 -30.9768 261.056 -29.4328C262.87 -27.8889 264.353 -25.9504 265.504 -23.6173C266.654 -21.2842 267.338 -18.5702 267.554 -15.4753ZM249.886 -6.09062C251.718 -6.21903 253.303 -6.67826 254.64 -7.46821C255.974 -8.30439 256.979 -9.34956 257.655 -10.6038C258.331 -11.8581 258.614 -13.2705 258.504 -14.841C258.398 -16.3654 257.923 -17.7014 257.079 -18.8492C256.188 -20.04 255.025 -20.9334 253.592 -21.5292C252.158 -22.1249 250.547 -22.3602 248.76 -22.2349C246.927 -22.1065 245.343 -21.6473 244.006 -20.8573C242.669 -20.0674 241.664 -19.0221 240.991 -17.7217C240.315 -16.4674 240.03 -15.0782 240.137 -13.5538C240.246 -11.9832 240.723 -10.6241 241.566 -9.4763C242.41 -8.32853 243.55 -7.43369 244.987 -6.7917C246.421 -6.1959 248.054 -5.9622 249.886 -6.09062Z" fill="#FA6425"/>
<path d="M299.936 -18.8763L298.056 -27.3489L233.631 31.7666L235.512 40.2393L299.936 -18.8763Z" fill="#FA6425"/>
<path d="M435.483 195.902L428.284 191.055L422.308 278.294L429.507 283.141L435.483 195.902Z" fill="#FA6425"/>
<path fill-rule="evenodd" clip-rule="evenodd" d="M468.668 227.929C470.956 230.023 472.673 232.263 473.818 234.647C474.929 237.001 475.525 239.368 475.605 241.75C475.686 244.132 475.31 246.43 474.477 248.643C473.611 250.826 472.361 252.81 470.728 254.595C469.065 256.413 467.186 257.851 465.09 258.908C462.959 259.934 460.705 260.512 458.326 260.643C455.948 260.773 453.538 260.389 451.097 259.491C448.621 258.561 446.24 257.049 443.951 254.954C441.663 252.859 439.963 250.635 438.852 248.282C437.742 245.929 437.146 243.561 437.065 241.18C436.985 238.798 437.361 236.5 438.193 234.286C439.026 232.072 440.273 230.056 441.936 228.238C443.569 226.453 445.45 225.047 447.581 224.021C449.711 222.996 451.966 222.417 454.344 222.287C456.723 222.156 459.132 222.54 461.574 223.439C464.015 224.337 466.38 225.834 468.668 227.929ZM462.326 246.904C463.566 245.548 464.398 244.124 464.823 242.63C465.214 241.105 465.222 239.655 464.848 238.28C464.474 236.905 463.707 235.686 462.545 234.623C461.418 233.591 460.154 232.95 458.752 232.699C457.285 232.45 455.827 232.603 454.378 233.159C452.928 233.715 451.599 234.654 450.389 235.976C449.15 237.332 448.318 238.756 447.893 240.25C447.468 241.744 447.459 243.194 447.867 244.6C448.241 245.975 448.992 247.178 450.119 248.21C451.28 249.273 452.562 249.93 453.964 250.181C455.366 250.432 456.809 250.295 458.293 249.771C459.742 249.215 461.087 248.259 462.326 246.904Z" fill="#FA6425"/>
<path fill-rule="evenodd" clip-rule="evenodd" d="M414.355 220.677C416.643 222.772 418.36 225.011 419.505 227.396C420.616 229.749 421.211 232.116 421.292 234.498C421.373 236.88 420.997 239.178 420.164 241.391C419.297 243.574 418.048 245.558 416.415 247.343C414.752 249.161 412.873 250.599 410.776 251.656C408.646 252.682 406.391 253.26 404.013 253.391C401.634 253.521 399.225 253.138 396.783 252.239C394.308 251.309 391.926 249.797 389.638 247.702C387.35 245.607 385.65 243.383 384.539 241.03C383.428 238.677 382.832 236.31 382.752 233.928C382.671 231.546 383.047 229.248 383.88 227.034C384.712 224.82 385.96 222.804 387.623 220.986C389.256 219.201 391.137 217.795 393.268 216.769C395.398 215.744 397.652 215.165 400.031 215.035C402.409 214.904 404.819 215.288 407.26 216.187C409.702 217.085 412.066 218.582 414.355 220.677ZM408.013 239.652C409.253 238.296 410.085 236.872 410.51 235.378C410.901 233.853 410.909 232.403 410.535 231.028C410.161 229.653 409.393 228.434 408.232 227.371C407.105 226.339 405.841 225.698 404.439 225.447C402.972 225.198 401.514 225.351 400.065 225.907C398.615 226.463 397.285 227.402 396.076 228.724C394.836 230.08 394.004 231.504 393.579 232.998C393.154 234.492 393.146 235.942 393.554 237.348C393.928 238.723 394.679 239.926 395.806 240.958C396.967 242.021 398.249 242.678 399.651 242.929C401.053 243.18 402.496 243.043 403.979 242.519C405.429 241.963 406.773 241.007 408.013 239.652Z" fill="#FA6425"/>
<path fill-rule="evenodd" clip-rule="evenodd" d="M175.343 120.248C177.066 117.699 179.015 115.69 181.191 114.221C183.341 112.789 185.58 111.861 187.91 111.436C190.239 111.01 192.553 111.045 194.851 111.54C197.123 112.073 199.257 113.01 201.251 114.352C203.282 115.719 204.971 117.353 206.317 119.256C207.638 121.196 208.537 123.323 209.014 125.637C209.492 127.95 209.468 130.37 208.943 132.894C208.392 135.457 207.255 138.013 205.532 140.562C203.809 143.11 201.872 145.1 199.722 146.532C197.573 147.963 195.333 148.892 193.004 149.317C190.675 149.742 188.361 149.707 186.063 149.212C183.765 148.717 181.6 147.787 179.569 146.42C177.575 145.078 175.917 143.437 174.596 141.497C173.275 139.556 172.376 137.429 171.899 135.116C171.422 132.802 171.445 130.383 171.97 127.858C172.495 125.333 173.62 122.796 175.343 120.248ZM194.924 123.71C193.41 122.691 191.887 122.082 190.357 121.882C188.8 121.721 187.374 121.923 186.077 122.49C184.781 123.056 183.695 123.986 182.821 125.28C181.972 126.535 181.527 127.868 181.486 129.28C181.457 130.754 181.821 132.162 182.58 133.503C183.339 134.844 184.457 136.011 185.934 137.005C187.449 138.024 188.971 138.633 190.501 138.833C192.032 139.033 193.458 138.83 194.781 138.225C196.077 137.659 197.15 136.748 197.999 135.493C198.873 134.199 199.331 132.847 199.372 131.435C199.413 130.024 199.066 128.629 198.333 127.25C197.574 125.909 196.438 124.729 194.924 123.71Z" fill="#FA6425"/>
<path fill-rule="evenodd" clip-rule="evenodd" d="M174.502 65.9262C176.225 63.3775 178.175 61.3685 180.35 59.899C182.5 58.4676 184.74 57.5393 187.069 57.1142C189.398 56.689 191.712 56.7238 194.01 57.2186C196.282 57.7515 198.416 58.6889 200.41 60.0307C202.441 61.3974 204.13 63.0319 205.476 64.9342C206.797 66.8746 207.696 69.0016 208.174 71.3153C208.651 73.629 208.627 76.0482 208.102 78.573C207.551 81.1358 206.414 83.6915 204.691 86.2402C202.968 88.7889 201.031 90.7789 198.882 92.2103C196.732 93.6417 194.492 94.5701 192.163 94.9952C189.834 95.4204 187.52 95.3855 185.222 94.8907C182.924 94.3959 180.759 93.4651 178.728 92.0984C176.734 90.7566 175.076 89.1155 173.755 87.1751C172.435 85.2348 171.536 83.1077 171.058 80.7941C170.581 78.4804 170.605 76.0611 171.13 73.5364C171.655 71.0116 172.779 68.4749 174.502 65.9262ZM194.083 69.3885C192.569 68.3697 191.046 67.7605 189.516 67.5608C187.96 67.3991 186.533 67.6015 185.237 68.1682C183.94 68.7348 182.855 69.6647 181.98 70.9581C181.131 72.2135 180.686 73.5468 180.646 74.9583C180.616 76.4327 180.98 77.8403 181.739 79.1812C182.498 80.5221 183.617 81.6896 185.094 82.6835C186.608 83.7023 188.13 84.3116 189.661 84.5113C191.191 84.711 192.618 84.5086 193.94 83.9039C195.236 83.3373 196.309 82.4263 197.158 81.171C198.032 79.8777 198.49 78.5253 198.531 77.1138C198.572 75.7023 198.226 74.3071 197.492 72.9281C196.733 71.5872 195.597 70.4073 194.083 69.3885Z" fill="#FA6425"/>
<path d="M147.892 103.126L144.185 110.89L230.807 104.075L234.515 96.3106L147.892 103.126Z" fill="#FA6425"/>
<path d="M324.416 176.556L320.44 168.849L273.194 242.522L277.169 250.229L324.416 176.556Z" fill="#FA6425"/>
<path fill-rule="evenodd" clip-rule="evenodd" d="M338.078 220.577C339.075 223.513 339.501 226.301 339.356 228.943C339.197 231.54 338.579 233.903 337.503 236.032C336.426 238.16 334.99 239.996 333.195 241.539C331.384 243.038 329.333 244.179 327.043 244.962C324.71 245.759 322.37 246.119 320.024 246.04C317.663 245.918 315.408 245.344 313.261 244.317C311.113 243.291 309.186 241.798 307.479 239.838C305.758 237.834 304.398 235.365 303.402 232.429C302.405 229.493 301.986 226.726 302.146 224.129C302.305 221.531 302.923 219.168 303.999 217.04C305.076 214.911 306.512 213.076 308.307 211.533C310.103 209.99 312.168 208.82 314.5 208.022C316.791 207.239 319.117 206.909 321.478 207.031C323.839 207.153 326.093 207.728 328.241 208.754C330.388 209.781 332.316 211.274 334.022 213.234C335.729 215.193 337.081 217.641 338.078 220.577ZM323.383 234.182C325.122 233.588 326.537 232.737 327.629 231.631C328.706 230.48 329.412 229.212 329.746 227.826C330.08 226.44 329.994 225.003 329.488 223.513C328.997 222.067 328.198 220.897 327.09 220.004C325.925 219.082 324.573 218.517 323.035 218.309C321.497 218.102 319.88 218.288 318.183 218.867C316.444 219.462 315.028 220.312 313.936 221.419C312.845 222.526 312.139 223.794 311.82 225.224C311.485 226.609 311.564 228.025 312.055 229.471C312.561 230.961 313.368 232.153 314.475 233.045C315.583 233.938 316.914 234.51 318.467 234.762C320.005 234.97 321.644 234.777 323.383 234.182Z" fill="#FA6425"/>
<path fill-rule="evenodd" clip-rule="evenodd" d="M293.968 188.154C294.965 191.09 295.391 193.879 295.246 196.52C295.087 199.118 294.469 201.481 293.393 203.609C292.316 205.738 290.88 207.573 289.085 209.116C287.274 210.616 285.223 211.757 282.933 212.539C280.6 213.337 278.26 213.696 275.914 213.618C273.553 213.496 271.299 212.921 269.151 211.895C267.004 210.868 265.076 209.375 263.37 207.415C261.648 205.412 260.289 202.942 259.292 200.006C258.295 197.071 257.876 194.304 258.036 191.706C258.195 189.109 258.813 186.746 259.889 184.617C260.966 182.489 262.402 180.653 264.198 179.11C265.993 177.567 268.058 176.397 270.391 175.6C272.681 174.817 275.007 174.487 277.368 174.609C279.729 174.731 281.984 175.305 284.131 176.332C286.279 177.358 288.206 178.852 289.913 180.811C291.619 182.771 292.971 185.219 293.968 188.154ZM279.273 201.76C281.012 201.165 282.427 200.315 283.519 199.208C284.596 198.058 285.302 196.789 285.636 195.404C285.97 194.018 285.884 192.58 285.379 191.09C284.888 189.644 284.088 188.475 282.98 187.582C281.815 186.66 280.463 186.095 278.925 185.887C277.387 185.679 275.77 185.865 274.073 186.445C272.334 187.039 270.918 187.89 269.827 188.997C268.735 190.103 268.029 191.372 267.71 192.801C267.376 194.187 267.454 195.603 267.945 197.049C268.451 198.539 269.258 199.73 270.366 200.623C271.474 201.516 272.804 202.088 274.357 202.34C275.895 202.548 277.534 202.354 279.273 201.76Z" fill="#FA6425"/>
</svg>
