<svg width="263" height="374" viewBox="0 0 263 374" fill="none" xmlns="http://www.w3.org/2000/svg">
<path fill-rule="evenodd" clip-rule="evenodd" d="M61.1019 370.183C51.3894 370.183 42.6916 368.636 35.0085 365.541C27.4705 362.446 21.0921 358.226 15.8734 352.88C10.6548 347.535 6.6683 341.416 3.914 334.523C1.30466 327.63 0 320.386 0 312.789C0 305.053 1.30466 297.738 3.914 290.845C6.6683 283.952 10.6548 277.833 15.8734 272.487C21.0921 267.142 27.4705 262.922 35.0085 259.827C42.6916 256.732 51.3894 255.185 61.1019 255.185C70.8144 255.185 79.4397 256.732 86.9777 259.827C94.5158 262.922 100.894 267.142 106.113 272.487C111.332 277.833 115.318 283.952 118.072 290.845C120.827 297.738 122.204 305.053 122.204 312.789C122.204 320.386 120.827 327.63 118.072 334.523C115.318 341.416 111.332 347.535 106.113 352.88C100.894 358.226 94.5158 362.446 86.9777 365.541C79.4397 368.636 70.8144 370.183 61.1019 370.183ZM35.6609 312.789C35.6609 318.557 36.7481 323.621 38.9225 327.982C41.2419 332.343 44.2862 335.719 48.0552 338.11C51.8242 340.502 56.1731 341.697 61.1019 341.697C65.8856 341.697 70.162 340.502 73.9311 338.11C77.8451 335.578 80.8893 332.132 83.0637 327.771C85.2382 323.41 86.3254 318.416 86.3254 312.789C86.3254 307.022 85.2382 301.958 83.0637 297.597C80.8893 293.236 77.8451 289.86 73.9311 287.469C70.162 285.077 65.8856 283.882 61.1019 283.882C56.1731 283.882 51.8242 285.077 48.0552 287.469C44.2862 289.86 41.2419 293.236 38.9225 297.597C36.7481 301.958 35.6609 307.022 35.6609 312.789Z" fill="black"/>
<path d="M232.303 369.962L205.432 374L34.9167 159.277L61.7881 155.239L232.303 369.962Z" fill="black"/>
<path fill-rule="evenodd" clip-rule="evenodd" d="M88.4413 82.2895C88.4413 86.0949 86.8018 89.122 84.864 92.6996C82.0647 97.868 78.6431 104.185 78.6431 115.658C78.6431 127.388 84.2719 137.297 89.9006 142.758C95.06 147.763 106.444 160.587 116.35 171.746L116.351 171.747C122.456 178.624 127.999 184.868 131.178 188.261C131.918 189.058 132.561 189.793 133.17 190.49C134.106 191.559 134.963 192.539 135.973 193.519L142.281 200.612C141.291 205.058 140.796 209.663 140.796 214.429C140.796 222.025 142.101 229.27 144.71 236.163C147.465 243.055 151.451 249.175 156.67 254.52C161.888 259.866 168.267 264.086 175.805 267.18C183.488 270.275 192.186 271.822 201.898 271.822C211.611 271.822 220.236 270.275 227.774 267.18C235.312 264.086 241.69 259.866 246.909 254.52C252.128 249.175 256.114 243.055 258.868 236.163C261.623 229.27 263 222.025 263 214.429C263 206.692 261.623 199.377 258.868 192.484C256.114 185.592 252.128 179.472 246.909 174.127C241.69 168.782 235.312 164.561 227.774 161.467C220.236 158.372 211.611 156.825 201.898 156.825C198.685 156.825 195.582 156.994 192.591 157.333C186.464 145.402 177.063 126.697 170.274 113.189C166.331 105.343 163.269 99.2495 162.24 97.2549C157.237 87.5476 151.608 80.2671 140.351 75.8179C128.729 71.21 121.173 71.8778 115.189 72.4066C108.831 72.9685 104.248 73.3735 98.448 67.1218L48.1691 0H25.4068L84.2719 71.7732L84.5223 72.137C86.5203 75.0365 88.4413 77.8244 88.4413 82.2895ZM156.29 174.52C152.56 178.412 149.474 182.71 147.032 187.412C139.026 175.142 121.532 149.271 119.087 145.791C118.373 144.737 117.616 143.688 116.867 142.651C113.021 137.325 109.41 132.326 113.249 128.601C119.26 122.771 124.156 130.369 127.105 134.945C127.531 135.606 127.917 136.205 128.26 136.691C131.141 140.604 134.632 145.281 138.335 150.24L138.335 150.241L138.338 150.245C144.333 158.276 150.882 167.048 156.29 174.52ZM179.168 160.232C178.026 160.612 176.905 161.024 175.805 161.467C172.156 162.965 168.78 164.726 165.675 166.751L150.983 144.174C148.581 140.242 146.072 136.416 143.532 132.543L143.531 132.542C142.544 131.036 141.552 129.523 140.559 127.995C140.355 127.688 140.102 127.327 139.819 126.921L139.818 126.92C136.921 122.777 130.803 114.026 139.725 111.816C144.608 110.588 148.079 115.904 151.772 121.56L151.773 121.561C152.336 122.424 152.905 123.295 153.485 124.152C159.488 133.014 167.043 143.46 174.309 153.508C175.95 155.777 177.577 158.027 179.168 160.232ZM176.457 214.429C176.457 220.197 177.544 225.261 179.719 229.621C182.038 233.982 185.082 237.358 188.851 239.75C192.62 242.141 196.969 243.337 201.898 243.337C206.682 243.337 210.958 242.141 214.727 239.75C218.641 237.218 221.686 233.771 223.86 229.41C226.034 225.05 227.122 220.056 227.122 214.429C227.122 208.662 226.034 203.597 223.86 199.237C221.686 194.876 218.641 191.5 214.727 189.108C210.958 186.717 206.682 185.521 201.898 185.521C196.969 185.521 192.62 186.717 188.851 189.108C185.082 191.5 182.038 194.876 179.719 199.237C177.544 203.597 176.457 208.662 176.457 214.429Z" fill="black"/>
</svg>
