<svg width="775" height="419" viewBox="0 0 775 419" fill="none" xmlns="http://www.w3.org/2000/svg">
<path d="M35.8852 49.3364L42.5713 54.8529L57.0248 -31.4836L50.3386 -37L35.8852 49.3364Z" fill="#F25411"/>
<path fill-rule="evenodd" clip-rule="evenodd" d="M1.54286 7.07438C2.44893 9.55915 3.9376 11.9543 6.00889 14.2599C8.08017 16.5655 10.2858 18.2825 12.6258 19.4109C14.9658 20.5394 17.3248 21.1522 19.7028 21.2494C22.0808 21.3465 24.3791 20.986 26.5978 20.1676C28.8165 19.3493 30.8247 18.129 32.6224 16.5067C34.4535 14.8543 35.891 12.9651 36.9349 10.8392C37.9788 8.71321 38.5768 6.46001 38.729 4.07954C38.8811 1.69907 38.5196 -0.716339 37.6445 -3.16669C36.7693 -5.61705 35.2961 -7.99502 33.2248 -10.3006C31.1535 -12.6062 28.9324 -14.3404 26.5615 -15.5032C24.2216 -16.6317 21.8626 -17.2445 19.4845 -17.3417C17.1065 -17.4388 14.8082 -17.0783 12.5895 -16.26C10.4018 -15.4072 8.39236 -14.1547 6.56132 -12.5023C4.76357 -10.88 3.32729 -9.02301 2.25246 -6.93147C1.20855 -4.80553 0.610518 -2.55232 0.458363 -0.171852C0.306211 2.20862 0.667711 4.62402 1.54286 7.07438ZM11.2664 -0.0180969C11.8347 -1.46562 12.8014 -2.80527 14.1663 -4.03704C15.5313 -5.26883 16.9617 -6.09231 18.4574 -6.50748C19.9841 -6.88824 21.4323 -6.88664 22.802 -6.50268C24.1718 -6.11871 25.3822 -5.34173 26.4333 -4.17173C27.4535 -3.03616 28.0825 -1.76564 28.3203 -0.360203C28.5891 1.07965 28.4393 2.52333 27.871 3.97085C27.3026 5.41837 26.336 6.75802 24.971 7.9898C23.6394 9.19154 22.2257 10 20.7299 10.4152C19.2341 10.8303 17.7693 10.8438 16.3353 10.4554C14.9656 10.0715 13.7706 9.31169 12.7504 8.17611C11.6993 7.00612 11.0549 5.7184 10.8171 4.31296C10.5792 2.90752 10.729 1.46384 11.2664 -0.0180969Z" fill="#F25411"/>
<path fill-rule="evenodd" clip-rule="evenodd" d="M54.8473 19.4897C55.7534 21.9744 57.2421 24.3696 59.3134 26.6752C61.3847 28.9808 63.5903 30.6978 65.9303 31.8262C68.2703 32.9547 70.6293 33.5675 73.0073 33.6646C75.3853 33.7618 77.6836 33.4013 79.9023 32.5829C82.121 31.7646 84.1292 30.5443 85.9269 28.922C87.758 27.2696 89.1954 25.3804 90.2393 23.2545C91.2833 21.1285 91.8813 18.8753 92.0334 16.4948C92.1856 14.1144 91.8241 11.699 90.949 9.2486C90.0738 6.79824 88.6006 4.42027 86.5293 2.1147C84.458 -0.19088 82.2369 -1.92509 79.866 -3.08795C77.526 -4.2164 75.167 -4.8292 72.789 -4.92637C70.411 -5.02354 68.1127 -4.66297 65.894 -3.84467C63.7062 -2.99195 61.6968 -1.73939 59.8658 -0.0870018C58.0681 1.53534 56.6318 3.39228 55.5569 5.48382C54.513 7.60976 53.915 9.86297 53.7628 12.2434C53.6107 14.6239 53.9722 17.0393 54.8473 19.4897ZM64.5709 12.3972C65.1392 10.9497 66.1059 9.61002 67.4708 8.37825C68.8358 7.14647 70.2662 6.32299 71.7619 5.90782C73.2886 5.52706 74.7368 5.52865 76.1065 5.91262C77.4763 6.29658 78.6867 7.07356 79.7378 8.24356C80.758 9.37914 81.387 10.6497 81.6248 12.0551C81.8936 13.4949 81.7438 14.9386 81.1754 16.3862C80.6071 17.8337 79.6405 19.1733 78.2755 20.4051C76.9439 21.6068 75.5302 22.4153 74.0344 22.8305C72.5386 23.2456 71.0738 23.2591 69.6398 22.8707C68.2701 22.4868 67.0751 21.727 66.0549 20.5914C65.0038 19.4214 64.3594 18.1337 64.1215 16.7283C63.8837 15.3228 64.0335 13.8791 64.5709 12.3972Z" fill="#F25411"/>
<path fill-rule="evenodd" clip-rule="evenodd" d="M160.284 48.2216C162.232 45.8105 164.36 43.9622 166.666 42.6766C168.944 41.4269 171.268 40.6912 173.638 40.4695C176.007 40.2477 178.321 40.4872 180.58 41.188C182.809 41.9248 184.864 43.0561 186.744 44.5819C188.659 46.136 190.207 47.9292 191.39 49.9615C192.543 52.0298 193.258 54.2485 193.534 56.6177C193.811 58.987 193.576 61.418 192.83 63.9109C192.055 66.4398 190.693 68.9098 188.745 71.3209C186.797 73.7319 184.684 75.5623 182.406 76.8119C180.128 78.0616 177.805 78.7973 175.435 79.019C173.065 79.2408 170.751 79.0013 168.493 78.3005C166.235 77.5997 164.148 76.4722 162.233 74.9182C160.353 73.3923 158.836 71.5953 157.683 69.527C156.529 67.4587 155.815 65.24 155.538 62.8708C155.262 60.5015 155.497 58.0705 156.243 55.5776C156.989 53.0847 158.336 50.6327 160.284 48.2216ZM179.591 53.4345C178.164 52.276 176.692 51.5287 175.177 51.1925C173.633 50.8924 172.186 50.9699 170.839 51.4252C169.491 51.8805 168.323 52.7199 167.334 53.9434C166.374 55.131 165.813 56.4327 165.649 57.8487C165.49 59.329 165.733 60.777 166.376 62.1927C167.019 63.6084 168.037 64.8814 169.429 66.0116C170.857 67.1701 172.328 67.9174 173.844 68.2536C175.359 68.5897 176.805 68.5122 178.182 68.0209C179.53 67.5656 180.683 66.7442 181.643 65.5566C182.631 64.3331 183.208 63.0134 183.372 61.5974C183.536 60.1814 183.311 58.7475 182.697 57.2958C182.054 55.8801 181.019 54.593 179.591 53.4345Z" fill="#F25411"/>
<path fill-rule="evenodd" clip-rule="evenodd" d="M170.563 -12.0325C168.256 -10.7468 166.128 -8.89849 164.18 -6.48742C162.232 -4.07636 160.885 -1.62437 160.139 0.868534C159.393 3.36144 159.158 5.7925 159.435 8.16172C159.711 10.5309 160.426 12.7497 161.579 14.818C162.733 16.8863 164.249 18.6833 166.129 20.2091C168.044 21.7632 170.131 22.8907 172.389 23.5915C174.648 24.2923 176.962 24.5318 179.331 24.31C181.701 24.0882 184.025 23.3525 186.303 22.1029C188.58 20.8533 190.693 19.0229 192.641 16.6118C194.589 14.2008 195.951 11.7308 196.726 9.20191C197.472 6.70901 197.707 4.27795 197.431 1.90872C197.154 -0.460503 196.44 -2.67925 195.286 -4.74753C194.104 -6.77982 192.555 -8.57301 190.64 -10.1271C188.76 -11.6529 186.705 -12.7842 184.476 -13.521C182.218 -14.2218 179.904 -14.4613 177.534 -14.2396C175.164 -14.0178 172.841 -13.2821 170.563 -12.0325ZM179.073 -3.51649C180.589 -3.18034 182.06 -2.43302 183.487 -1.27453C184.915 -0.116032 185.95 1.17108 186.593 2.5868C187.207 4.03852 187.432 5.47236 187.268 6.88835C187.104 8.30434 186.528 9.6241 185.539 10.8476C184.58 12.0352 183.426 12.8566 182.078 13.3119C180.701 13.8031 179.255 13.8807 177.74 13.5445C176.224 13.2084 174.753 12.4611 173.326 11.3026C171.933 10.1723 170.915 8.89936 170.272 7.48364C169.629 6.06792 169.386 4.61993 169.545 3.1397C169.709 1.72372 170.271 0.421951 171.23 -0.765583C172.219 -1.98911 173.387 -2.82852 174.735 -3.28381C176.083 -3.73909 177.529 -3.81665 179.073 -3.51649Z" fill="#F25411"/>
<path d="M129.897 36.0564L134.287 28.5747L221.63 29.3764L217.24 36.8581L129.897 36.0564Z" fill="#F25411"/>
<path fill-rule="evenodd" clip-rule="evenodd" d="M95.9257 154.564C95.6021 151.479 95.8024 148.664 96.5266 146.12C97.2557 143.622 98.3798 141.455 99.8989 139.619C101.418 137.783 103.223 136.312 105.315 135.207C107.411 134.148 109.662 133.492 112.068 133.239C114.518 132.981 116.878 133.151 119.148 133.75C121.423 134.395 123.494 135.457 125.361 136.937C127.228 138.416 128.777 140.302 130.008 142.593C131.244 144.931 132.024 147.642 132.348 150.728C132.671 153.813 132.469 156.605 131.739 159.103C131.01 161.601 129.886 163.768 128.367 165.604C126.848 167.44 125.043 168.911 122.951 170.016C120.86 171.121 118.589 171.802 116.139 172.06C113.733 172.314 111.393 172.118 109.118 171.473C106.843 170.828 104.772 169.766 102.905 168.286C101.038 166.807 99.4893 164.921 98.258 162.63C97.0267 160.338 96.2492 157.65 95.9257 154.564ZM113.256 144.567C111.429 144.76 109.861 145.274 108.553 146.11C107.249 146.993 106.281 148.072 105.649 149.35C105.017 150.627 104.783 152.048 104.948 153.614C105.107 155.134 105.628 156.452 106.511 157.57C107.443 158.729 108.636 159.581 110.09 160.126C111.544 160.671 113.161 160.85 114.944 160.662C116.77 160.47 118.338 159.956 119.647 159.119C120.955 158.283 121.923 157.203 122.55 155.88C123.182 154.603 123.418 153.205 123.259 151.685C123.095 150.119 122.571 148.778 121.688 147.66C120.805 146.542 119.635 145.688 118.176 145.097C116.723 144.551 115.082 144.375 113.256 144.567Z" fill="#F25411"/>
<path fill-rule="evenodd" clip-rule="evenodd" d="M60.6835 104.674C59.9593 107.218 59.759 110.033 60.0826 113.118C60.4061 116.203 61.1836 118.892 62.4149 121.183C63.6461 123.475 65.1952 125.36 67.0621 126.84C68.929 128.319 70.9998 129.382 73.2747 130.027C75.5495 130.672 77.8899 130.867 80.2957 130.614C82.7461 130.356 85.017 129.674 87.1084 128.569C89.1997 127.464 91.0049 125.994 92.5241 124.158C94.0433 122.321 95.1673 120.154 95.8964 117.656C96.6254 115.158 96.8282 112.367 96.5046 109.281C96.181 106.196 95.4012 103.484 94.1651 101.147C92.9338 98.8554 91.3847 96.9699 89.5178 95.4904C87.6509 94.0109 85.5801 92.9486 83.3052 92.3036C81.0352 91.7046 78.675 91.5342 76.2246 91.7924C73.8187 92.0458 71.5677 92.702 69.4716 93.7608C67.3802 94.8658 65.575 96.3364 64.0558 98.1726C62.5367 100.009 61.4126 102.176 60.6835 104.674ZM72.7096 104.664C74.0183 103.828 75.5859 103.313 77.4126 103.121C79.2393 102.929 80.8794 103.105 82.333 103.65C83.7914 104.242 84.9621 105.096 85.845 106.214C86.728 107.331 87.2516 108.673 87.4158 110.239C87.5752 111.758 87.3389 113.157 86.7071 114.434C86.0801 115.757 85.1122 116.837 83.8035 117.673C82.4948 118.509 80.9271 119.024 79.1005 119.216C77.3184 119.404 75.7005 119.225 74.2469 118.68C72.7933 118.135 71.6004 117.282 70.668 116.124C69.7851 115.006 69.2639 113.687 69.1045 112.168C68.9403 110.602 69.1741 109.18 69.806 107.903C70.4378 106.626 71.4057 105.546 72.7096 104.664Z" fill="#F25411"/>
<path d="M65.8558 167.498L63.6818 159.096L126.008 97.7629L128.182 106.165L65.8558 167.498Z" fill="#F25411"/>
<path fill-rule="evenodd" clip-rule="evenodd" d="M229.337 311.451C227.307 309.109 225.86 306.688 224.997 304.188C224.165 301.723 223.845 299.301 224.039 296.924C224.233 294.547 224.87 292.304 225.951 290.197C227.062 288.124 228.53 286.293 230.356 284.702C232.215 283.082 234.246 281.865 236.448 281.051C238.681 280.271 240.985 279.951 243.361 280.09C245.737 280.228 248.085 280.882 250.405 282.052C252.755 283.256 254.946 285.029 256.977 287.37C259.008 289.711 260.439 292.115 261.272 294.58C262.104 297.045 262.423 299.467 262.23 301.844C262.036 304.222 261.399 306.464 260.318 308.571C259.237 310.679 257.767 312.543 255.908 314.163C254.082 315.753 252.053 316.938 249.82 317.718C247.588 318.497 245.283 318.817 242.907 318.679C240.532 318.54 238.184 317.886 235.864 316.717C233.544 315.547 231.368 313.792 229.337 311.451ZM237.812 293.299C236.426 294.507 235.436 295.829 234.843 297.267C234.28 298.739 234.105 300.18 234.318 301.589C234.531 302.999 235.153 304.298 236.184 305.486C237.184 306.639 238.366 307.42 239.729 307.827C241.155 308.241 242.62 308.253 244.123 307.864C245.626 307.475 247.053 306.691 248.406 305.513C249.792 304.306 250.782 302.983 251.375 301.546C251.969 300.108 252.144 298.667 251.9 297.223C251.687 295.814 251.08 294.532 250.08 293.379C249.049 292.191 247.852 291.393 246.49 290.985C245.127 290.577 243.679 290.55 242.146 290.904C240.643 291.293 239.198 292.091 237.812 293.299Z" fill="#F25411"/>
<path fill-rule="evenodd" clip-rule="evenodd" d="M171.917 290.842C172.78 293.343 174.226 295.763 176.257 298.105C178.288 300.446 180.463 302.202 182.783 303.371C185.103 304.54 187.451 305.194 189.827 305.333C192.203 305.472 194.508 305.151 196.74 304.372C198.973 303.593 201.002 302.408 202.828 300.817C204.687 299.197 206.157 297.333 207.238 295.226C208.319 293.118 208.956 290.876 209.15 288.498C209.343 286.121 209.024 283.7 208.191 281.234C207.359 278.769 205.928 276.366 203.897 274.024C201.866 271.683 199.675 269.91 197.325 268.706C195.005 267.537 192.657 266.883 190.281 266.744C187.905 266.605 185.601 266.925 183.368 267.705C181.166 268.519 179.135 269.736 177.276 271.356C175.45 272.947 173.981 274.779 172.87 276.851C171.79 278.958 171.152 281.201 170.959 283.578C170.765 285.956 171.085 288.377 171.917 290.842ZM181.763 283.921C182.356 282.484 183.346 281.161 184.732 279.953C186.118 278.746 187.563 277.947 189.066 277.558C190.599 277.204 192.047 277.231 193.409 277.639C194.772 278.047 195.969 278.845 197 280.033C198 281.187 198.607 282.468 198.82 283.877C199.064 285.322 198.889 286.762 198.295 288.2C197.702 289.637 196.712 290.96 195.326 292.167C193.973 293.346 192.546 294.129 191.043 294.518C189.54 294.907 188.075 294.895 186.648 294.482C185.286 294.074 184.104 293.293 183.104 292.14C182.073 290.952 181.451 289.653 181.238 288.244C181.025 286.834 181.199 285.393 181.763 283.921Z" fill="#F25411"/>
<path d="M212.107 339.331L205.518 333.699L221.473 247.628L228.062 253.261L212.107 339.331Z" fill="#F25411"/>
<path fill-rule="evenodd" clip-rule="evenodd" d="M145.968 411.81C144.328 409.179 143.277 406.561 142.815 403.956C142.378 401.39 142.44 398.949 143.003 396.631C143.565 394.313 144.544 392.198 145.941 390.286C147.361 388.414 149.098 386.835 151.149 385.55C153.239 384.241 155.434 383.358 157.737 382.899C160.064 382.479 162.389 382.524 164.714 383.033C167.04 383.543 169.256 384.557 171.365 386.076C173.499 387.633 175.386 389.728 177.026 392.359C178.666 394.99 179.705 397.588 180.143 400.154C180.58 402.719 180.517 405.161 179.955 407.478C179.393 409.796 178.413 411.911 177.017 413.823C175.621 415.735 173.878 417.345 171.788 418.654C169.737 419.939 167.548 420.791 165.221 421.211C162.894 421.631 160.568 421.586 158.243 421.076C155.918 420.567 153.701 419.552 151.592 418.034C149.483 416.515 147.609 414.441 145.968 411.81ZM157.172 395.21C155.614 396.186 154.43 397.337 153.62 398.664C152.834 400.029 152.436 401.425 152.427 402.851C152.418 404.276 152.829 405.656 153.662 406.991C154.469 408.287 155.515 409.244 156.797 409.86C158.142 410.492 159.587 410.734 161.132 410.585C162.677 410.437 164.209 409.887 165.729 408.935C167.286 407.959 168.47 406.808 169.281 405.482C170.091 404.155 170.489 402.759 170.474 401.295C170.483 399.869 170.084 398.508 169.276 397.213C168.443 395.877 167.386 394.902 166.104 394.285C164.821 393.669 163.395 393.415 161.826 393.524C160.281 393.673 158.73 394.235 157.172 395.21Z" fill="#F25411"/>
<path fill-rule="evenodd" clip-rule="evenodd" d="M92.4714 382.452C92.9332 385.057 93.9843 387.675 95.6246 390.306C97.265 392.937 99.1396 395.012 101.249 396.53C103.357 398.049 105.574 399.063 107.9 399.572C110.225 400.082 112.55 400.127 114.877 399.707C117.204 399.287 119.393 398.435 121.445 397.15C123.534 395.842 125.277 394.231 126.673 392.319C128.07 390.407 129.049 388.293 129.611 385.975C130.174 383.657 130.236 381.215 129.799 378.65C129.362 376.084 128.323 373.486 126.682 370.855C125.042 368.224 123.155 366.13 121.022 364.572C118.913 363.053 116.696 362.039 114.371 361.53C112.046 361.02 109.72 360.975 107.393 361.395C105.091 361.854 102.895 362.738 100.805 364.046C98.7539 365.331 97.0177 366.91 95.5969 368.783C94.2005 370.695 93.2211 372.809 92.6589 375.127C92.0966 377.445 92.0341 379.887 92.4714 382.452ZM103.276 377.16C104.087 375.833 105.271 374.682 106.828 373.707C108.386 372.731 109.937 372.169 111.482 372.02C113.052 371.911 114.478 372.165 115.76 372.781C117.042 373.398 118.1 374.374 118.932 375.709C119.74 377.005 120.139 378.365 120.13 379.791C120.145 381.256 119.748 382.651 118.937 383.978C118.127 385.305 116.943 386.456 115.385 387.431C113.865 388.383 112.333 388.933 110.788 389.082C109.243 389.23 107.798 388.988 106.453 388.356C105.171 387.74 104.126 386.784 103.318 385.488C102.485 384.153 102.074 382.772 102.083 381.347C102.092 379.921 102.49 378.526 103.276 377.16Z" fill="#F25411"/>
<path d="M124.599 436.645L118.97 430.049L148.162 347.54L153.791 354.136L124.599 436.645Z" fill="#F25411"/>
<path fill-rule="evenodd" clip-rule="evenodd" d="M235.076 392.525C235.292 395.62 234.994 398.426 234.181 400.943C233.366 403.414 232.167 405.54 230.585 407.322C229.002 409.104 227.147 410.511 225.018 411.542C222.887 412.527 220.614 413.104 218.201 413.273C215.743 413.445 213.39 413.192 211.143 412.514C208.891 411.79 206.859 410.656 205.045 409.112C203.23 407.568 201.748 405.63 200.597 403.296C199.443 400.917 198.758 398.18 198.542 395.085C198.326 391.99 198.626 389.207 199.442 386.736C200.257 384.266 201.456 382.139 203.038 380.357C204.621 378.575 206.476 377.169 208.605 376.138C210.733 375.106 213.026 374.505 215.484 374.332C217.897 374.163 220.23 374.441 222.481 375.165C224.732 375.889 226.764 377.023 228.578 378.567C230.393 380.111 231.875 382.05 233.026 384.383C234.177 386.716 234.86 389.43 235.076 392.525ZM217.408 401.909C219.24 401.781 220.825 401.322 222.162 400.532C223.496 399.696 224.501 398.65 225.177 397.396C225.853 396.142 226.136 394.73 226.026 393.159C225.92 391.635 225.445 390.299 224.601 389.151C223.71 387.96 222.547 387.067 221.114 386.471C219.68 385.875 218.069 385.64 216.282 385.765C214.45 385.894 212.865 386.353 211.528 387.143C210.191 387.933 209.186 388.978 208.513 390.278C207.837 391.533 207.553 392.922 207.659 394.446C207.769 396.017 208.245 397.376 209.089 398.524C209.932 399.671 211.072 400.566 212.509 401.208C213.943 401.804 215.576 402.038 217.408 401.909Z" fill="#F25411"/>
<path fill-rule="evenodd" clip-rule="evenodd" d="M268.559 443.618C269.372 441.101 269.67 438.294 269.454 435.2C269.238 432.105 268.555 429.391 267.404 427.058C266.253 424.724 264.771 422.786 262.957 421.242C261.142 419.698 259.11 418.564 256.859 417.84C254.608 417.116 252.276 416.838 249.862 417.007C247.404 417.18 245.111 417.781 242.983 418.812C240.854 419.844 238.999 421.25 237.417 423.032C235.835 424.814 234.636 426.94 233.82 429.411C233.005 431.882 232.705 434.665 232.921 437.76C233.137 440.855 233.821 443.592 234.975 445.971C236.126 448.304 237.609 450.243 239.423 451.787C241.237 453.331 243.27 454.465 245.521 455.189C247.769 455.867 250.121 456.12 252.579 455.948C254.992 455.778 257.265 455.201 259.397 454.217C261.525 453.185 263.381 451.779 264.963 449.997C266.545 448.215 267.744 446.089 268.559 443.618ZM256.54 443.207C255.203 443.997 253.619 444.456 251.786 444.584C249.954 444.713 248.321 444.479 246.887 443.883C245.451 443.241 244.31 442.346 243.467 441.199C242.623 440.051 242.147 438.692 242.037 437.121C241.931 435.597 242.216 434.207 242.892 432.953C243.564 431.653 244.569 430.608 245.906 429.818C247.243 429.028 248.828 428.568 250.66 428.44C252.448 428.315 254.058 428.55 255.492 429.146C256.926 429.742 258.088 430.635 258.98 431.826C259.823 432.973 260.298 434.309 260.404 435.834C260.514 437.404 260.231 438.817 259.555 440.071C258.879 441.325 257.874 442.37 256.54 443.207Z" fill="#F25411"/>
<path d="M265.578 380.651L267.458 389.124L203.034 448.239L201.154 439.767L265.578 380.651Z" fill="#F25411"/>
<path fill-rule="evenodd" clip-rule="evenodd" d="M234.002 185.093C231.563 183.183 229.682 181.083 228.359 178.794C227.072 176.533 226.298 174.217 226.035 171.846C225.773 169.476 225.971 167.153 226.631 164.877C227.327 162.63 228.42 160.552 229.909 158.641C231.426 156.695 233.188 155.112 235.195 153.891C237.238 152.699 239.439 151.944 241.798 151.626C244.156 151.308 246.586 151.501 249.086 152.205C251.622 152.938 254.11 154.259 256.549 156.169C258.988 158.079 260.851 160.164 262.138 162.425C263.424 164.686 264.198 167.002 264.461 169.373C264.724 171.743 264.525 174.066 263.865 176.342C263.206 178.617 262.117 180.728 260.6 182.674C259.111 184.584 257.345 186.136 255.302 187.328C253.258 188.52 251.057 189.275 248.699 189.593C246.34 189.911 243.911 189.718 241.411 189.014C238.911 188.31 236.441 187.003 234.002 185.093ZM238.865 165.654C237.734 167.105 237.015 168.592 236.706 170.117C236.433 171.67 236.536 173.118 237.014 174.46C237.491 175.803 238.349 176.959 239.587 177.928C240.788 178.869 242.097 179.409 243.512 179.549C244.992 179.682 246.432 179.414 247.833 178.745C249.234 178.075 250.486 177.033 251.59 175.618C252.72 174.167 253.44 172.68 253.749 171.155C254.058 169.631 253.955 168.183 253.441 166.812C252.964 165.469 252.124 164.327 250.923 163.387C249.685 162.417 248.358 161.863 246.943 161.723C245.527 161.583 244.101 161.834 242.663 162.474C241.262 163.144 239.996 164.204 238.865 165.654Z" fill="#F25411"/>
<path fill-rule="evenodd" clip-rule="evenodd" d="M173.713 175.844C175.036 178.134 176.917 180.233 179.356 182.143C181.795 184.053 184.265 185.36 186.765 186.064C189.265 186.769 191.694 186.961 194.053 186.643C196.411 186.325 198.612 185.57 200.656 184.378C202.699 183.186 204.465 181.635 205.954 179.724C207.471 177.778 208.56 175.668 209.219 173.392C209.879 171.117 210.078 168.794 209.815 166.423C209.552 164.052 208.778 161.736 207.492 159.476C206.205 157.215 204.342 155.129 201.903 153.219C199.464 151.309 196.976 149.988 194.44 149.255C191.94 148.551 189.51 148.358 187.152 148.677C184.793 148.995 182.592 149.75 180.549 150.942C178.542 152.162 176.78 153.746 175.263 155.692C173.774 157.602 172.681 159.681 171.985 161.928C171.325 164.203 171.127 166.526 171.389 168.897C171.652 171.268 172.426 173.583 173.713 175.844ZM182.06 167.167C182.369 165.643 183.089 164.155 184.219 162.705C185.35 161.254 186.616 160.194 188.017 159.525C189.455 158.884 190.881 158.634 192.297 158.773C193.712 158.913 195.039 159.468 196.277 160.437C197.478 161.378 198.318 162.52 198.795 163.862C199.309 165.233 199.412 166.681 199.103 168.206C198.794 169.73 198.074 171.218 196.944 172.668C195.84 174.084 194.588 175.126 193.187 175.795C191.786 176.464 190.346 176.732 188.866 176.599C187.451 176.46 186.142 175.919 184.941 174.979C183.703 174.009 182.845 172.853 182.368 171.511C181.89 170.168 181.787 168.72 182.06 167.167Z" fill="#F25411"/>
<path d="M222.396 215.756L214.856 211.487L214.131 123.947L221.672 128.216L222.396 215.756Z" fill="#F25411"/>
<path fill-rule="evenodd" clip-rule="evenodd" d="M96.2219 249.837C98.8752 248.239 101.505 247.232 104.112 246.814C106.679 246.421 109.113 246.526 111.416 247.13C113.718 247.734 115.811 248.752 117.694 250.185C119.537 251.642 121.082 253.409 122.328 255.487C123.597 257.604 124.44 259.82 124.858 262.135C125.236 264.474 125.151 266.804 124.602 269.125C124.053 271.446 123.003 273.65 121.451 275.737C119.86 277.847 117.737 279.702 115.084 281.3C112.431 282.897 109.82 283.893 107.254 284.287C104.687 284.68 102.252 284.575 99.9495 283.971C97.647 283.367 95.5543 282.349 93.6713 280.916C91.7883 279.483 90.2122 277.709 88.9432 275.592C87.6973 273.514 86.8853 271.305 86.5072 268.966C86.129 266.627 86.2144 264.297 86.7633 261.976C87.3123 259.655 88.3626 257.451 89.9143 255.364C91.466 253.277 93.5685 251.435 96.2219 249.837ZM112.586 261.354C111.64 259.776 110.512 258.569 109.203 257.734C107.854 256.923 106.469 256.5 105.047 256.466C103.625 256.431 102.241 256.82 100.894 257.631C99.5873 258.418 98.6151 259.448 97.9777 260.723C97.3237 262.059 97.0574 263.503 97.1786 265.054C97.2998 266.605 97.8219 268.15 98.7448 269.689C99.6908 271.267 100.818 272.474 102.128 273.309C103.437 274.145 104.822 274.567 106.284 274.578C107.706 274.612 109.07 274.235 110.377 273.448C111.724 272.638 112.716 271.595 113.353 270.321C113.99 269.046 114.268 267.622 114.187 266.047C114.065 264.496 113.532 262.932 112.586 261.354Z" fill="#F25411"/>
<path fill-rule="evenodd" clip-rule="evenodd" d="M126.443 196.74C123.836 197.158 121.206 198.165 118.553 199.763C115.899 201.361 113.797 203.203 112.245 205.29C110.694 207.377 109.643 209.581 109.094 211.902C108.545 214.223 108.46 216.553 108.838 218.892C109.216 221.231 110.028 223.44 111.274 225.518C112.543 227.635 114.119 229.409 116.002 230.842C117.885 232.275 119.978 233.293 122.28 233.897C124.583 234.501 127.018 234.606 129.584 234.213C132.151 233.819 134.762 232.823 137.415 231.226C140.068 229.628 142.191 227.773 143.782 225.663C145.334 223.576 146.384 221.372 146.933 219.051C147.482 216.73 147.567 214.4 147.189 212.061C146.771 209.746 145.928 207.53 144.659 205.413C143.413 203.335 141.868 201.567 140.025 200.111C138.142 198.678 136.049 197.66 133.747 197.056C131.444 196.452 129.01 196.347 126.443 196.74ZM131.534 207.66C132.843 208.495 133.971 209.702 134.917 211.28C135.863 212.858 136.396 214.422 136.518 215.973C136.599 217.548 136.321 218.972 135.684 220.247C135.046 221.521 134.055 222.564 132.708 223.374C131.401 224.161 130.037 224.538 128.615 224.504C127.153 224.493 125.768 224.07 124.459 223.235C123.149 222.4 122.022 221.193 121.076 219.615C120.153 218.076 119.631 216.531 119.51 214.98C119.388 213.429 119.655 211.985 120.309 210.649C120.946 209.374 121.918 208.344 123.225 207.557C124.572 206.746 125.956 206.357 127.378 206.392C128.8 206.426 130.185 206.849 131.534 207.66Z" fill="#F25411"/>
<path d="M71.8187 227.989L78.4974 222.464L160.299 253.157L153.621 258.683L71.8187 227.989Z" fill="#F25411"/>
<path fill-rule="evenodd" clip-rule="evenodd" d="M273.693 44.4068C274.495 47.4035 274.736 50.215 274.418 52.8412C274.088 55.4227 273.316 57.7393 272.102 59.7911C270.888 61.8429 269.335 63.5784 267.441 64.9976C265.536 66.3721 263.415 67.3732 261.079 68.0007C258.699 68.6398 256.341 68.8416 254.005 68.6059C251.658 68.3255 249.447 67.601 247.372 66.4324C245.297 65.2638 243.473 63.6444 241.899 61.5742C240.313 59.4593 239.12 56.9035 238.319 53.9067C237.518 50.91 237.282 48.1209 237.612 45.5394C237.942 42.9579 238.714 40.6413 239.928 38.5895C241.142 36.5377 242.696 34.8022 244.589 33.3829C246.482 31.9637 248.618 30.9345 250.998 30.2954C253.335 29.6678 255.677 29.4943 258.025 29.7747C260.372 30.0551 262.583 30.7796 264.658 31.9482C266.733 33.1168 268.557 34.7362 270.131 36.8064C271.705 38.8766 272.892 41.41 273.693 44.4068ZM258.137 56.9977C259.911 56.5213 261.379 55.7675 262.541 54.7363C263.692 53.6604 264.479 52.4422 264.904 51.0818C265.328 49.7213 265.337 48.2807 264.931 46.76C264.536 45.284 263.816 44.0633 262.769 43.0979C261.667 42.0994 260.356 41.4449 258.835 41.1342C257.315 40.8235 255.689 40.9006 253.958 41.3654C252.184 41.8419 250.716 42.5957 249.554 43.6268C248.391 44.658 247.604 45.8762 247.191 47.2814C246.767 48.6418 246.752 50.0601 247.146 51.5361C247.553 53.0568 248.279 54.2999 249.326 55.2653C250.372 56.2306 251.662 56.891 253.195 57.2464C254.715 57.5571 256.363 57.4742 258.137 56.9977Z" fill="#F25411"/>
<path fill-rule="evenodd" clip-rule="evenodd" d="M316.289 88.1576C316.607 85.5313 316.366 82.7199 315.564 79.7231C314.763 76.7264 313.576 74.1929 312.002 72.1227C310.428 70.0526 308.604 68.4332 306.529 67.2646C304.454 66.096 302.243 65.3715 299.896 65.0911C297.548 64.8106 295.206 64.9842 292.869 65.6117C290.489 66.2509 288.353 67.2801 286.46 68.6993C284.567 70.1185 283.013 71.8541 281.799 73.9058C280.585 75.9576 279.813 78.2743 279.483 80.8557C279.153 83.4372 279.389 86.2263 280.19 89.2231C280.991 92.2198 282.184 94.7757 283.77 96.8906C285.344 98.9607 287.168 100.58 289.243 101.749C291.318 102.917 293.529 103.642 295.876 103.922C298.212 104.158 300.57 103.956 302.95 103.317C305.286 102.69 307.407 101.689 309.312 100.314C311.206 98.8947 312.759 97.1592 313.973 95.1075C315.187 93.0557 315.959 90.7391 316.289 88.1576ZM304.412 90.0527C303.25 91.0838 301.782 91.8376 300.008 92.3141C298.234 92.7905 296.587 92.8734 295.066 92.5628C293.533 92.2074 292.243 91.547 291.197 90.5816C290.15 89.6162 289.424 88.3732 289.017 86.8525C288.623 85.3764 288.638 83.9582 289.062 82.5977C289.475 81.1925 290.263 79.9744 291.425 78.9432C292.587 77.912 294.055 77.1582 295.829 76.6818C297.56 76.217 299.186 76.1399 300.706 76.4506C302.227 76.7612 303.538 77.4158 304.64 78.4143C305.687 79.3796 306.407 80.6003 306.802 82.0763C307.208 83.5971 307.199 85.0377 306.775 86.3981C306.35 87.7586 305.563 88.9768 304.412 90.0527Z" fill="#F25411"/>
<path d="M301.374 26.9181L304.833 34.8756L252.847 105.225L249.388 97.2679L301.374 26.9181Z" fill="#F25411"/>
<path fill-rule="evenodd" clip-rule="evenodd" d="M483.235 271.985C480.604 271.706 477.796 271.989 474.812 272.835C471.828 273.681 469.312 274.907 467.266 276.511C465.22 278.116 463.628 279.964 462.49 282.056C461.353 284.149 460.662 286.37 460.416 288.722C460.171 291.073 460.38 293.412 461.042 295.739C461.717 298.11 462.778 300.23 464.226 302.102C465.673 303.974 467.432 305.501 469.502 306.684C471.571 307.867 473.899 308.604 476.485 308.896C479.072 309.187 481.857 308.91 484.841 308.064C487.826 307.218 490.363 305.986 492.454 304.369C494.5 302.764 496.092 300.916 497.23 298.824C498.367 296.732 499.058 294.51 499.304 292.158C499.504 289.82 499.267 287.465 498.592 285.095C497.93 282.768 496.897 280.662 495.494 278.778C494.047 276.906 492.288 275.379 490.218 274.196C488.149 273.013 485.821 272.276 483.235 271.985ZM485.308 283.831C486.356 284.978 487.132 286.434 487.635 288.201C488.138 289.968 488.245 291.614 487.957 293.139C487.625 294.677 486.984 295.977 486.035 297.038C485.085 298.098 483.853 298.844 482.338 299.273C480.869 299.69 479.45 299.696 478.084 299.291C476.672 298.9 475.443 298.131 474.394 296.984C473.346 295.838 472.57 294.381 472.067 292.614C471.576 290.891 471.475 289.266 471.763 287.741C472.05 286.216 472.685 284.895 473.667 283.778C474.617 282.717 475.826 281.978 477.296 281.562C478.811 281.132 480.251 281.12 481.618 281.524C482.985 281.928 484.215 282.697 485.308 283.831Z" fill="#F25411"/>
<path fill-rule="evenodd" clip-rule="evenodd" d="M448.55 314.38C445.919 314.102 443.112 314.385 440.127 315.231C437.143 316.077 434.627 317.302 432.581 318.907C430.535 320.512 428.943 322.36 427.806 324.452C426.668 326.544 425.977 328.766 425.732 331.117C425.487 333.469 425.695 335.808 426.358 338.135C427.032 340.505 428.094 342.626 429.541 344.498C430.988 346.369 432.747 347.897 434.817 349.08C436.887 350.263 439.214 351 441.801 351.291C444.387 351.583 447.172 351.305 450.156 350.459C453.141 349.613 455.678 348.382 457.769 346.765C459.816 345.16 461.408 343.312 462.545 341.219C463.682 339.127 464.374 336.906 464.619 334.554C464.819 332.215 464.582 329.861 463.908 327.491C463.245 325.164 462.212 323.058 460.81 321.174C459.362 319.302 457.603 317.775 455.534 316.592C453.464 315.409 451.136 314.672 448.55 314.38ZM450.623 326.227C451.671 327.374 452.447 328.83 452.95 330.597C453.453 332.364 453.561 334.01 453.273 335.535C452.94 337.073 452.299 338.372 451.35 339.433C450.4 340.494 449.168 341.239 447.654 341.669C446.184 342.085 444.766 342.091 443.399 341.687C441.988 341.296 440.758 340.526 439.709 339.38C438.661 338.233 437.885 336.777 437.382 335.01C436.891 333.286 436.79 331.662 437.078 330.137C437.366 328.611 438 327.29 438.982 326.174C439.932 325.113 441.142 324.374 442.612 323.957C444.126 323.528 445.567 323.516 446.933 323.92C448.3 324.324 449.53 325.093 450.623 326.227Z" fill="#F25411"/>
<path d="M422.226 287.815L430.13 284.238L501.252 335.164L493.347 338.741L422.226 287.815Z" fill="#F25411"/>
<path d="M734.731 247.772L727.585 242.961L721.653 329.556L728.799 334.367L734.731 247.772Z" fill="#F25411"/>
<path fill-rule="evenodd" clip-rule="evenodd" d="M713.758 272.364C716.03 274.444 717.734 276.667 718.87 279.033C719.973 281.369 720.564 283.719 720.644 286.083C720.724 288.448 720.351 290.728 719.525 292.926C718.664 295.093 717.424 297.062 715.803 298.834C714.153 300.639 712.287 302.066 710.206 303.115C708.092 304.133 705.854 304.707 703.493 304.837C701.132 304.966 698.74 304.585 696.317 303.693C693.86 302.77 691.495 301.269 689.224 299.19C686.953 297.111 685.266 294.903 684.163 292.567C683.06 290.232 682.469 287.882 682.389 285.517C682.309 283.153 682.682 280.872 683.508 278.675C684.335 276.477 685.573 274.476 687.224 272.671C688.844 270.899 690.712 269.504 692.827 268.486C694.942 267.468 697.179 266.894 699.54 266.764C701.901 266.634 704.293 267.015 706.716 267.907C709.139 268.799 711.487 270.285 713.758 272.364ZM707.463 291.199C708.694 289.854 709.52 288.44 709.942 286.957C710.33 285.443 710.338 284.004 709.967 282.639C709.596 281.274 708.834 280.064 707.681 279.009C706.562 277.985 705.307 277.348 703.915 277.099C702.46 276.852 701.013 277.004 699.574 277.556C698.135 278.108 696.815 279.04 695.615 280.352C694.384 281.698 693.558 283.112 693.136 284.595C692.714 286.077 692.706 287.517 693.111 288.912C693.483 290.277 694.228 291.472 695.346 292.496C696.499 293.551 697.771 294.203 699.163 294.452C700.554 294.701 701.987 294.565 703.459 294.045C704.898 293.493 706.233 292.544 707.463 291.199Z" fill="#F25411"/>
<path fill-rule="evenodd" clip-rule="evenodd" d="M767.67 279.563C769.942 281.642 771.646 283.865 772.782 286.232C773.885 288.568 774.477 290.917 774.557 293.282C774.637 295.646 774.263 297.927 773.437 300.124C772.577 302.291 771.336 304.26 769.716 306.032C768.065 307.837 766.199 309.264 764.119 310.313C762.004 311.331 759.766 311.905 757.405 312.035C755.044 312.165 752.652 311.784 750.229 310.892C747.772 309.969 745.408 308.468 743.136 306.388C740.865 304.309 739.178 302.101 738.075 299.766C736.972 297.43 736.381 295.08 736.301 292.716C736.221 290.352 736.594 288.071 737.421 285.873C738.247 283.675 739.486 281.674 741.136 279.87C742.757 278.098 744.624 276.702 746.739 275.684C748.854 274.666 751.092 274.092 753.453 273.962C755.813 273.833 758.205 274.214 760.629 275.106C763.052 275.998 765.399 277.483 767.67 279.563ZM761.376 298.397C762.606 297.052 763.432 295.638 763.854 294.155C764.242 292.641 764.25 291.202 763.879 289.837C763.508 288.473 762.746 287.263 761.593 286.207C760.474 285.183 759.219 284.547 757.828 284.298C756.372 284.05 754.925 284.203 753.486 284.754C752.047 285.306 750.727 286.238 749.527 287.551C748.296 288.896 747.47 290.31 747.049 291.793C746.627 293.276 746.618 294.715 747.024 296.111C747.395 297.476 748.14 298.67 749.259 299.694C750.411 300.749 751.683 301.402 753.075 301.651C754.467 301.9 755.899 301.764 757.372 301.243C758.811 300.691 760.145 299.743 761.376 298.397Z" fill="#F25411"/>
<path fill-rule="evenodd" clip-rule="evenodd" d="M654.541 208.652C657.153 208.929 659.94 208.647 662.902 207.807C665.864 206.968 668.361 205.751 670.392 204.159C672.424 202.566 674.004 200.731 675.133 198.654C676.262 196.578 676.948 194.372 677.191 192.038C677.435 189.704 677.227 187.382 676.57 185.073C675.9 182.72 674.847 180.615 673.41 178.757C671.973 176.899 670.228 175.383 668.173 174.209C666.119 173.035 663.808 172.303 661.241 172.014C658.674 171.724 655.909 171.999 652.947 172.839C649.984 173.679 647.466 174.902 645.39 176.507C643.359 178.1 641.779 179.934 640.65 182.011C639.521 184.088 638.835 186.293 638.591 188.627C638.392 190.949 638.627 193.286 639.297 195.638C639.955 197.948 640.98 200.038 642.372 201.909C643.809 203.766 645.555 205.283 647.609 206.457C649.664 207.631 651.974 208.363 654.541 208.652ZM652.484 196.893C651.443 195.755 650.673 194.309 650.174 192.555C649.675 190.801 649.568 189.167 649.854 187.653C650.183 186.127 650.82 184.837 651.762 183.784C652.705 182.731 653.928 181.991 655.431 181.565C656.89 181.152 658.298 181.145 659.654 181.547C661.055 181.936 662.276 182.699 663.317 183.837C664.357 184.975 665.128 186.421 665.627 188.175C666.114 189.886 666.215 191.498 665.929 193.012C665.643 194.526 665.013 195.837 664.038 196.946C663.096 197.999 661.895 198.732 660.436 199.146C658.933 199.572 657.503 199.584 656.146 199.183C654.79 198.782 653.569 198.018 652.484 196.893Z" fill="#F25411"/>
<path fill-rule="evenodd" clip-rule="evenodd" d="M620.113 250.735C622.724 251.011 625.511 250.73 628.473 249.89C631.436 249.05 633.932 247.834 635.964 246.241C637.995 244.649 639.575 242.814 640.704 240.737C641.833 238.661 642.519 236.455 642.763 234.121C643.006 231.787 642.799 229.465 642.141 227.155C641.471 224.803 640.418 222.697 638.981 220.84C637.545 218.982 635.799 217.466 633.745 216.292C631.69 215.117 629.379 214.385 626.812 214.096C624.245 213.807 621.481 214.082 618.518 214.922C615.556 215.762 613.037 216.984 610.961 218.59C608.93 220.182 607.35 222.017 606.221 224.094C605.092 226.17 604.406 228.376 604.163 230.71C603.963 233.031 604.199 235.368 604.869 237.721C605.526 240.031 606.551 242.121 607.944 243.991C609.38 245.849 611.126 247.365 613.181 248.539C615.235 249.714 617.546 250.445 620.113 250.735ZM618.055 238.975C617.015 237.837 616.245 236.392 615.745 234.638C615.246 232.884 615.139 231.25 615.425 229.736C615.755 228.21 616.391 226.92 617.334 225.867C618.276 224.814 619.499 224.074 621.002 223.648C622.461 223.234 623.869 223.228 625.226 223.629C626.627 224.018 627.847 224.782 628.888 225.92C629.929 227.058 630.699 228.504 631.198 230.257C631.685 231.968 631.786 233.581 631.5 235.095C631.215 236.609 630.584 237.92 629.61 239.028C628.667 240.081 627.466 240.815 626.007 241.228C624.504 241.654 623.074 241.667 621.718 241.266C620.361 240.864 619.14 240.101 618.055 238.975Z" fill="#F25411"/>
<path d="M680.671 235.021L672.825 238.572L602.229 188.022L610.075 184.471L680.671 235.021Z" fill="#F25411"/>
<path d="M601.524 -21.9807L610.003 -23.4792L665.619 43.0346L657.139 44.5331L601.524 -21.9807Z" fill="#F25411"/>
<path fill-rule="evenodd" clip-rule="evenodd" d="M664.037 -22.2069C661.58 -23.1225 658.814 -23.5403 655.738 -23.4603C652.663 -23.3803 649.943 -22.8199 647.579 -21.7789C645.215 -20.7379 643.227 -19.3506 641.615 -17.6168C640.002 -15.883 638.786 -13.9147 637.965 -11.7118C637.145 -9.50884 636.763 -7.20604 636.821 -4.80334C636.879 -2.35612 637.37 -0.0537491 638.294 2.1038C639.218 4.26136 640.527 6.16405 642.22 7.81187C643.913 9.45969 645.964 10.742 648.375 11.6588C650.785 12.5756 653.529 12.994 656.604 12.914C659.68 12.834 662.423 12.273 664.833 11.2308C667.196 10.1899 669.185 8.80249 670.797 7.06872C672.409 5.33495 673.626 3.36661 674.446 1.1637C675.221 -1.03803 675.579 -3.36248 675.52 -5.80969C675.463 -8.2124 674.995 -10.4931 674.117 -12.6519C673.193 -14.8094 671.885 -16.7121 670.192 -18.3599C668.499 -20.0078 666.447 -21.2901 664.037 -22.2069ZM663.08 -10.2946C663.801 -8.93316 664.184 -7.34029 664.227 -5.51601C664.271 -3.69173 663.964 -2.08097 663.309 -0.683735C662.607 0.714699 661.668 1.80764 660.493 2.59509C659.317 3.38253 657.949 3.79653 656.388 3.83712C654.873 3.87653 653.51 3.53353 652.298 2.80815C651.041 2.08398 650.051 1.04118 649.33 -0.320236C648.609 -1.68166 648.226 -3.27451 648.183 -5.09879C648.14 -6.87858 648.447 -8.46709 649.103 -9.86433C649.759 -11.2616 650.697 -12.3768 651.917 -13.2099C653.093 -13.9973 654.438 -14.4108 655.953 -14.4502C657.514 -14.4907 658.9 -14.1484 660.112 -13.423C661.323 -12.6976 662.313 -11.6548 663.08 -10.2946Z" fill="#F25411"/>
<path fill-rule="evenodd" clip-rule="evenodd" d="M620.19 10.0644C617.733 9.1488 614.967 8.731 611.891 8.81099C608.816 8.89097 606.096 9.45145 603.732 10.4924C601.368 11.5334 599.38 12.9207 597.768 14.6545C596.155 16.3883 594.939 18.3566 594.118 20.5595C593.298 22.7624 592.917 25.0653 592.974 27.468C593.032 29.9152 593.523 32.2176 594.447 34.3751C595.371 36.5327 596.68 38.4353 598.373 40.0832C600.066 41.731 602.117 43.0133 604.528 43.9301C606.938 44.8469 609.681 45.2653 612.757 45.1853C615.833 45.1053 618.576 44.5443 620.986 43.5021C623.349 42.4612 625.338 41.0738 626.95 39.34C628.562 37.6062 629.779 35.6379 630.599 33.435C631.374 31.2333 631.732 28.9088 631.673 26.4616C631.616 24.0589 631.148 21.7782 630.27 19.6194C629.346 17.4619 628.038 15.5592 626.345 13.9114C624.652 12.2635 622.6 10.9812 620.19 10.0644ZM619.233 21.9767C619.954 23.3381 620.337 24.931 620.38 26.7553C620.424 28.5796 620.117 30.1903 619.462 31.5876C618.76 32.986 617.821 34.0789 616.646 34.8664C615.47 35.6538 614.102 36.0678 612.541 36.1084C611.026 36.1478 609.663 35.8048 608.451 35.0795C607.194 34.3553 606.204 33.3125 605.483 31.9511C604.762 30.5896 604.379 28.9968 604.336 27.1725C604.293 25.3927 604.6 23.8042 605.256 22.407C605.912 21.0097 606.85 19.8946 608.07 19.0614C609.246 18.274 610.591 17.8605 612.106 17.8211C613.667 17.7805 615.053 18.1229 616.265 18.8483C617.476 19.5737 618.466 20.6165 619.233 21.9767Z" fill="#F25411"/>
<path d="M675.788 368.058L669.149 362.593L654.797 448.128L661.436 453.593L675.788 368.058Z" fill="#F25411"/>
<path fill-rule="evenodd" clip-rule="evenodd" d="M709.89 409.928C708.99 407.466 707.512 405.093 705.455 402.809C703.398 400.525 701.208 398.824 698.884 397.706C696.561 396.588 694.218 395.981 691.857 395.885C689.496 395.788 687.213 396.145 685.01 396.956C682.807 397.767 680.813 398.976 679.028 400.583C677.21 402.22 675.782 404.092 674.746 406.198C673.709 408.304 673.115 410.537 672.964 412.895C672.813 415.253 673.172 417.646 674.041 420.074C674.91 422.501 676.373 424.857 678.43 427.142C680.487 429.426 682.692 431.144 685.046 432.296C687.37 433.414 689.712 434.021 692.074 434.117C694.435 434.213 696.717 433.856 698.92 433.046C701.093 432.201 703.088 430.96 704.906 429.323C706.691 427.715 708.118 425.876 709.185 423.804C710.221 421.697 710.815 419.465 710.966 417.107C711.117 414.748 710.759 412.355 709.89 409.928ZM700.234 416.954C699.67 418.389 698.71 419.716 697.355 420.936C695.999 422.156 694.579 422.972 693.094 423.384C691.578 423.761 690.14 423.759 688.779 423.379C687.419 422.998 686.217 422.229 685.174 421.07C684.161 419.945 683.536 418.686 683.3 417.293C683.033 415.867 683.182 414.437 683.746 413.003C684.31 411.569 685.27 410.241 686.626 409.021C687.948 407.83 689.352 407.029 690.837 406.618C692.322 406.207 693.777 406.193 695.201 406.578C696.561 406.959 697.747 407.711 698.761 408.836C699.804 409.996 700.444 411.271 700.68 412.664C700.917 414.056 700.768 415.486 700.234 416.954Z" fill="#F25411"/>
<path fill-rule="evenodd" clip-rule="evenodd" d="M656.959 397.628C656.059 395.166 654.581 392.793 652.524 390.509C650.467 388.225 648.277 386.524 645.954 385.406C643.63 384.288 641.288 383.681 638.926 383.585C636.565 383.488 634.283 383.845 632.08 384.656C629.877 385.467 627.882 386.676 626.097 388.283C624.279 389.92 622.852 391.792 621.815 393.898C620.779 396.004 620.185 398.237 620.034 400.595C619.882 402.953 620.241 405.346 621.11 407.774C621.979 410.201 623.442 412.557 625.499 414.841C627.556 417.126 629.761 418.844 632.116 419.996C634.439 421.114 636.782 421.721 639.143 421.817C641.504 421.913 643.787 421.556 645.99 420.746C648.162 419.901 650.157 418.66 651.976 417.023C653.761 415.415 655.187 413.576 656.254 411.504C657.291 409.397 657.885 407.165 658.036 404.807C658.187 402.448 657.828 400.055 656.959 397.628ZM647.304 404.654C646.739 406.089 645.779 407.416 644.424 408.636C643.069 409.856 641.648 410.672 640.163 411.084C638.647 411.461 637.209 411.459 635.849 411.079C634.489 410.698 633.287 409.929 632.243 408.77C631.23 407.645 630.605 406.386 630.369 404.993C630.102 403.567 630.251 402.137 630.815 400.703C631.38 399.268 632.34 397.941 633.695 396.721C635.017 395.53 636.421 394.729 637.906 394.318C639.392 393.907 640.846 393.893 642.27 394.278C643.63 394.659 644.817 395.411 645.83 396.536C646.874 397.695 647.514 398.971 647.75 400.364C647.986 401.756 647.837 403.186 647.304 404.654Z" fill="#F25411"/>
<path fill-rule="evenodd" clip-rule="evenodd" d="M715.133 89.6894C716.994 87.8442 718.532 85.5096 719.746 82.6853C720.961 79.861 721.59 77.1584 721.634 74.5774C721.677 71.9965 721.249 69.6113 720.348 67.4219C719.447 65.2325 718.168 63.3041 716.509 61.6368C714.85 59.9695 712.917 58.6584 710.71 57.7036C708.461 56.7311 706.163 56.2122 703.815 56.1467C701.468 56.0812 699.191 56.4713 696.985 57.3169C694.778 58.1625 692.754 59.4867 690.912 61.2897C689.069 63.0927 687.541 65.4063 686.326 68.2305C685.111 71.0548 684.473 73.7785 684.411 76.4016C684.368 78.9825 684.796 81.3678 685.697 83.5572C686.598 85.7466 687.877 87.6749 689.536 89.3422C691.213 90.9674 693.176 92.2662 695.424 93.2387C697.632 94.1935 699.9 94.7247 702.23 94.8324C704.577 94.8979 706.854 94.5079 709.061 93.6622C711.267 92.8166 713.291 91.4923 715.133 89.6894ZM704.708 83.8302C703.168 83.9144 701.561 83.594 699.885 82.8691C698.208 82.1441 696.873 81.1914 695.877 80.011C694.9 78.7884 694.3 77.4788 694.076 76.0823C693.853 74.6857 694.049 73.2708 694.666 71.8376C695.264 70.4466 696.147 69.3533 697.313 68.558C698.498 67.7204 699.859 67.2595 701.399 67.1754C702.938 67.0912 704.546 67.4116 706.222 68.1366C707.857 68.8438 709.172 69.7876 710.168 70.9681C711.163 72.1485 711.784 73.4669 712.03 74.9233C712.254 76.3199 712.066 77.7137 711.468 79.1048C710.851 80.538 709.96 81.6522 708.794 82.4476C707.627 83.243 706.265 83.7039 704.708 83.8302Z" fill="#F25411"/>
<path fill-rule="evenodd" clip-rule="evenodd" d="M726.107 142.994C727.968 141.149 729.505 138.815 730.72 135.99C731.935 133.166 732.564 130.463 732.608 127.883C732.651 125.302 732.223 122.916 731.322 120.727C730.421 118.538 729.142 116.609 727.483 114.942C725.824 113.275 723.891 111.964 721.684 111.009C719.435 110.036 717.137 109.517 714.789 109.452C712.442 109.386 710.165 109.776 707.958 110.622C705.752 111.467 703.728 112.792 701.886 114.595C700.043 116.398 698.515 118.711 697.3 121.536C696.085 124.36 695.447 127.084 695.385 129.707C695.342 132.288 695.77 134.673 696.671 136.862C697.572 139.052 698.851 140.98 700.51 142.647C702.187 144.272 704.149 145.571 706.398 146.544C708.605 147.499 710.874 148.03 713.204 148.137C715.551 148.203 717.828 147.813 720.034 146.967C722.241 146.122 724.265 144.797 726.107 142.994ZM715.682 137.135C714.142 137.219 712.535 136.899 710.858 136.174C709.182 135.449 707.847 134.496 706.851 133.316C705.874 132.093 705.274 130.784 705.05 129.387C704.827 127.991 705.023 126.576 705.64 125.143C706.238 123.752 707.12 122.658 708.287 121.863C709.471 121.025 710.833 120.565 712.373 120.48C713.912 120.396 715.52 120.717 717.196 121.442C718.831 122.149 720.146 123.093 721.142 124.273C722.137 125.454 722.758 126.772 723.004 128.228C723.228 129.625 723.04 131.019 722.442 132.41C721.825 133.843 720.934 134.957 719.767 135.753C718.601 136.548 717.239 137.009 715.682 137.135Z" fill="#F25411"/>
<path d="M752.071 86.1798L749.883 94.5011L666.152 117.095L668.34 108.773L752.071 86.1798Z" fill="#F25411"/>
<path fill-rule="evenodd" clip-rule="evenodd" d="M512.577 -12.3264C512.792 -9.25855 512.495 -6.47715 511.683 -3.98207C510.868 -1.53278 509.67 0.575027 508.089 2.34137C506.507 4.10772 504.653 5.50194 502.526 6.52406C500.396 7.50035 498.125 8.07234 495.713 8.24001C493.257 8.41076 490.906 8.16008 488.659 7.48804C486.41 6.77018 484.379 5.64603 482.566 4.11564C480.753 2.58526 479.271 0.663715 478.121 -1.64898C476.968 -4.00744 476.284 -6.72055 476.068 -9.78835C475.852 -12.8562 476.152 -15.6147 476.967 -18.064C477.782 -20.5133 478.98 -22.6211 480.561 -24.3874C482.142 -26.1538 483.996 -27.548 486.123 -28.5701C488.25 -29.5922 490.542 -30.1886 492.998 -30.3594C495.41 -30.527 497.74 -30.2519 499.99 -29.5341C502.239 -28.8162 504.271 -27.6921 506.084 -26.1617C507.897 -24.6313 509.378 -22.7098 510.528 -20.3971C511.678 -18.0844 512.361 -15.3942 512.577 -12.3264ZM494.921 -3.02389C496.752 -3.15118 498.336 -3.60638 499.672 -4.38942C501.005 -5.21828 502.009 -6.2543 502.684 -7.49758C503.36 -8.74086 503.643 -10.1409 503.533 -11.6977C503.427 -13.2087 502.952 -14.533 502.109 -15.6707C501.219 -16.8512 500.057 -17.7367 498.624 -18.3272C497.191 -18.9178 495.582 -19.151 493.795 -19.0268C491.964 -18.8996 490.381 -18.4443 489.045 -17.6613C487.708 -16.8782 486.704 -15.8422 486.032 -14.5531C485.357 -13.3098 485.072 -11.9327 485.178 -10.4217C485.288 -8.86489 485.764 -7.51764 486.607 -6.37992C487.45 -5.24221 488.589 -4.3552 490.025 -3.71883C491.458 -3.12826 493.09 -2.89661 494.921 -3.02389Z" fill="#F25411"/>
<path fill-rule="evenodd" clip-rule="evenodd" d="M546.932 29.9748C547.148 33.0426 546.85 35.824 546.038 38.3191C545.223 40.7684 544.025 42.8762 542.444 44.6425C540.863 46.4089 539.009 47.8031 536.881 48.8252C534.751 49.8015 532.48 50.3735 530.068 50.5411C527.612 50.7119 525.261 50.4612 523.015 49.7892C520.765 49.0713 518.734 47.9472 516.921 46.4168C515.108 44.8864 513.626 42.9649 512.476 40.6522C511.323 38.2937 510.639 35.5806 510.423 32.5128C510.207 29.445 510.507 26.6864 511.322 24.2372C512.137 21.7879 513.335 19.68 514.916 17.9137C516.497 16.1474 518.351 14.7532 520.478 13.7311C522.606 12.709 524.897 12.1125 527.353 11.9418C529.765 11.7741 532.096 12.0492 534.345 12.7671C536.595 13.4849 538.626 14.6091 540.439 16.1395C542.252 17.6698 543.733 19.5914 544.883 21.9041C546.033 24.2168 546.716 26.907 546.932 29.9748ZM529.276 39.2773C531.107 39.15 532.691 38.6948 534.027 37.9117C535.36 37.0829 536.364 36.0468 537.04 34.8035C537.715 33.5603 537.998 32.1603 537.889 30.6035C537.782 29.0925 537.308 27.7681 536.465 26.6304C535.574 25.45 534.412 24.5645 532.979 23.9739C531.547 23.3833 529.937 23.1501 528.151 23.2743C526.32 23.4016 524.736 23.8568 523.4 24.6399C522.064 25.4229 521.06 26.459 520.387 27.748C519.712 28.9913 519.427 30.3685 519.534 31.8794C519.643 33.4363 520.119 34.7835 520.962 35.9212C521.805 37.0589 522.945 37.946 524.38 38.5823C525.813 39.1729 527.445 39.4045 529.276 39.2773Z" fill="#F25411"/>
<path d="M544.937 -15.6976L543.058 -24.0961L478.677 34.5018L480.556 42.9004L544.937 -15.6976Z" fill="#F25411"/>
<path d="M582.082 87.8864L578.136 80.2367L531.238 153.366L535.184 161.015L582.082 87.8864Z" fill="#F25411"/>
<path fill-rule="evenodd" clip-rule="evenodd" d="M551.859 99.3995C552.849 102.314 553.272 105.082 553.128 107.704C552.97 110.282 552.357 112.628 551.288 114.74C550.22 116.853 548.795 118.675 547.012 120.207C545.215 121.695 543.179 122.827 540.906 123.604C538.59 124.396 536.268 124.753 533.939 124.675C531.595 124.554 529.357 123.984 527.226 122.965C525.094 121.946 523.181 120.464 521.487 118.518C519.778 116.53 518.429 114.078 517.439 111.164C516.45 108.25 516.034 105.503 516.193 102.925C516.351 100.347 516.964 98.0012 518.033 95.8885C519.101 93.7758 520.526 91.9537 522.309 90.4221C524.091 88.8906 526.14 87.7291 528.456 86.9376C530.73 86.1604 533.038 85.8325 535.382 85.9538C537.726 86.0751 539.964 86.6452 542.095 87.6642C544.227 88.6832 546.14 90.1653 547.834 92.1105C549.528 94.0556 550.87 96.4853 551.859 99.3995ZM537.273 112.904C538.999 112.314 540.404 111.47 541.488 110.372C542.557 109.23 543.257 107.971 543.589 106.595C543.921 105.22 543.835 103.793 543.333 102.314C542.846 100.878 542.052 99.7175 540.953 98.8313C539.796 97.9159 538.454 97.3551 536.928 97.1488C535.401 96.9424 533.795 97.1271 532.111 97.7027C530.385 98.2928 528.98 99.137 527.896 100.236C526.813 101.334 526.112 102.593 525.795 104.012C525.463 105.387 525.541 106.793 526.029 108.228C526.531 109.707 527.332 110.89 528.431 111.776C529.531 112.662 530.852 113.23 532.393 113.48C533.92 113.686 535.546 113.494 537.273 112.904Z" fill="#F25411"/>
<path fill-rule="evenodd" clip-rule="evenodd" d="M595.644 131.583C596.633 134.497 597.056 137.265 596.912 139.887C596.754 142.465 596.141 144.811 595.073 146.923C594.004 149.036 592.579 150.858 590.796 152.39C588.999 153.878 586.964 155.01 584.69 155.787C582.374 156.579 580.052 156.936 577.723 156.858C575.379 156.737 573.141 156.167 571.01 155.148C568.878 154.129 566.965 152.647 565.271 150.701C563.562 148.713 562.213 146.261 561.223 143.347C560.234 140.433 559.818 137.687 559.977 135.108C560.135 132.53 560.748 130.184 561.817 128.072C562.885 125.959 564.31 124.137 566.093 122.605C567.875 121.074 569.925 119.912 572.24 119.121C574.514 118.343 576.823 118.016 579.166 118.137C581.51 118.258 583.748 118.828 585.879 119.847C588.011 120.866 589.924 122.348 591.618 124.294C593.312 126.239 594.654 128.668 595.644 131.583ZM581.057 145.088C582.783 144.498 584.188 143.653 585.272 142.555C586.341 141.413 587.041 140.154 587.373 138.778C587.705 137.403 587.62 135.976 587.118 134.497C586.63 133.061 585.837 131.901 584.737 131.014C583.58 130.099 582.239 129.538 580.712 129.332C579.185 129.126 577.58 129.31 575.895 129.886C574.169 130.476 572.764 131.32 571.68 132.419C570.597 133.517 569.896 134.776 569.579 136.195C569.247 137.571 569.325 138.976 569.813 140.411C570.315 141.89 571.116 143.073 572.215 143.959C573.315 144.845 574.636 145.413 576.177 145.663C577.704 145.869 579.331 145.678 581.057 145.088Z" fill="#F25411"/>
<path fill-rule="evenodd" clip-rule="evenodd" d="M313.866 275.58C315.09 272.734 316.639 270.382 318.513 268.523C320.369 266.707 322.408 265.373 324.631 264.521C326.854 263.669 329.147 263.276 331.513 263.342C333.859 263.451 336.145 263.986 338.369 264.948C340.634 265.927 342.611 267.236 344.301 268.873C345.972 270.553 347.261 272.496 348.168 274.701C349.076 276.907 349.507 279.31 349.464 281.91C349.402 284.553 348.759 287.297 347.535 290.142C346.311 292.987 344.771 295.318 342.915 297.134C341.059 298.951 339.02 300.285 336.797 301.137C334.574 301.989 332.28 302.382 329.915 302.316C327.55 302.25 325.235 301.727 322.97 300.747C320.746 299.785 318.798 298.464 317.127 296.785C315.456 295.105 314.167 293.162 313.259 290.957C312.352 288.751 311.92 286.348 311.964 283.748C312.008 281.148 312.642 278.425 313.866 275.58ZM333.875 275.395C332.187 274.664 330.567 274.341 329.016 274.426C327.447 274.553 326.075 275.018 324.9 275.819C323.725 276.62 322.827 277.743 322.206 279.187C321.603 280.588 321.414 281.992 321.639 283.399C321.887 284.867 322.513 286.195 323.516 287.384C324.518 288.573 325.843 289.524 327.491 290.237C329.179 290.967 330.799 291.29 332.35 291.205C333.9 291.12 335.273 290.656 336.466 289.812C337.641 289.011 338.53 287.909 339.133 286.508C339.754 285.064 339.952 283.639 339.727 282.232C339.501 280.825 338.897 279.506 337.912 278.274C336.909 277.085 335.564 276.125 333.875 275.395Z" fill="#F25411"/>
<path fill-rule="evenodd" clip-rule="evenodd" d="M324.921 329.281C326.145 326.436 327.694 324.084 329.568 322.225C331.424 320.409 333.464 319.075 335.686 318.223C337.909 317.371 340.203 316.978 342.568 317.044C344.915 317.152 347.2 317.687 349.424 318.649C351.69 319.629 353.667 320.938 355.356 322.575C357.027 324.255 358.316 326.197 359.224 328.403C360.131 330.609 360.563 333.012 360.519 335.612C360.457 338.254 359.814 340.998 358.59 343.844C357.366 346.689 355.826 349.02 353.97 350.836C352.114 352.652 350.075 353.987 347.852 354.838C345.63 355.69 343.336 356.083 340.971 356.017C338.605 355.951 336.29 355.428 334.025 354.449C331.801 353.487 329.853 352.166 328.182 350.486C326.512 348.807 325.222 346.864 324.315 344.658C323.407 342.452 322.976 340.05 323.02 337.449C323.063 334.849 323.697 332.127 324.921 329.281ZM344.931 329.096C343.242 328.366 341.622 328.043 340.072 328.128C338.503 328.255 337.131 328.719 335.955 329.521C334.78 330.322 333.882 331.445 333.261 332.888C332.658 334.29 332.469 335.694 332.695 337.101C332.943 338.568 333.568 339.896 334.571 341.086C335.574 342.275 336.899 343.226 338.546 343.938C340.235 344.669 341.854 344.991 343.405 344.907C344.956 344.822 346.328 344.357 347.521 343.514C348.696 342.712 349.585 341.611 350.188 340.21C350.809 338.766 351.007 337.34 350.782 335.933C350.557 334.526 349.952 333.207 348.968 331.975C347.965 330.786 346.619 329.826 344.931 329.096Z" fill="#F25411"/>
<path d="M294.56 317.378L292.356 325.761L376.71 302.999L378.914 294.616L294.56 317.378Z" fill="#F25411"/>
<path d="M378.147 55.4459L371.461 49.9295L385.914 -36.407L392.6 -30.8906L378.147 55.4459Z" fill="#F25411"/>
<path fill-rule="evenodd" clip-rule="evenodd" d="M341.584 14.8529C339.513 12.5474 338.024 10.1522 337.118 7.6674C336.243 5.21704 335.882 2.80164 336.034 0.421165C336.186 -1.9593 336.784 -4.21251 337.828 -6.33846C338.903 -8.42999 340.339 -10.2869 342.137 -11.9093C343.968 -13.5617 345.977 -14.8142 348.165 -15.6669C350.384 -16.4852 352.682 -16.8458 355.06 -16.7487C357.438 -16.6515 359.797 -16.0387 362.137 -14.9102C364.508 -13.7474 366.729 -12.0132 368.8 -9.70758C370.872 -7.402 372.345 -5.02403 373.22 -2.57368C374.095 -0.123322 374.457 2.29209 374.304 4.67256C374.152 7.05302 373.554 9.30623 372.51 11.4322C371.466 13.5581 370.029 15.4473 368.198 17.0997C366.4 18.722 364.392 19.9424 362.173 20.7607C359.955 21.579 357.656 21.9395 355.278 21.8424C352.9 21.7452 350.541 21.1324 348.201 20.004C345.861 18.8755 343.656 17.1585 341.584 14.8529ZM349.742 -3.44403C348.377 -2.21225 347.41 -0.872601 346.842 0.574921C346.304 2.05685 346.155 3.50054 346.392 4.90598C346.63 6.31142 347.275 7.59914 348.326 8.76913C349.346 9.90471 350.541 10.6645 351.911 11.0485C353.345 11.4368 354.81 11.4234 356.305 11.0082C357.801 10.593 359.215 9.78456 360.546 8.58282C361.911 7.35104 362.878 6.01139 363.446 4.56387C364.015 3.11634 364.165 1.67267 363.896 0.232815C363.658 -1.17262 363.029 -2.44314 362.009 -3.57872C360.958 -4.74871 359.747 -5.5257 358.378 -5.90966C357.008 -6.29362 355.56 -6.29522 354.033 -5.91446C352.537 -5.49929 351.107 -4.67581 349.742 -3.44403Z" fill="#F25411"/>
<path fill-rule="evenodd" clip-rule="evenodd" d="M394.889 27.2682C392.818 24.9626 391.329 22.5675 390.423 20.0827C389.548 17.6323 389.186 15.2169 389.338 12.8365C389.49 10.456 390.088 8.20278 391.132 6.07684C392.207 3.9853 393.643 2.12836 395.441 0.506016C397.272 -1.14637 399.282 -2.39893 401.469 -3.25165C403.688 -4.06996 405.986 -4.43052 408.364 -4.33335C410.742 -4.23619 413.101 -3.62338 415.441 -2.49493C417.812 -1.33207 420.033 0.402142 422.105 2.70772C424.176 5.01329 425.649 7.39126 426.524 9.84162C427.4 12.292 427.761 14.7074 427.609 17.0879C427.457 19.4683 426.859 21.7215 425.815 23.8475C424.771 25.9734 423.333 27.8626 421.502 29.515C419.705 31.1373 417.696 32.3577 415.478 33.176C413.259 33.9943 410.961 34.3548 408.583 34.2577C406.205 34.1605 403.846 33.5477 401.506 32.4193C399.166 31.2908 396.96 29.5738 394.889 27.2682ZM403.046 8.97126C401.681 10.203 400.715 11.5427 400.146 12.9902C399.609 14.4721 399.459 15.9158 399.697 17.3213C399.935 18.7267 400.579 20.0144 401.63 21.1844C402.651 22.32 403.846 23.0798 405.215 23.4637C406.649 23.8521 408.114 23.8387 409.61 23.4235C411.106 23.0083 412.519 22.1999 413.851 20.9981C415.216 19.7663 416.183 18.4267 416.751 16.9792C417.319 15.5317 417.469 14.088 417.2 12.6481C416.962 11.2427 416.333 9.97216 415.313 8.83658C414.262 7.66658 413.052 6.8896 411.682 6.50564C410.312 6.12167 408.864 6.12008 407.337 6.50084C405.842 6.91601 404.411 7.73948 403.046 8.97126Z" fill="#F25411"/>
<path fill-rule="evenodd" clip-rule="evenodd" d="M417.207 68.8281C418.943 66.2605 420.907 64.2365 423.099 62.7561C425.265 61.314 427.521 60.3788 429.867 59.9505C432.214 59.5222 434.545 59.5572 436.86 60.0558C439.15 60.5926 441.299 61.5369 443.308 62.8888C445.354 64.2656 447.055 65.9123 448.412 67.8288C449.743 69.7835 450.648 71.9264 451.129 74.2573C451.61 76.5882 451.586 79.0255 451.057 81.569C450.502 84.1508 449.357 86.7256 447.621 89.2932C445.885 91.8609 443.934 93.8657 441.768 95.3078C439.602 96.7498 437.346 97.685 434.999 98.1134C432.653 98.5417 430.322 98.5066 428.007 98.0081C425.691 97.5096 423.511 96.5719 421.465 95.195C419.456 93.8432 417.786 92.1899 416.455 90.2351C415.124 88.2803 414.219 86.1375 413.738 83.8065C413.257 81.4756 413.281 79.0384 413.81 76.4949C414.339 73.9514 415.471 71.3957 417.207 68.8281ZM436.934 72.3162C435.408 71.2898 433.875 70.676 432.333 70.4748C430.765 70.312 429.328 70.5159 428.022 71.0868C426.715 71.6576 425.622 72.5945 424.741 73.8975C423.886 75.1621 423.438 76.5054 423.396 77.9274C423.366 79.4127 423.734 80.8308 424.498 82.1817C425.263 83.5326 426.389 84.7087 427.878 85.7101C429.403 86.7365 430.937 87.3503 432.479 87.5515C434.021 87.7527 435.458 87.5487 436.79 86.9396C438.096 86.3687 439.176 85.451 440.031 84.1863C440.912 82.8833 441.373 81.5209 441.415 80.0989C441.456 78.6769 441.107 77.2714 440.369 75.8821C439.604 74.5312 438.459 73.3426 436.934 72.3162Z" fill="#F25411"/>
<path fill-rule="evenodd" clip-rule="evenodd" d="M418.054 123.554C419.79 120.986 421.754 118.962 423.946 117.482C426.112 116.04 428.368 115.104 430.715 114.676C433.061 114.248 435.392 114.283 437.707 114.781C439.997 115.318 442.146 116.262 444.155 117.614C446.201 118.991 447.902 120.638 449.259 122.554C450.59 124.509 451.495 126.652 451.976 128.983C452.457 131.314 452.433 133.751 451.904 136.295C451.349 138.876 450.204 141.451 448.468 144.019C446.732 146.586 444.781 148.591 442.615 150.033C440.449 151.475 438.193 152.411 435.847 152.839C433.5 153.267 431.169 153.232 428.854 152.734C426.539 152.235 424.358 151.297 422.312 149.921C420.303 148.569 418.633 146.915 417.302 144.961C415.971 143.006 415.066 140.863 414.585 138.532C414.104 136.201 414.128 133.764 414.657 131.22C415.186 128.677 416.318 126.121 418.054 123.554ZM437.781 127.042C436.255 126.015 434.722 125.402 433.18 125.2C431.612 125.038 430.175 125.241 428.869 125.812C427.562 126.383 426.469 127.32 425.588 128.623C424.733 129.888 424.285 131.231 424.243 132.653C424.213 134.138 424.581 135.556 425.345 136.907C426.11 138.258 427.236 139.434 428.725 140.436C430.25 141.462 431.784 142.076 433.326 142.277C434.868 142.478 436.305 142.274 437.637 141.665C438.943 141.094 440.023 140.177 440.879 138.912C441.759 137.609 442.221 136.246 442.262 134.824C442.303 133.403 441.954 131.997 441.216 130.608C440.451 129.257 439.306 128.068 437.781 127.042Z" fill="#F25411"/>
<path d="M390.399 106.304L386.664 114.127L473.931 107.261L477.667 99.4386L390.399 106.304Z" fill="#F25411"/>
<path fill-rule="evenodd" clip-rule="evenodd" d="M371.03 416.052C373.505 416.975 376.291 417.396 379.39 417.315C382.489 417.234 385.229 416.67 387.61 415.621C389.992 414.572 391.995 413.175 393.619 411.428C395.243 409.681 396.469 407.698 397.295 405.479C398.122 403.26 398.506 400.94 398.449 398.519C398.39 396.054 397.895 393.734 396.964 391.561C396.033 389.387 394.715 387.47 393.009 385.81C391.304 384.15 389.237 382.858 386.808 381.935C384.38 381.011 381.616 380.59 378.518 380.67C375.419 380.751 372.656 381.316 370.228 382.366C367.847 383.415 365.844 384.812 364.219 386.559C362.595 388.306 361.37 390.289 360.543 392.508C359.763 394.726 359.402 397.068 359.461 399.533C359.519 401.954 359.99 404.251 360.875 406.426C361.806 408.6 363.124 410.517 364.829 412.177C366.535 413.837 368.602 415.129 371.03 416.052ZM371.994 404.051C371.267 402.68 370.882 401.075 370.838 399.237C370.794 397.399 371.103 395.777 371.763 394.369C372.47 392.96 373.416 391.859 374.6 391.066C375.785 390.273 377.163 389.855 378.735 389.815C380.262 389.775 381.635 390.12 382.856 390.851C384.123 391.581 385.119 392.631 385.846 394.003C386.573 395.374 386.958 396.979 387.002 398.817C387.045 400.61 386.736 402.21 386.075 403.618C385.414 405.026 384.469 406.149 383.24 406.988C382.055 407.782 380.7 408.198 379.174 408.238C377.602 408.279 376.205 407.934 374.984 407.203C373.764 406.472 372.767 405.422 371.994 404.051Z" fill="#F25411"/>
<path fill-rule="evenodd" clip-rule="evenodd" d="M326.857 448.564C329.332 449.486 332.118 449.907 335.217 449.826C338.316 449.746 341.056 449.181 343.437 448.133C345.819 447.084 347.821 445.686 349.446 443.939C351.07 442.193 352.296 440.21 353.122 437.99C353.949 435.771 354.333 433.451 354.275 431.031C354.217 428.565 353.722 426.246 352.791 424.072C351.86 421.899 350.542 419.982 348.836 418.322C347.131 416.662 345.064 415.37 342.635 414.446C340.207 413.522 337.443 413.101 334.345 413.181C331.246 413.262 328.483 413.827 326.055 414.877C323.674 415.926 321.671 417.324 320.046 419.07C318.422 420.817 317.196 422.8 316.37 425.019C315.59 427.237 315.229 429.579 315.288 432.044C315.345 434.465 315.817 436.763 316.701 438.938C317.632 441.111 318.951 443.028 320.656 444.688C322.362 446.348 324.429 447.64 326.857 448.564ZM327.821 436.563C327.094 435.191 326.709 433.586 326.665 431.749C326.621 429.911 326.93 428.288 327.59 426.88C328.297 425.472 329.243 424.37 330.427 423.577C331.611 422.784 332.99 422.367 334.562 422.326C336.088 422.286 337.462 422.632 338.682 423.363C339.949 424.092 340.946 425.143 341.673 426.514C342.4 427.886 342.785 429.49 342.829 431.328C342.871 433.121 342.562 434.722 341.902 436.129C341.241 437.537 340.296 438.66 339.067 439.5C337.882 440.293 336.527 440.71 335.001 440.749C333.428 440.79 332.032 440.445 330.811 439.714C329.591 438.984 328.594 437.933 327.821 436.563Z" fill="#F25411"/>
<path d="M389.835 448.336L381.293 449.845L325.263 382.837L333.805 381.327L389.835 448.336Z" fill="#F25411"/>
<path fill-rule="evenodd" clip-rule="evenodd" d="M473.068 392.393C472.852 389.298 473.15 386.492 473.963 383.975C474.778 381.504 475.977 379.378 477.559 377.596C479.141 375.814 480.997 374.408 483.125 373.376C485.257 372.392 487.53 371.815 489.943 371.645C492.401 371.473 494.753 371.726 497.001 372.404C499.252 373.128 501.285 374.262 503.099 375.806C504.913 377.35 506.396 379.289 507.547 381.622C508.701 384.001 509.385 386.738 509.601 389.833C509.817 392.928 509.518 395.711 508.702 398.182C507.886 400.653 506.688 402.779 505.105 404.561C503.523 406.343 501.668 407.75 499.539 408.781C497.411 409.812 495.117 410.413 492.66 410.586C490.246 410.755 487.914 410.477 485.663 409.753C483.412 409.029 481.38 407.895 479.565 406.351C477.751 404.807 476.269 402.869 475.118 400.535C473.967 398.202 473.284 395.488 473.068 392.393ZM490.736 383.009C488.903 383.137 487.319 383.596 485.982 384.386C484.648 385.223 483.643 386.268 482.967 387.522C482.291 388.776 482.008 390.189 482.117 391.759C482.224 393.284 482.699 394.62 483.542 395.767C484.434 396.958 485.596 397.852 487.03 398.447C488.464 399.043 490.074 399.278 491.862 399.153C493.694 399.025 495.279 398.565 496.616 397.775C497.953 396.986 498.958 395.94 499.63 394.64C500.306 393.386 500.591 391.996 500.485 390.472C500.375 388.901 499.899 387.542 499.055 386.394C498.212 385.247 497.071 384.352 495.634 383.71C494.201 383.114 492.568 382.88 490.736 383.009Z" fill="#F25411"/>
<path fill-rule="evenodd" clip-rule="evenodd" d="M507.446 435.068C507.23 431.973 507.528 429.167 508.341 426.65C509.156 424.179 510.355 422.053 511.937 420.271C513.52 418.489 515.375 417.082 517.503 416.051C519.635 415.066 521.908 414.489 524.321 414.32C526.779 414.148 529.132 414.401 531.379 415.079C533.63 415.803 535.663 416.937 537.477 418.481C539.292 420.025 540.774 421.963 541.925 424.297C543.079 426.676 543.764 429.413 543.98 432.508C544.195 435.603 543.896 438.386 543.08 440.857C542.265 443.327 541.066 445.454 539.484 447.236C537.901 449.018 536.046 450.424 533.917 451.455C531.789 452.487 529.496 453.088 527.038 453.261C524.625 453.43 522.292 453.152 520.041 452.428C517.79 451.704 515.758 450.57 513.944 449.026C512.129 447.482 510.647 445.543 509.496 443.21C508.345 440.877 507.662 438.163 507.446 435.068ZM525.114 425.684C523.281 425.812 521.697 426.271 520.36 427.061C519.026 427.897 518.021 428.943 517.345 430.197C516.669 431.451 516.386 432.863 516.496 434.434C516.602 435.958 517.077 437.294 517.921 438.442C518.812 439.633 519.974 440.526 521.408 441.122C522.842 441.718 524.453 441.953 526.24 441.828C528.072 441.699 529.657 441.24 530.994 440.45C532.331 439.66 533.336 438.615 534.009 437.315C534.685 436.06 534.969 434.671 534.863 433.147C534.753 431.576 534.277 430.217 533.433 429.069C532.59 427.922 531.45 427.027 530.013 426.385C528.579 425.789 526.946 425.555 525.114 425.684Z" fill="#F25411"/>
<path d="M475.064 438.469L476.944 446.942L541.368 387.826L539.488 379.354L475.064 438.469Z" fill="#F25411"/>
<path d="M339.516 223.691L346.715 228.538L352.692 141.299L345.493 136.452L339.516 223.691Z" fill="#F25411"/>
<path fill-rule="evenodd" clip-rule="evenodd" d="M306.332 191.664C304.043 189.57 302.327 187.33 301.182 184.946C300.071 182.592 299.475 180.225 299.395 177.843C299.314 175.461 299.69 173.163 300.522 170.95C301.389 168.767 302.639 166.783 304.271 164.998C305.934 163.18 307.814 161.742 309.91 160.685C312.041 159.659 314.295 159.081 316.674 158.95C319.052 158.82 321.462 159.204 323.903 160.102C326.378 161.032 328.76 162.544 331.049 164.639C333.337 166.734 335.036 168.958 336.147 171.311C337.258 173.664 337.854 176.032 337.935 178.413C338.015 180.795 337.639 183.093 336.807 185.307C335.974 187.521 334.726 189.537 333.064 191.355C331.431 193.14 329.549 194.546 327.419 195.572C325.288 196.597 323.034 197.176 320.656 197.306C318.277 197.437 315.867 197.053 313.426 196.154C310.985 195.256 308.62 193.759 306.332 191.664ZM312.673 172.689C311.434 174.045 310.602 175.469 310.177 176.963C309.786 178.488 309.777 179.938 310.151 181.313C310.525 182.688 311.293 183.907 312.454 184.97C313.581 186.002 314.846 186.643 316.248 186.894C317.714 187.143 319.172 186.99 320.622 186.434C322.072 185.878 323.401 184.939 324.61 183.617C325.85 182.261 326.682 180.837 327.107 179.343C327.532 177.849 327.541 176.399 327.132 174.993C326.758 173.618 326.008 172.415 324.881 171.383C323.719 170.32 322.438 169.663 321.036 169.412C319.634 169.161 318.191 169.298 316.707 169.822C315.258 170.378 313.913 171.334 312.673 172.689Z" fill="#F25411"/>
<path fill-rule="evenodd" clip-rule="evenodd" d="M360.645 198.916C358.357 196.821 356.64 194.582 355.495 192.197C354.384 189.844 353.789 187.477 353.708 185.095C353.627 182.713 354.003 180.415 354.836 178.202C355.702 176.019 356.952 174.035 358.585 172.25C360.248 170.432 362.127 168.994 364.224 167.937C366.354 166.911 368.608 166.333 370.987 166.202C373.365 166.072 375.775 166.455 378.216 167.354C380.692 168.284 383.074 169.796 385.362 171.891C387.65 173.986 389.35 176.21 390.461 178.563C391.572 180.916 392.167 183.283 392.248 185.665C392.329 188.047 391.953 190.345 391.12 192.559C390.288 194.773 389.04 196.789 387.377 198.607C385.744 200.392 383.863 201.798 381.732 202.824C379.602 203.849 377.347 204.428 374.969 204.558C372.59 204.689 370.181 204.305 367.739 203.406C365.298 202.508 362.934 201.011 360.645 198.916ZM366.987 179.941C365.747 181.297 364.915 182.721 364.49 184.215C364.099 185.74 364.091 187.19 364.465 188.565C364.839 189.94 365.606 191.159 366.768 192.222C367.895 193.254 369.159 193.895 370.561 194.146C372.028 194.395 373.486 194.242 374.935 193.686C376.385 193.13 377.714 192.191 378.924 190.869C380.163 189.513 380.996 188.089 381.421 186.595C381.845 185.101 381.854 183.651 381.446 182.245C381.072 180.87 380.321 179.667 379.194 178.635C378.033 177.572 376.751 176.915 375.349 176.664C373.947 176.413 372.504 176.55 371.021 177.074C369.571 177.63 368.226 178.586 366.987 179.941Z" fill="#F25411"/>
<path fill-rule="evenodd" clip-rule="evenodd" d="M599.657 299.345C597.934 301.894 595.984 303.903 593.809 305.372C591.659 306.804 589.419 307.732 587.09 308.157C584.761 308.582 582.447 308.548 580.149 308.053C577.877 307.52 575.743 306.583 573.749 305.241C571.718 303.874 570.029 302.24 568.683 300.337C567.362 298.397 566.463 296.27 565.985 293.956C565.508 291.642 565.532 289.223 566.057 286.698C566.607 284.136 567.745 281.58 569.468 279.031C571.191 276.483 573.128 274.493 575.277 273.061C577.427 271.63 579.667 270.701 581.996 270.276C584.325 269.851 586.639 269.886 588.937 270.381C591.235 270.876 593.4 271.806 595.431 273.173C597.425 274.515 599.083 276.156 600.403 278.096C601.724 280.037 602.623 282.164 603.101 284.477C603.578 286.791 603.554 289.21 603.029 291.735C602.504 294.26 601.38 296.797 599.657 299.345ZM580.076 295.883C581.59 296.902 583.113 297.511 584.643 297.711C586.199 297.872 587.626 297.67 588.922 297.103C590.219 296.537 591.304 295.607 592.179 294.313C593.028 293.058 593.473 291.725 593.513 290.313C593.543 288.839 593.179 287.431 592.419 286.09C591.661 284.749 590.542 283.582 589.065 282.588C587.551 281.569 586.029 280.96 584.498 280.76C582.968 280.56 581.541 280.763 580.219 281.368C578.923 281.934 577.85 282.845 577.001 284.1C576.127 285.394 575.669 286.746 575.628 288.158C575.587 289.569 575.933 290.964 576.667 292.343C577.426 293.684 578.562 294.864 580.076 295.883Z" fill="#F25411"/>
<path fill-rule="evenodd" clip-rule="evenodd" d="M600.498 353.667C598.775 356.215 596.825 358.225 594.65 359.694C592.5 361.125 590.26 362.054 587.931 362.479C585.602 362.904 583.288 362.869 580.99 362.374C578.717 361.841 576.584 360.904 574.59 359.562C572.559 358.196 570.87 356.561 569.523 354.659C568.203 352.718 567.304 350.591 566.826 348.278C566.349 345.964 566.373 343.545 566.898 341.02C567.448 338.457 568.585 335.901 570.309 333.353C572.032 330.804 573.968 328.814 576.118 327.383C578.268 325.951 580.508 325.023 582.837 324.598C585.166 324.173 587.48 324.207 589.778 324.702C592.076 325.197 594.241 326.128 596.272 327.495C598.266 328.836 599.923 330.477 601.244 332.418C602.565 334.358 603.464 336.485 603.942 338.799C604.419 341.113 604.395 343.532 603.87 346.057C603.345 348.581 602.221 351.118 600.498 353.667ZM580.917 350.204C582.431 351.223 583.953 351.832 585.484 352.032C587.04 352.194 588.467 351.991 589.763 351.425C591.06 350.858 592.145 349.928 593.02 348.635C593.868 347.38 594.313 346.046 594.354 344.635C594.384 343.16 594.019 341.753 593.26 340.412C592.501 339.071 591.383 337.903 589.906 336.909C588.392 335.891 586.87 335.281 585.339 335.082C583.809 334.882 582.382 335.084 581.06 335.689C579.763 336.256 578.691 337.167 577.842 338.422C576.968 339.715 576.51 341.068 576.469 342.479C576.428 343.891 576.774 345.286 577.507 346.665C578.266 348.006 579.403 349.186 580.917 350.204Z" fill="#F25411"/>
<path d="M627.108 316.467L630.815 308.703L544.193 315.518L540.485 323.282L627.108 316.467Z" fill="#F25411"/>
<path d="M450.584 243.037L454.559 250.744L501.806 177.071L497.831 169.364L450.584 243.037Z" fill="#F25411"/>
<path fill-rule="evenodd" clip-rule="evenodd" d="M436.922 199.016C435.925 196.08 435.499 193.291 435.644 190.65C435.803 188.053 436.421 185.69 437.497 183.561C438.573 181.433 440.009 179.597 441.805 178.054C443.616 176.555 445.667 175.414 447.957 174.631C450.29 173.834 452.63 173.474 454.976 173.553C457.337 173.675 459.591 174.249 461.739 175.276C463.886 176.302 465.813 177.795 467.52 179.755C469.242 181.759 470.601 184.228 471.598 187.164C472.595 190.1 473.014 192.867 472.854 195.464C472.695 198.062 472.077 200.425 471 202.553C469.924 204.682 468.488 206.517 466.692 208.06C464.897 209.603 462.832 210.773 460.499 211.571C458.209 212.354 455.883 212.684 453.522 212.562C451.161 212.44 448.906 211.865 446.759 210.839C444.611 209.812 442.684 208.319 440.977 206.359C439.27 204.4 437.919 201.952 436.922 199.016ZM451.617 185.411C449.878 186.005 448.462 186.856 447.371 187.962C446.294 189.113 445.588 190.381 445.254 191.767C444.92 193.153 445.005 194.59 445.511 196.08C446.002 197.526 446.802 198.696 447.91 199.589C449.075 200.511 450.427 201.076 451.965 201.284C453.503 201.491 455.12 201.305 456.817 200.725C458.556 200.131 459.972 199.281 461.063 198.174C462.155 197.067 462.861 195.799 463.18 194.369C463.514 192.984 463.436 191.568 462.945 190.122C462.439 188.632 461.632 187.44 460.524 186.548C459.416 185.655 458.086 185.082 456.533 184.831C454.995 184.623 453.356 184.816 451.617 185.411Z" fill="#F25411"/>
<path fill-rule="evenodd" clip-rule="evenodd" d="M481.032 231.439C480.035 228.503 479.609 225.714 479.753 223.073C479.913 220.475 480.531 218.112 481.607 215.984C482.683 213.855 484.119 212.02 485.915 210.477C487.726 208.977 489.776 207.836 492.067 207.054C494.4 206.256 496.74 205.897 499.086 205.975C501.447 206.097 503.701 206.672 505.849 207.698C507.996 208.725 509.923 210.218 511.63 212.177C513.352 214.181 514.711 216.651 515.708 219.587C516.705 222.522 517.123 225.289 516.964 227.887C516.804 230.484 516.187 232.847 515.11 234.976C514.034 237.104 512.598 238.94 510.802 240.483C509.007 242.026 506.942 243.196 504.609 243.993C502.319 244.776 499.993 245.106 497.632 244.984C495.27 244.862 493.016 244.288 490.869 243.261C488.721 242.235 486.794 240.741 485.087 238.782C483.38 236.822 482.029 234.374 481.032 231.439ZM495.727 217.833C493.988 218.428 492.572 219.278 491.481 220.385C490.404 221.535 489.698 222.803 489.364 224.189C489.03 225.575 489.115 227.013 489.621 228.503C490.112 229.949 490.912 231.118 492.02 232.011C493.185 232.933 494.536 233.498 496.075 233.706C497.613 233.914 499.23 233.728 500.927 233.148C502.666 232.554 504.081 231.703 505.173 230.596C506.265 229.49 506.971 228.221 507.29 226.792C507.624 225.406 507.546 223.99 507.055 222.544C506.549 221.054 505.742 219.863 504.634 218.97C503.526 218.077 502.196 217.505 500.643 217.253C499.105 217.045 497.466 217.239 495.727 217.833Z" fill="#F25411"/>
</svg>
