<svg width="43" height="36" viewBox="0 0 43 36" fill="none" xmlns="http://www.w3.org/2000/svg">
<path fill-rule="evenodd" clip-rule="evenodd" d="M13.7103 1.40113C13.7949 0.938512 14.1213 0.563268 14.5568 0.4281C14.9923 0.292931 15.4642 0.42037 15.7805 0.758555L15.7966 0.775908L15.8399 0.822564C15.8775 0.863105 15.932 0.922213 16.0012 0.997905C16.1397 1.14925 16.3374 1.36712 16.5764 1.63562C17.0536 2.17186 17.6988 2.91371 18.3675 3.73313C18.7515 4.20364 19.1472 4.70458 19.5254 5.21054C19.6951 4.99109 19.8849 4.78676 20.0933 4.60069C20.9607 3.8262 22.0829 3.42769 23.2266 3.48801C24.3703 3.54833 25.4476 4.06283 26.2346 4.92457C26.6895 5.4228 27.0272 6.01496 27.2301 6.65512C27.4748 6.63062 27.7216 6.61821 27.9696 6.61821C29.7372 6.61821 31.442 7.24877 32.8036 8.38962C32.9404 8.29737 33.0821 8.21274 33.2284 8.13621C33.7558 7.86018 34.3307 7.69489 34.9201 7.64986C35.5094 7.60483 36.1015 7.68093 36.6624 7.8738C37.2232 8.06667 37.7417 8.3725 38.1879 8.77369L38.1969 8.78185C39.0922 9.6028 39.642 10.7539 39.7287 11.9891C39.7608 12.4458 39.7286 12.9007 39.6363 13.3405H40.9078C41.5801 13.3405 42.125 13.9048 42.125 14.6011C42.125 20.2664 39.952 25.6997 36.0841 29.7057C34.6173 31.2248 32.9524 32.4915 31.1521 33.4788H34.4385C35.1107 33.4788 35.6556 34.0432 35.6556 34.7394C35.6556 35.4356 35.1107 36 34.4385 36H8.5616C7.88938 36 7.34444 35.4356 7.34444 34.7394C7.34444 34.0432 7.88938 33.4788 8.5616 33.4788H11.8482C10.048 32.4915 8.38301 31.2248 6.91622 29.7057C3.04832 25.6997 0.875352 20.2664 0.875352 14.6011C0.875352 14.2667 1.00359 13.9461 1.23185 13.7097C1.46011 13.4733 1.7697 13.3405 2.09251 13.3405H6.34592C6.29343 13.2321 6.24197 13.1234 6.1916 13.0148C5.88475 12.3534 5.58857 11.6311 5.31553 10.9159L1.56246 9.0358C0.957312 8.73265 0.70402 7.97882 0.996719 7.35207C1.28942 6.72531 2.01727 6.46298 2.62242 6.76613L4.14247 7.52759L4.08282 7.33832C3.97392 6.99109 3.88736 6.70595 3.82781 6.50682C3.79802 6.40723 3.77497 6.32908 3.75923 6.27536L3.74116 6.21346L3.73448 6.19039C3.60466 5.73915 3.72847 5.25059 4.05551 4.92354C4.38255 4.59648 4.85831 4.48545 5.28918 4.63563L5.31124 4.64336L5.37036 4.66423C5.42165 4.68242 5.49626 4.70902 5.59131 4.74335C5.78137 4.812 6.05347 4.91162 6.38468 5.03659C7.04614 5.28618 7.94788 5.63859 8.90485 6.0487C9.85865 6.45744 10.8844 6.93076 11.7877 7.42319C12.1642 7.62845 12.5422 7.849 12.8952 8.08177C12.9385 7.18285 13.0273 6.23786 13.1291 5.35907C13.2525 4.29386 13.3975 3.30676 13.5113 2.58703C13.5683 2.22666 13.6177 1.93208 13.653 1.72679C13.6707 1.62412 13.6848 1.5437 13.6946 1.48846L13.706 1.42483L13.7103 1.40113ZM9.14752 13.3405H10.1555L8.73267 12.6277C8.88153 12.9108 9.0208 13.1492 9.14752 13.3405ZM22.8555 13.3405H25.0132L24.8429 13.1645C24.3671 12.6727 24.3662 11.8745 24.841 11.3817C25.3158 10.8888 26.0864 10.8879 26.5623 11.3797L27.9164 12.779L27.9315 12.7949L27.9467 12.779L29.3008 11.3797C29.7766 10.8879 30.5473 10.8888 31.0221 11.3817C31.4969 11.8745 31.496 12.6727 31.0202 13.1645L30.8499 13.3405H33.0837C32.8625 12.3609 32.3813 11.4555 31.6833 10.7326C30.6984 9.71253 29.3625 9.13944 27.9696 9.13944C26.5766 9.13944 25.2408 9.71253 24.2558 10.7326C23.5579 11.4555 23.0766 12.3609 22.8555 13.3405ZM12.3411 10.8025C12.7083 11.1971 12.9776 11.6241 13.1618 12.0458L7.24339 9.08099C7.09759 8.67509 6.96064 8.27865 6.83531 7.90582C7.19656 8.05117 7.58091 8.20986 7.97412 8.37837C8.89285 8.77209 9.84288 9.21213 10.6538 9.65422C11.498 10.1144 12.0731 10.5149 12.3411 10.8025ZM21.7178 9.133L22.334 9.16549C22.1615 9.35809 21.999 9.55864 21.8468 9.7663C21.8134 9.55525 21.7704 9.34386 21.7178 9.133ZM18.7093 8.36662C18.7335 8.41317 18.7606 8.45827 18.7905 8.50163C19.0644 8.96347 19.2401 9.33338 19.3146 9.59161C19.5873 10.5375 19.5421 11.4345 19.3043 12.1039C19.2861 12.155 19.2671 12.2044 19.2472 12.252L18.4274 9.41751C18.2345 8.75057 17.5561 8.37185 16.9122 8.57162C16.2682 8.77139 15.9026 9.47399 16.0955 10.1409L16.9149 12.9743C16.8732 12.946 16.8313 12.9158 16.7892 12.8835C16.2358 12.4601 15.7223 11.737 15.4483 10.7911C15.3373 10.4085 15.2818 9.69285 15.3078 8.70466C15.3327 7.75576 15.4276 6.68217 15.5461 5.6595C15.5968 5.22188 15.6514 4.79705 15.706 4.39962C15.9625 4.70043 16.2337 5.02407 16.5083 5.36064C17.1503 6.14728 17.7995 6.99 18.3242 7.76848C18.4672 7.98068 18.5956 8.18044 18.7093 8.36662ZM21.6829 6.51022C22.0759 6.15924 22.5845 5.97864 23.1028 6.00598C23.6211 6.03331 24.1093 6.26647 24.466 6.65699C24.4959 6.68978 24.5247 6.72347 24.5524 6.75799L21.587 6.6016C21.6179 6.57017 21.6499 6.53969 21.6829 6.51022ZM35.0992 10.1643C35.3685 10.1437 35.639 10.1785 35.8952 10.2666C36.1496 10.354 36.3848 10.4924 36.5877 10.6736C37.0045 11.0579 37.2603 11.5954 37.3008 12.1719C37.3088 12.2858 37.3083 12.3993 37.2995 12.5117L34.7709 10.2173C34.8785 10.1905 34.9883 10.1727 35.0992 10.1643ZM8.63755 27.9229C5.5142 24.688 3.64396 20.3979 3.35041 15.8617H39.6499C39.3564 20.3979 37.4862 24.688 34.3628 27.9229C30.9514 31.456 26.3246 33.4409 21.5002 33.4409C16.6758 33.4409 12.0489 31.456 8.63755 27.9229Z" fill="#81B93C"/>
</svg>
