<svg width="22" height="19" viewBox="0 0 22 19" fill="none" xmlns="http://www.w3.org/2000/svg">
<path fill-rule="evenodd" clip-rule="evenodd" d="M6.8455 0.547268C6.8906 0.30054 7.06471 0.10041 7.29696 0.0283198C7.52921 -0.04377 7.78089 0.0241974 7.94959 0.204563L7.95821 0.213817L7.9813 0.238701C8.00132 0.260322 8.03039 0.291847 8.06733 0.332216C8.14119 0.412933 8.24662 0.529132 8.37406 0.672333C8.62859 0.958327 8.9727 1.35398 9.32934 1.791C9.53413 2.04194 9.74517 2.30911 9.9469 2.57895C10.0374 2.46192 10.1386 2.35294 10.2498 2.2537C10.7124 1.84064 11.3109 1.6281 11.9209 1.66027C12.5308 1.69244 13.1054 1.96684 13.5251 2.42643C13.7678 2.69216 13.9478 3.00798 14.056 3.3494C14.1866 3.33633 14.3182 3.32971 14.4504 3.32971C15.3931 3.32971 16.3024 3.66601 17.0286 4.27446C17.1015 4.22526 17.1771 4.18013 17.2551 4.13931C17.5364 3.9921 17.8431 3.90394 18.1574 3.87993C18.4717 3.85591 18.7875 3.8965 19.0866 3.99936C19.3857 4.10223 19.6622 4.26533 19.9002 4.4793L19.905 4.48365C20.3825 4.92149 20.6757 5.5354 20.722 6.19417C20.7391 6.43777 20.7219 6.68037 20.6727 6.91491H21.3508C21.7094 6.91491 22 7.21592 22 7.58724C22 10.6087 20.8411 13.5065 18.7782 15.643C17.9959 16.4532 17.1079 17.1288 16.1478 17.6553H17.9005C18.259 17.6553 18.5497 17.9564 18.5497 18.3277C18.5497 18.699 18.259 19 17.9005 19H4.09952C3.741 19 3.45037 18.699 3.45037 18.3277C3.45037 17.9564 3.741 17.6553 4.09952 17.6553H5.85238C4.89226 17.1288 4.00427 16.4532 3.22199 15.643C1.1591 13.5065 0.000187541 10.6087 0.000187541 7.58724C0.000187541 7.40892 0.0685803 7.23791 0.19032 7.11183C0.31206 6.98574 0.477175 6.91491 0.649341 6.91491H2.91783C2.88983 6.85714 2.86238 6.79915 2.83552 6.74123C2.67187 6.38847 2.5139 6.00324 2.36828 5.62181L0.366647 4.6191C0.0438997 4.45742 -0.0911895 4.05537 0.0649167 3.7211C0.221023 3.38683 0.60921 3.24692 0.931957 3.4086L1.74265 3.81471L1.71084 3.71377C1.65276 3.52858 1.60659 3.3765 1.57483 3.2703C1.55895 3.21719 1.54665 3.17551 1.53825 3.14686L1.52862 3.11384L1.52506 3.10154C1.45582 2.86088 1.52185 2.60032 1.69627 2.42589C1.87069 2.25146 2.12443 2.19224 2.35423 2.27234L2.36599 2.27646L2.39752 2.28759C2.42488 2.29729 2.46467 2.31148 2.51537 2.32979C2.61673 2.3664 2.76185 2.41953 2.93849 2.48618C3.29128 2.6193 3.7722 2.80725 4.28259 3.02597C4.79128 3.24397 5.33836 3.4964 5.8201 3.75904C6.0209 3.86851 6.22252 3.98613 6.41077 4.11028C6.43388 3.63085 6.4812 3.12686 6.53551 2.65817C6.60135 2.09006 6.67866 1.5636 6.73937 1.17975C6.76978 0.987551 6.79612 0.830445 6.81495 0.720955C6.82436 0.666195 6.8319 0.623304 6.83714 0.593845L6.84321 0.55991L6.8455 0.547268ZM4.41201 6.91491H4.9496L4.19075 6.53477C4.27015 6.68576 4.34443 6.81291 4.41201 6.91491ZM11.7229 6.91491H12.8737L12.7829 6.82104C12.5291 6.55878 12.5286 6.13309 12.7819 5.87023C13.0351 5.60737 13.4461 5.60689 13.6999 5.86916L14.4221 6.61544L14.4302 6.62393L14.4382 6.61544L15.1604 5.86916C15.4142 5.60689 15.8252 5.60737 16.0785 5.87023C16.3317 6.13308 16.3312 6.55878 16.0774 6.82104L15.9866 6.91491H17.178C17.06 6.39247 16.8034 5.90961 16.4311 5.52408C15.9058 4.98002 15.1933 4.67437 14.4504 4.67437C13.7075 4.67437 12.9951 4.98002 12.4698 5.52408C12.0975 5.90961 11.8409 6.39247 11.7229 6.91491ZM6.11528 5.56135C6.31107 5.77179 6.45473 5.99953 6.55296 6.22442L3.39648 4.64319C3.31872 4.42671 3.24567 4.21528 3.17883 4.01644C3.3715 4.09396 3.57649 4.17859 3.7862 4.26847C4.27619 4.47845 4.78287 4.71313 5.21536 4.94892C5.66558 5.19436 5.97234 5.40794 6.11528 5.56135ZM11.1161 4.67093L11.4448 4.68826C11.3528 4.79098 11.2661 4.89794 11.185 5.00869C11.1671 4.89614 11.1442 4.78339 11.1161 4.67093ZM9.51162 4.2622C9.52454 4.28702 9.539 4.31108 9.55496 4.3342C9.70101 4.58052 9.79472 4.7778 9.83444 4.91553C9.97991 5.42 9.95579 5.89841 9.82896 6.2554C9.81927 6.28268 9.8091 6.309 9.79849 6.3344L9.36129 4.82267C9.25842 4.46697 8.89661 4.26499 8.55317 4.37153C8.20972 4.47807 8.0147 4.8528 8.11757 5.2085L8.5546 6.71964C8.53236 6.70453 8.51001 6.6884 8.48756 6.67122C8.1924 6.4454 7.91854 6.05975 7.7724 5.55523C7.71322 5.35119 7.68361 4.96952 7.69748 4.44249C7.71079 3.93641 7.76137 3.36382 7.82457 2.8184C7.85162 2.585 7.88075 2.35843 7.90985 2.14647C8.04667 2.3069 8.19128 2.4795 8.33777 2.65901C8.68015 3.07855 9.0264 3.528 9.30623 3.94319C9.3825 4.05636 9.451 4.1629 9.51162 4.2622ZM11.0975 3.27212C11.3072 3.08493 11.5784 2.98861 11.8548 3.00319C12.1313 3.01777 12.3916 3.14212 12.5818 3.3504C12.5978 3.36788 12.6132 3.38585 12.6279 3.40426L11.0464 3.32086C11.0629 3.30409 11.0799 3.28784 11.0975 3.27212ZM18.2529 5.22094C18.3965 5.20996 18.5408 5.22851 18.6775 5.27551C18.8131 5.32215 18.9386 5.39592 19.0468 5.49261C19.2691 5.69757 19.4055 5.9842 19.4271 6.2917C19.4314 6.35241 19.4311 6.41298 19.4264 6.47292L18.0778 5.24925C18.1352 5.23495 18.1937 5.22546 18.2529 5.22094ZM4.14003 14.6922C2.47424 12.9669 1.47678 10.6789 1.32022 8.25956H20.68C20.5234 10.6789 19.5259 12.9669 17.8602 14.6922C16.0408 16.5766 13.5731 17.6352 11.0001 17.6352C8.42707 17.6352 5.95943 16.5766 4.14003 14.6922Z" fill="black"/>
</svg>
