<svg width="840" height="339" viewBox="0 0 840 339" fill="none" xmlns="http://www.w3.org/2000/svg">
<path d="M436.373 370.479C438.76 368.783 441.416 367.429 444.302 366.483C441.616 368.94 439.906 372.307 439.493 375.957C442.02 373.661 444.918 371.822 448.061 370.522C450.73 372.467 453.954 373.468 457.234 373.369C460.514 373.269 463.666 372.074 466.2 369.97C468.734 367.866 470.509 364.971 471.249 361.733C471.989 358.495 471.653 355.097 470.292 352.065C476.158 351.208 482.141 351.611 487.853 353.249C493.564 354.886 498.876 357.721 503.445 361.57C504.267 359.127 504.488 356.439 503.955 353.73C503.476 351.29 502.412 349.006 500.855 347.079C499.299 345.153 497.299 343.644 495.032 342.686C497.366 342.301 499.76 342.486 502.013 343.227L501.975 343.036C501.302 339.615 499.483 336.531 496.827 334.307C494.17 332.083 490.84 330.856 487.4 330.835C489.436 329.817 491.674 329.282 493.947 329.271C492.435 326.512 490.112 324.299 487.302 322.94C484.493 321.581 481.338 321.146 478.278 321.694C482.642 316.547 488.593 313.044 495.172 311.748C496.338 311.517 497.515 311.355 498.7 311.263C491.166 308.234 482.939 307.466 475.003 309.05C448.132 314.384 437.882 339.874 441.733 359.452C441.858 360.088 442 360.728 442.154 361.358C439.709 364.021 437.753 367.106 436.378 370.468L436.373 370.479Z" fill="#F25411"/>
<path d="M367.707 118.193C369.429 115.994 370.768 113.603 371.727 111.09L371.729 111.1C372.389 114.362 372.465 117.711 371.953 120.99C372.39 121.391 372.824 121.804 373.243 122.224C386.136 135.142 391.275 159.783 373.48 177.611C368.229 182.884 361.56 186.516 354.271 188.073C355.128 187.396 355.944 186.669 356.716 185.896C361.078 181.538 363.838 175.824 364.551 169.673C362.496 171.657 359.866 172.943 357.031 173.35C354.196 173.756 351.298 173.263 348.741 171.94C350.47 170.766 351.907 169.212 352.943 167.395C350.307 169.142 347.141 169.915 343.983 169.585C340.825 169.255 337.869 167.841 335.616 165.584L335.49 165.458C337.586 164.867 339.507 163.781 341.092 162.292C338.876 162.725 336.582 162.602 334.415 161.934C332.247 161.267 330.273 160.075 328.668 158.465C326.883 156.677 325.685 154.519 325.071 152.239C330.514 152.826 336.01 152.26 341.201 150.578C346.392 148.897 351.163 146.137 355.204 142.479C352.624 140.87 350.64 138.457 349.558 135.615C348.477 132.773 348.359 129.661 349.223 126.762C350.087 123.863 351.885 121.34 354.337 119.583C356.79 117.826 359.759 116.935 362.785 117.047C364.523 114.447 365.799 111.564 366.56 108.522C368.101 111.51 368.508 114.947 367.707 118.193Z" fill="#F25411"/>
<path d="M489.961 108.144C492.85 108.603 495.691 109.496 498.412 110.841C494.778 110.717 491.207 111.928 488.365 114.249C491.772 114.378 495.124 115.093 498.276 116.365C498.823 119.627 500.426 122.603 502.837 124.83C505.249 127.057 508.332 128.411 511.61 128.682C514.888 128.952 518.177 128.124 520.966 126.326C523.754 124.529 525.887 121.861 527.032 118.739C531.819 122.236 535.808 126.717 538.743 131.891C541.677 137.065 543.49 142.816 544.065 148.771C546.358 147.6 548.392 145.832 549.903 143.52C551.264 141.439 552.099 139.059 552.333 136.589C552.566 134.12 552.192 131.639 551.242 129.366C553.178 130.726 554.757 132.535 555.848 134.644L555.955 134.482C557.863 131.562 558.717 128.081 558.373 124.628C558.029 121.175 556.508 117.964 554.067 115.538C556.231 116.236 558.203 117.423 559.833 119.007C560.68 115.974 560.566 112.762 559.509 109.821C558.451 106.881 556.503 104.358 553.936 102.606C560.645 101.982 567.338 103.646 572.941 107.329C573.934 107.98 574.888 108.689 575.798 109.454C572.534 102.008 567.197 95.6928 560.425 91.2651C537.517 76.2509 512.404 87.3051 501.486 104.011C501.131 104.554 500.786 105.111 500.456 105.669C496.851 105.861 493.301 106.698 489.972 108.14L489.961 108.144Z" fill="#F25411"/>
<path d="M437.095 42.7202C439.601 42.7188 440.124 43.9915 439.599 45.7206H439.596C438.544 50.4803 428.448 64.5003 428.448 64.5003C427.571 65.8846 427.221 66.5782 428.446 68.1322C428.879 68.7297 429.802 69.6208 430.857 70.64L430.858 70.6408C431.943 71.6892 433.168 72.873 434.146 74.0123C437.697 77.9589 440.374 81.2853 441.123 83.5774C441.803 85.8821 440.617 87.048 438.253 87.0493L429.978 87.0539C427.759 87.0551 426.643 85.8306 424.232 83.183C423.21 82.0618 421.956 80.6852 420.288 79.0386C415.379 74.3708 413.277 73.7641 412.047 73.7647C410.38 73.7656 409.881 74.2314 409.88 76.565L409.876 83.8889C409.875 85.8996 409.225 87.0652 403.963 87.0681C395.19 87.0729 385.562 81.825 378.727 72.1396C368.473 57.9565 365.673 47.2302 365.674 45.0707C365.675 43.858 366.149 42.759 368.513 42.7577L376.794 42.7531C378.91 42.752 379.704 43.6635 380.487 45.927C384.532 57.5582 391.352 67.7219 394.157 67.7203C395.21 67.7198 395.693 67.2413 395.694 64.6037L395.701 52.5777C395.514 49.1553 394.302 47.6754 393.405 46.5794C392.851 45.903 392.417 45.3728 392.417 44.6223C392.418 43.7072 393.209 42.7442 394.524 42.7434L407.537 42.7364C409.29 42.7354 409.87 43.6597 409.868 45.7368L409.86 61.914C409.859 63.6461 410.65 64.2504 411.176 64.2501C412.229 64.2495 413.106 63.6443 415.036 61.7371C421.001 55.1603 425.215 45.0381 425.215 45.0381C425.742 43.8251 426.714 42.7259 428.82 42.7247L437.095 42.7202Z" fill="#F25411"/>
<path d="M440.476 244.461C442.646 245.715 442.463 247.079 441.147 248.315L441.144 248.314C437.858 251.911 422.123 259.003 422.123 259.003C420.674 259.763 420.024 260.189 420.309 262.149C420.386 262.884 420.74 264.119 421.144 265.53L421.144 265.531C421.56 266.983 422.03 268.623 422.308 270.1C423.411 275.299 424.069 279.523 423.573 281.884C423.011 284.222 421.403 284.638 419.356 283.455L412.192 279.313C410.27 278.203 409.916 276.583 409.15 273.081C408.826 271.597 408.428 269.777 407.806 267.514C405.886 261.01 404.37 259.431 403.305 258.815C401.862 257.981 401.198 258.135 400.032 260.156L396.374 266.501C395.369 268.243 394.225 268.927 389.67 266.294C382.074 261.903 376.36 252.533 375.278 240.715C373.482 223.288 376.412 212.59 377.49 210.72C378.096 209.669 379.055 208.954 381.101 210.137L388.271 214.282C390.103 215.34 390.335 216.528 389.883 218.882C387.579 230.988 388.409 243.211 390.838 244.615C391.75 245.142 392.406 244.97 393.724 242.685L399.731 232.267C401.277 229.207 400.967 227.318 400.737 225.918C400.596 225.055 400.485 224.378 400.859 223.728C401.317 222.935 402.482 222.497 403.62 223.155L414.887 229.668C416.404 230.545 416.445 231.636 415.407 233.436L407.326 247.45C406.461 248.95 406.844 249.87 407.3 250.134C408.211 250.661 409.272 250.576 411.894 249.89C420.339 247.179 429.038 240.518 429.038 240.518C430.099 239.731 431.489 239.265 433.312 240.319L440.476 244.461Z" fill="#F25411"/>
<path d="M486.271 281.97C483.85 282.621 483.016 281.528 483.076 279.722L483.079 279.721C482.866 274.852 488.999 258.696 488.999 258.696C489.489 257.132 489.648 256.371 488.063 255.188C487.49 254.724 486.368 254.102 485.086 253.392C483.766 252.661 482.275 251.835 481.037 250.988C476.586 248.098 473.14 245.58 471.824 243.561C470.572 241.512 471.417 240.078 473.701 239.464L481.695 237.314C483.839 236.737 485.233 237.63 488.247 239.562C489.523 240.38 491.09 241.384 493.128 242.541C499.077 245.776 501.265 245.816 502.452 245.497C504.064 245.064 504.425 244.485 503.823 242.231L501.935 235.157C501.417 233.216 501.744 231.922 506.826 230.554C515.302 228.275 525.96 230.846 535.067 238.426C548.638 249.463 554.114 259.095 554.671 261.18C554.983 262.351 554.81 263.535 552.526 264.15L544.525 266.302C542.482 266.851 541.479 266.177 540.137 264.194C533.225 254.012 524.01 245.966 521.299 246.695C520.282 246.968 519.94 247.555 520.62 250.103L523.72 261.717C524.785 264.973 526.338 266.088 527.488 266.914C528.198 267.424 528.754 267.823 528.948 268.548C529.184 269.432 528.667 270.567 527.397 270.908L514.826 274.29C513.132 274.745 512.334 274.003 511.798 271.997L507.628 256.373C507.181 254.7 506.261 254.322 505.752 254.459C504.735 254.732 504.044 255.544 502.672 257.886C498.607 265.784 497.151 276.651 497.151 276.651C496.955 277.959 496.3 279.272 494.266 279.82L486.271 281.97Z" fill="#F25411"/>
<path d="M498.55 19.0485L473.138 44.5079L483.367 54.7555L508.778 29.2961L518.818 39.3557L528.424 30.6467L517.927 20.1295L524.608 13.4362C527.13 10.9088 529.209 9.9458 532.696 13.4395C535.918 16.6674 538.843 19.6528 538.843 19.6528L547.615 11.3213C547.615 11.3213 545.075 8.06506 541.16 4.14249C531.49 -5.54556 521.654 -4.1001 515.514 2.0524L507.699 9.88187L500.595 2.76407L491.445 11.9307L498.55 19.0485Z" fill="#F25411"/>
<path d="M447.292 175.534L456.569 210.288L470.551 206.528L461.274 171.774L474.999 168.082L472.283 155.401L457.933 159.261L455.494 150.124C454.574 146.674 454.782 144.389 459.549 143.107C463.953 141.923 467.999 140.874 467.999 140.874L465.192 129.105C465.192 129.105 461.105 129.684 455.753 131.124C442.535 134.679 438.857 143.935 441.099 152.333L443.952 163.021L434.24 165.633L437.581 178.146L447.292 175.534Z" fill="#F25411"/>
<path d="M347.507 308.286L312.808 317.619L316.546 331.623L351.245 322.29L354.915 336.038L367.575 333.303L363.738 318.93L372.86 316.477C376.305 315.55 378.585 315.757 379.859 320.531C381.037 324.943 382.078 328.995 382.078 328.995L393.828 326.169C393.828 326.169 393.255 322.075 391.824 316.715C388.29 303.475 379.056 299.801 370.671 302.056L360 304.926L357.403 295.199L344.91 298.559L347.507 308.286Z" fill="#F25411"/>
<path d="M337.374 12.3L362.785 -13.1594L352.557 -23.4071L327.146 2.05237L317.105 -8.00723L307.499 0.701782L317.996 11.219L311.316 17.9123C308.793 20.4397 306.715 21.4027 303.227 17.909C300.006 14.681 297.08 11.6957 297.08 11.6957L288.308 20.0272C288.308 20.0272 290.848 23.2834 294.763 27.206C304.433 36.894 314.269 35.4486 320.41 29.2961L328.225 21.4666L335.329 28.5844L344.478 19.4178L337.374 12.3Z" fill="#F25411"/>
<path d="M217.629 359.255C219.495 356.998 221.71 355.004 224.253 353.343C222.294 356.411 221.515 360.106 222.06 363.738C223.906 360.866 226.23 358.341 228.929 356.271C232.011 357.46 235.384 357.592 238.527 356.647C241.669 355.701 244.404 353.732 246.307 351.044C248.21 348.356 249.175 345.099 249.052 341.78C248.929 338.461 247.724 335.266 245.626 332.689C251.07 330.343 256.954 329.184 262.894 329.287C268.835 329.391 274.7 330.755 280.109 333.29C280.271 330.717 279.789 328.064 278.572 325.585C277.479 323.352 275.859 321.421 273.857 319.963C271.855 318.505 269.532 317.565 267.095 317.227C269.25 316.25 271.61 315.81 273.978 315.943L273.892 315.768C272.357 312.637 269.802 310.129 266.66 308.668C263.518 307.208 259.984 306.885 256.656 307.754C258.359 306.244 260.383 305.148 262.575 304.549C260.401 302.276 257.584 300.739 254.518 300.154C251.453 299.569 248.292 299.965 245.479 301.286C248.362 295.185 253.203 290.262 259.223 287.307C260.289 286.782 261.385 286.32 262.505 285.925C254.444 284.949 246.299 286.336 239.043 289.921C214.468 302.028 211.165 329.302 219.952 347.216C220.237 347.798 220.54 348.379 220.851 348.948C219.179 352.153 218.088 355.64 217.63 359.243L217.629 359.255Z" fill="#F25411"/>
<path d="M86.0059 133.337C87.0995 130.767 87.774 128.112 88.0497 125.436L88.0544 125.445C89.5364 128.425 90.4764 131.64 90.8306 134.94C91.3571 135.214 91.8828 135.501 92.3959 135.798C108.193 144.939 119.534 167.41 106.96 189.237C103.253 195.689 97.7512 200.923 91.1132 204.313C91.7661 203.438 92.3665 202.524 92.9115 201.578C95.9975 196.239 97.1844 190.006 96.2813 183.879C94.8093 186.329 92.6023 188.251 89.9692 189.378C87.3361 190.504 84.4088 190.778 81.5969 190.161C82.9631 188.58 83.9484 186.708 84.4787 184.684C82.3848 187.053 79.5275 188.62 76.3914 189.118C73.2554 189.617 70.0338 189.016 67.2734 187.419L67.1194 187.33C68.9913 186.216 70.5656 184.671 71.7113 182.822C69.6824 183.814 67.4351 184.289 65.1687 184.205C62.9024 184.121 60.6872 183.481 58.7196 182.341C56.5332 181.076 54.8177 179.302 53.634 177.259C59.0435 176.416 64.2054 174.447 68.7845 171.479C73.3638 168.512 77.2579 164.611 80.2144 160.032C77.3061 159.145 74.7646 157.328 72.9844 154.863C71.2042 152.398 70.285 149.423 70.3694 146.399C70.4538 143.375 71.5372 140.472 73.4512 138.14C75.3653 135.809 78.0031 134.179 80.9549 133.504C81.9601 130.543 82.4473 127.427 82.3951 124.293C84.656 126.78 85.9395 129.994 86.0059 133.337Z" fill="#F25411"/>
<path d="M201.493 91.9891C204.402 91.6847 207.377 91.812 210.354 92.4073C206.812 93.2273 203.676 95.3216 201.532 98.2995C204.855 97.5415 208.279 97.3651 211.653 97.778C213.025 100.787 215.344 103.247 218.249 104.774C221.155 106.301 224.484 106.811 227.72 106.223C230.957 105.636 233.919 103.986 236.147 101.527C238.375 99.0689 239.745 95.9406 240.043 92.628C245.572 94.7675 250.585 98.0634 254.759 102.302C258.932 106.54 262.172 111.626 264.268 117.229C266.18 115.504 267.687 113.27 268.548 110.645C269.325 108.283 269.515 105.768 269.102 103.322C268.688 100.877 267.684 98.577 266.179 96.6268C268.4 97.4394 270.394 98.7788 271.994 100.534L272.055 100.349C273.142 97.0352 273.067 93.4512 271.841 90.2051C270.615 86.9589 268.314 84.2504 265.329 82.5392C267.599 82.6537 269.811 83.2892 271.796 84.3977C271.829 81.2489 270.888 78.1759 269.105 75.6089C267.323 73.0419 264.788 71.1095 261.855 70.0821C268.173 67.7427 275.07 67.617 281.434 69.7253C282.562 70.0968 283.668 70.5351 284.744 71.038C279.664 64.6901 272.874 59.9719 265.187 57.4479C239.174 48.8743 217.778 66.0514 211.556 85.0139C211.354 85.6299 211.165 86.2572 210.99 86.8822C207.557 88.0005 204.345 89.7274 201.503 91.9818L201.493 91.9891Z" fill="#F25411"/>
<path d="M133.495 42.4772C135.916 41.8273 136.75 42.9213 136.691 44.7271L136.688 44.728C136.903 49.5979 130.78 65.7531 130.78 65.7531C130.292 67.3172 130.133 68.0778 131.719 69.2617C132.292 69.7268 133.413 70.3488 134.696 71.0602C136.016 71.7921 137.506 72.6187 138.746 73.4663C143.197 76.3594 146.644 78.8795 147.961 80.8995C149.214 82.9499 148.37 84.383 146.087 84.9962L138.095 87.1423C135.952 87.7178 134.558 86.8237 131.543 84.8905C130.266 84.0718 128.699 83.0668 126.661 81.9081C120.711 78.6699 118.523 78.6279 117.336 78.9467C115.726 79.3792 115.365 79.958 115.967 82.2125L117.859 89.2879C118.379 91.2303 118.052 92.5245 112.971 93.889C104.498 96.1644 93.8397 93.5872 84.7302 86.0009C71.1553 74.9549 65.6747 65.3188 65.1169 63.2326C64.8036 62.061 64.9765 60.8769 67.2599 60.2637L75.2581 58.1159C77.3011 57.5673 78.3038 58.2423 79.6467 60.2259C86.5638 70.4139 95.7816 78.4662 98.4912 77.7386C99.5081 77.4655 99.8505 76.8785 99.1692 74.3304L96.0629 62.7124C94.9963 59.4551 93.443 58.3392 92.2926 57.5128C91.5825 57.0028 91.026 56.603 90.8322 55.878C90.5958 54.9939 91.1113 53.8588 92.3809 53.5179L104.949 50.1429C106.642 49.6883 107.441 50.4311 107.977 52.4378L112.156 68.066C112.603 69.7393 113.524 70.1183 114.032 69.9818C115.049 69.7087 115.739 68.8972 117.11 66.5553C121.17 58.6588 122.62 47.7909 122.62 47.7909C122.815 46.4828 123.469 45.1695 125.503 44.6234L133.495 42.4772Z" fill="#F25411"/>
<path d="M188.976 236.468C191.396 237.118 191.573 238.484 190.621 240.018L190.618 240.017C188.375 244.343 175.012 255.265 175.012 255.265C173.808 256.375 173.291 256.954 174.074 258.774C174.338 259.463 174.998 260.563 175.753 261.82L175.755 261.822L175.755 261.824C176.533 263.119 177.412 264.581 178.062 265.937C180.474 270.673 182.202 274.582 182.334 276.992C182.397 279.395 180.951 280.214 178.667 279.6L170.675 277.454C168.532 276.879 167.771 275.406 166.125 272.221C165.427 270.872 164.572 269.216 163.385 267.192C159.848 261.406 157.974 260.273 156.787 259.955C155.176 259.522 154.575 259.842 153.972 262.097L152.08 269.172C151.561 271.115 150.633 272.072 145.551 270.708C137.078 268.432 129.134 260.86 125.03 249.725C118.784 233.357 118.846 222.265 119.403 220.179C119.717 219.007 120.457 218.069 122.741 218.682L130.739 220.83C132.782 221.378 133.313 222.465 133.487 224.856C134.394 237.145 138.36 248.738 141.069 249.465C142.086 249.738 142.675 249.401 143.357 246.853L146.463 235.235C147.164 231.88 146.376 230.135 145.792 228.843C145.431 228.046 145.149 227.42 145.343 226.695C145.579 225.811 146.592 225.087 147.862 225.428L160.43 228.803C162.122 229.257 162.444 230.301 161.907 232.308L157.729 247.936C157.281 249.609 157.889 250.398 158.398 250.535C159.415 250.808 160.417 250.451 162.773 249.11C170.228 244.306 176.907 235.621 176.907 235.621C177.728 234.586 178.95 233.776 180.984 234.322L188.976 236.468Z" fill="#F25411"/>
<path d="M242.918 260.847C240.748 262.103 239.66 261.262 239.25 259.503L239.253 259.501C237.787 254.853 239.529 237.66 239.529 237.66C239.598 236.022 239.555 235.246 237.717 234.514C237.044 234.214 235.799 233.904 234.377 233.549C232.913 233.185 231.26 232.773 229.844 232.276C224.797 230.636 220.816 229.096 219.022 227.486C217.283 225.831 217.728 224.227 219.775 223.043L226.94 218.897C228.862 217.785 230.439 218.287 233.851 219.372C235.295 219.832 237.069 220.396 239.336 220.987C245.92 222.572 248.044 222.045 249.108 221.429C250.552 220.593 250.751 219.94 249.587 217.919L245.932 211.576C244.929 209.834 244.91 208.499 249.466 205.863C257.063 201.468 268.023 201.192 278.781 206.157C294.747 213.306 302.529 221.192 303.607 223.062C304.212 224.113 304.35 225.301 302.303 226.486L295.132 230.635C293.301 231.695 292.158 231.303 290.348 229.736C281.036 221.689 270.053 216.302 267.623 217.708C266.711 218.235 266.532 218.891 267.848 221.175L273.849 231.592C275.721 234.461 277.509 235.136 278.834 235.636C279.652 235.945 280.292 236.187 280.667 236.837C281.123 237.629 280.919 238.859 279.78 239.518L268.512 246.038C266.994 246.916 266.031 246.406 264.994 244.607L256.922 230.595C256.058 229.095 255.071 228.967 254.615 229.231C253.703 229.759 253.246 230.722 252.527 233.339C250.645 242.02 252.05 252.893 252.05 252.893C252.2 254.208 251.907 255.646 250.084 256.701L242.918 260.847Z" fill="#F25411"/>
<path d="M186.729 3.70642L168.773 34.8753L181.305 42.1265L199.261 10.9576L211.563 18.0757L218.588 7.17725L205.726 -0.264679L210.447 -8.45898C212.23 -11.5532 213.988 -13.0213 218.261 -10.5492C222.208 -8.26511 225.806 -6.13864 225.806 -6.13864L232.123 -16.4566C232.123 -16.4566 228.827 -18.9445 224.03 -21.7201C212.182 -28.5753 203.056 -24.6334 198.716 -17.1011L193.194 -7.51584L184.49 -12.5524L178.025 -1.33011L186.729 3.70642Z" fill="#F25411"/>
<path d="M177.72 168.127L195.676 199.295L208.208 192.044L190.252 160.875L202.554 153.757L196.648 142.211L183.787 149.653L179.066 141.459C177.284 138.365 176.894 136.104 181.167 133.632C185.114 131.348 188.751 129.288 188.751 129.288L182.993 118.647C182.993 118.647 179.195 120.264 174.398 123.039C162.55 129.895 161.393 139.787 165.733 147.319L171.255 156.904L162.55 161.941L169.015 173.163L177.72 168.127Z" fill="#F25411"/>
<path d="M115.693 322.182L84.5925 340.177L91.8279 352.736L122.929 334.741L130.031 347.07L141.552 341.152L134.127 328.262L142.303 323.531C145.39 321.744 147.646 321.354 150.113 325.636C152.392 329.592 154.447 333.237 154.447 333.237L165.065 327.466C165.065 327.466 163.452 323.66 160.682 318.853C153.842 306.979 143.971 305.82 136.456 310.168L126.891 315.702L121.866 306.979L110.668 313.458L115.693 322.182Z" fill="#F25411"/>
<path d="M45.3939 16.3736L63.3499 -14.7953L50.8179 -22.0465L32.8618 9.12238L20.5598 2.00424L13.5351 12.9027L26.3967 20.3447L21.6761 28.539C19.8936 31.6332 18.1351 33.1013 13.8626 30.6292C9.91504 28.3451 6.31677 26.2186 6.31677 26.2186L0 36.5366C0 36.5366 3.29626 39.0244 8.0932 41.8C19.941 48.6553 29.0676 44.7133 33.4068 37.1811L38.9288 27.5958L47.6332 32.6324L54.0983 21.4101L45.3939 16.3736Z" fill="#F25411"/>
<path d="M591.168 337.872L585.588 302.337L575.656 303.915L573.648 291.121L583.579 289.542L581.864 278.614C580.516 270.026 585.144 261.208 598.662 259.059C604.136 258.189 608.261 258.042 608.261 258.042L609.818 270.041C609.818 270.041 605.684 270.659 601.18 271.375C596.305 272.15 595.858 274.399 596.412 277.927L597.879 287.269L612.554 284.937L613.924 297.833L599.887 300.064L605.467 335.6L591.168 337.872Z" fill="#F25411"/>
<path d="M673.774 266.507C676.326 265.07 679.109 264.003 682.079 263.364C679.149 265.526 677.096 268.695 676.302 272.281C679.056 270.263 682.131 268.739 685.393 267.775C687.843 269.99 690.945 271.324 694.217 271.569C697.489 271.814 700.749 270.957 703.489 269.13C706.23 267.304 708.299 264.61 709.375 261.468C710.45 258.326 710.473 254.911 709.438 251.753C715.362 251.516 721.269 252.545 726.777 254.773C732.285 257 737.271 260.377 741.41 264.684C742.484 262.341 742.986 259.691 742.74 256.941C742.52 254.465 741.701 252.081 740.355 250.002C739.01 247.923 737.179 246.212 735.025 245.022C737.387 244.883 739.748 245.319 741.911 246.292L741.893 246.099C741.583 242.626 740.098 239.367 737.69 236.877C735.281 234.387 732.097 232.817 728.679 232.435C730.81 231.636 733.093 231.339 735.354 231.567C734.14 228.665 732.062 226.22 729.41 224.574C726.759 222.928 723.667 222.164 720.567 222.388C725.447 217.727 731.732 214.868 738.411 214.27C739.594 214.161 740.782 214.124 741.97 214.157C734.796 210.354 726.695 208.727 718.636 209.47C691.354 211.955 678.486 236.229 680.262 256.103C680.319 256.749 680.394 257.399 680.48 258.042C677.769 260.434 675.5 263.297 673.78 266.496L673.774 266.507Z" fill="#F25411"/>
<path d="M631.959 8.40778C633.902 6.40167 635.484 4.1647 636.701 1.76572L636.702 1.77634C637.017 5.08978 636.741 8.42813 635.888 11.635C636.281 12.0797 636.668 12.5363 637.041 12.9977C648.508 27.197 651.032 52.241 631.465 68.1039C625.69 72.7964 618.677 75.7086 611.264 76.4921C612.188 75.909 613.076 75.2718 613.924 74.5837C618.72 70.7077 622.064 65.3148 623.419 59.2724C621.166 61.0305 618.416 62.0333 615.554 62.1401C612.693 62.247 609.862 61.4526 607.458 59.8683C609.301 58.8826 610.892 57.4879 612.113 55.7893C609.309 57.2496 606.08 57.687 602.973 57.0272C599.867 56.3675 597.076 54.6514 595.072 52.1699L594.96 52.0315C597.107 51.6636 599.131 50.7856 600.864 49.4707C598.614 49.6688 596.346 49.3061 594.26 48.4147C592.175 47.5234 590.337 46.131 588.909 44.361C587.322 42.3958 586.357 40.1248 585.985 37.7928C591.337 38.9471 596.862 38.9608 602.201 37.8334C607.54 36.7059 612.574 34.4623 616.976 31.2483C614.58 29.3774 612.859 26.7697 612.082 23.83C611.305 20.8903 611.514 17.783 612.678 14.9907C613.841 12.1984 615.894 9.8772 618.517 8.38751C621.14 6.8978 624.187 6.32297 627.184 6.75223C629.185 4.34863 630.757 1.61514 631.833 -1.32938C633.051 1.80289 633.096 5.26389 631.959 8.40778Z" fill="#F25411"/>
<path d="M754.593 11.2426C757.417 12.0019 760.148 13.1881 762.713 14.8117C759.113 14.3064 755.435 15.1364 752.365 17.1467C755.739 17.6315 758.998 18.6949 761.999 20.2907C762.2 23.5922 763.483 26.7196 765.647 29.1874C767.811 31.6552 770.736 33.3252 773.967 33.9382C777.199 34.5512 780.556 34.0729 783.518 32.5776C786.48 31.0823 788.88 28.6535 790.347 25.6685C794.74 29.6489 798.238 34.524 800.613 39.9773C802.988 45.4305 804.188 51.3401 804.135 57.3226C806.538 56.3979 808.746 54.8531 810.491 52.7122C812.063 50.786 813.143 48.5062 813.635 46.0753C814.126 43.6444 814.014 41.1375 813.308 38.777C815.091 40.3324 816.471 42.2979 817.335 44.5099L817.458 44.3591C819.662 41.6563 820.877 38.2838 820.897 34.8139C820.918 31.3441 819.742 27.9905 817.569 25.3222C819.647 26.2437 821.484 27.6302 822.939 29.3771C824.099 26.4496 824.323 23.2436 823.58 20.208C822.837 17.1725 821.164 14.4592 818.795 12.4482C825.532 12.5311 832.015 14.8878 837.199 19.139C838.119 19.8905 838.993 20.696 839.818 21.5516C837.353 13.804 832.708 6.96405 826.438 1.85022C805.232 -15.4848 779.098 -7.1265 766.487 8.34146C766.078 8.84399 765.676 9.36169 765.289 9.88242C761.684 9.69501 758.066 10.1544 754.604 11.2391L754.593 11.2426Z" fill="#F25411"/>
<path d="M708.883 -59.3674C711.375 -59.1058 711.761 -57.7854 711.059 -56.1208L711.055 -56.1211C709.509 -51.4981 697.999 -38.6147 697.999 -38.6147C696.981 -37.3302 696.56 -36.6772 697.615 -35.0031C697.984 -34.3635 698.807 -33.3805 699.75 -32.2563C700.719 -31.0996 701.814 -29.7933 702.667 -28.5575C705.784 -24.2601 708.098 -20.6711 708.602 -18.3131C709.036 -15.9497 707.734 -14.9147 705.383 -15.1615L697.153 -16.0253C694.946 -16.2569 693.965 -17.5917 691.845 -20.4777C690.947 -21.6999 689.844 -23.2003 688.358 -25.0129C683.966 -30.17 681.939 -30.9941 680.716 -31.1224C679.057 -31.2965 678.513 -30.8857 678.267 -28.565L677.494 -21.282C677.282 -19.2825 676.514 -18.1915 671.281 -18.7407C662.556 -19.6565 653.531 -25.8856 647.75 -36.2349C639.041 -51.4156 637.382 -62.3764 637.61 -64.5239C637.738 -65.7298 638.324 -66.773 640.675 -66.5263L648.912 -65.6618C651.016 -65.441 651.709 -64.4512 652.251 -62.118C655.053 -50.1266 660.769 -39.3035 663.559 -39.0106C664.606 -38.9007 665.136 -39.3258 665.414 -41.9488L666.683 -53.9077C666.856 -57.3308 665.806 -58.9297 665.029 -60.1138C664.549 -60.8446 664.173 -61.4174 664.252 -62.1637C664.349 -63.0737 665.237 -63.9484 666.544 -63.8112L679.487 -62.4527C681.23 -62.2698 681.709 -61.2898 681.49 -59.2242L679.784 -43.1372C679.601 -41.4149 680.324 -40.7309 680.848 -40.6759C681.895 -40.566 682.831 -41.0759 684.95 -42.7701C691.572 -48.6846 696.825 -58.3087 696.825 -58.3087C697.477 -59.4598 698.558 -60.451 700.653 -60.2312L708.883 -59.3674Z" fill="#F25411"/>
<path d="M691.077 141.614C693.104 143.089 692.779 144.427 691.339 145.518L691.337 145.516C687.691 148.749 671.3 154.151 671.3 154.151C669.778 154.754 669.088 155.11 669.166 157.089C669.165 157.828 669.387 159.093 669.641 160.539L669.641 160.54C669.903 162.028 670.198 163.708 670.319 165.206C670.871 170.492 671.081 174.761 670.341 177.058C669.536 179.324 667.893 179.569 665.982 178.177L659.292 173.307C657.498 172.001 657.315 170.353 656.921 166.79C656.754 165.28 656.549 163.428 656.168 161.112C654.942 154.443 653.599 152.713 652.605 151.989C651.257 151.008 650.581 151.091 649.209 152.98L644.905 158.905C643.724 160.532 642.514 161.093 638.26 157.996C631.167 152.833 626.468 142.914 626.632 131.048C626.674 113.529 630.71 103.198 631.98 101.451C632.692 100.469 633.72 99.8586 635.632 101.25L642.327 106.124C644.037 107.369 644.143 108.575 643.448 110.868C639.886 122.665 639.429 134.909 641.697 136.56C642.548 137.18 643.219 137.077 644.769 134.942L651.837 125.212C653.695 122.332 653.585 120.42 653.503 119.005C653.453 118.131 653.414 117.446 653.855 116.839C654.392 116.098 655.598 115.785 656.661 116.559L667.181 124.218C668.598 125.25 668.524 126.339 667.303 128.02L657.796 141.109C656.779 142.51 657.063 143.465 657.489 143.775C658.34 144.395 659.404 144.421 662.084 144.014C670.766 142.204 680.116 136.493 680.116 136.493C681.254 135.822 682.685 135.504 684.387 136.744L691.077 141.614Z" fill="#F25411"/>
<path d="M732.684 183.721C730.207 184.115 729.493 182.94 729.742 181.151L729.745 181.15C730.044 176.286 737.838 160.862 737.838 160.862C738.49 159.358 738.728 158.618 737.275 157.276C736.754 156.754 735.705 156.018 734.504 155.177C733.268 154.312 731.872 153.334 730.729 152.362C726.606 149.02 723.443 146.155 722.346 144.009C721.316 141.839 722.307 140.503 724.643 140.131L732.818 138.832C735.011 138.483 736.303 139.518 739.098 141.755C740.282 142.702 741.735 143.865 743.64 145.23C749.216 149.071 751.388 149.341 752.603 149.148C754.25 148.886 754.67 148.348 754.308 146.044L753.173 138.811C752.861 136.826 753.322 135.573 758.52 134.747C767.188 133.369 777.518 137.044 785.779 145.538C798.117 157.938 802.552 168.091 802.887 170.224C803.075 171.421 802.778 172.58 800.442 172.952L792.26 174.252C790.17 174.584 789.244 173.809 788.117 171.696C782.311 160.844 773.992 151.876 771.22 152.316C770.18 152.482 769.777 153.03 770.186 155.634L772.051 167.51C772.768 170.86 774.196 172.132 775.253 173.073C775.905 173.655 776.417 174.11 776.533 174.852C776.675 175.755 776.042 176.83 774.744 177.036L761.886 179.08C760.155 179.355 759.438 178.533 759.116 176.482L756.608 160.507C756.339 158.797 755.464 158.324 754.944 158.406C753.903 158.572 753.131 159.307 751.521 161.492C746.65 168.919 744.061 179.574 744.061 179.574C743.729 180.854 742.94 182.091 740.859 182.422L732.684 183.721Z" fill="#F25411"/>
<path d="M772.482 -76.4601L744.54 -53.8076L753.636 -42.5433L781.579 -65.1959L790.508 -54.1382L800.975 -61.7913L791.639 -73.3518L798.985 -79.3072C801.759 -81.556 803.927 -82.2956 807.029 -78.4553C809.894 -74.907 812.49 -71.6313 812.49 -71.6313L822.088 -78.9963C822.088 -78.9963 819.903 -82.5011 816.421 -86.8128C807.822 -97.462 797.888 -97.0566 791.136 -91.5824L782.543 -84.6161L776.224 -92.4401L766.164 -84.2841L772.482 -76.4601Z" fill="#F25411"/>
<path d="M705.088 73.7835L710.667 109.319L724.966 107.047L719.387 71.5108L733.424 69.2797L732.053 56.3836L717.378 58.7162L715.911 49.3738C715.357 45.8461 715.805 43.5965 720.68 42.8217C725.184 42.1058 729.317 41.4878 729.317 41.4878L727.76 29.4891C727.76 29.4891 723.635 29.636 718.162 30.5059C704.643 32.6546 700.015 41.4732 701.363 50.0607L703.079 60.989L693.147 62.5675L695.156 75.3621L705.088 73.7835Z" fill="#F25411"/>
<path d="M591.924 195.332L556.438 200.973L558.686 215.292L594.172 209.652L596.379 223.708L609.256 222.317L606.949 207.621L616.278 206.138C619.801 205.578 622.046 206.023 622.813 210.904C623.521 215.415 624.132 219.554 624.132 219.554L636.113 217.977C636.113 217.977 635.973 213.846 635.112 208.365C632.987 194.827 624.189 190.204 615.614 191.567L604.701 193.302L603.139 183.356L590.362 185.387L591.924 195.332Z" fill="#F25411"/>
<path d="M612.904 -100.083L640.847 -122.736L631.75 -134L603.808 -111.347L594.878 -122.405L584.411 -114.752L593.747 -103.191L586.401 -97.2361C583.627 -94.9873 581.459 -94.2477 578.358 -98.088C575.492 -101.636 572.896 -104.912 572.896 -104.912L563.299 -97.547C563.299 -97.547 565.483 -94.0422 568.965 -89.7305C577.565 -79.0813 587.498 -79.4867 594.251 -84.9609L602.844 -91.9272L609.162 -84.1032L619.222 -92.2592L612.904 -100.083Z" fill="#F25411"/>
</svg>
