<svg width="827" height="339" viewBox="0 0 827 339" fill="none" xmlns="http://www.w3.org/2000/svg">
<path d="M185.945 -80.3754C188.951 -80.6319 191.828 -81.3344 194.522 -82.4301L194.516 -82.4206C192.419 -79.4835 189.824 -76.9471 186.852 -74.9301C186.857 -74.2856 186.848 -73.6351 186.824 -72.9916C186.081 -53.1841 170.356 -30.8779 143.158 -31.8515C135.124 -32.13 127.345 -34.7496 120.752 -39.397C121.918 -39.2154 123.094 -39.1035 124.273 -39.0616C130.93 -38.8133 137.483 -40.8427 142.876 -44.8234C139.793 -44.9911 136.842 -46.1321 134.436 -48.0867C132.029 -50.0412 130.288 -52.7114 129.455 -55.7234C131.655 -55.2159 133.942 -55.2222 136.142 -55.7418C132.822 -56.5472 129.881 -58.4931 127.82 -61.2495C125.759 -64.0059 124.704 -67.403 124.834 -70.8643L124.841 -71.0573C126.851 -69.8269 129.122 -69.1016 131.467 -68.9418C129.494 -70.3848 127.905 -72.3002 126.839 -74.5179C125.774 -76.7356 125.266 -79.1871 125.36 -81.655C125.463 -84.3963 126.289 -86.9443 127.642 -89.119C131.181 -84.3555 135.67 -80.4023 140.818 -77.5159C145.967 -74.6296 151.659 -72.8746 157.527 -72.3649C156.903 -75.6068 157.354 -78.9695 158.808 -81.931C160.262 -84.8925 162.638 -87.2872 165.569 -88.7432C168.499 -90.1992 171.818 -90.6351 175.012 -89.9832C178.206 -89.3313 181.095 -87.628 183.231 -85.1379C186.567 -85.6784 189.789 -86.7945 192.755 -88.4377C191.523 -85.0039 189.103 -82.1382 185.945 -80.3754Z" fill="#FA6425"/>
<path d="M197.845 183.109C199.346 180.898 201.186 178.892 203.352 177.158C201.837 180.114 201.447 183.53 202.254 186.77C203.684 184.003 205.576 181.507 207.849 179.389C210.749 180.188 213.824 180.004 216.596 178.865C219.367 177.726 221.681 175.696 223.178 173.09C224.675 170.484 225.271 167.449 224.874 164.454C224.477 161.46 223.109 158.674 220.982 156.53C225.723 153.915 230.965 152.335 236.368 151.894C241.771 151.453 247.214 152.159 252.343 153.968C252.269 151.623 251.603 149.264 250.285 147.129C249.1 145.205 247.464 143.603 245.521 142.463C243.577 141.323 241.388 140.681 239.146 140.594C241.018 139.515 243.123 138.904 245.285 138.811L245.192 138.66C243.529 135.964 240.993 133.922 238.015 132.883C235.037 131.843 231.799 131.869 228.853 132.956C230.269 131.435 232.012 130.26 233.952 129.52C231.782 127.657 229.092 126.52 226.258 126.266C223.424 126.012 220.589 126.655 218.148 128.105C220.241 122.321 224.214 117.426 229.426 114.208C230.348 113.636 231.303 113.12 232.286 112.661C224.884 112.503 217.607 114.493 211.327 118.393C190.055 131.57 189.401 156.567 198.92 171.998C199.229 172.499 199.554 172.998 199.885 173.485C198.642 176.539 197.952 179.794 197.846 183.098L197.845 183.109Z" fill="#FA6425"/>
<path d="M75.3035 154.445C77.6274 156.367 80.1706 157.879 82.8584 158.981L82.847 158.983C79.2994 159.618 75.6761 159.617 72.1471 158.98C71.7 159.444 71.2394 159.904 70.7727 160.348C56.4048 174.009 29.6031 178.967 10.8803 159.224C5.34279 153.398 1.62317 146.075 0.166504 138.131C0.871536 139.078 1.63207 139.981 2.44418 140.837C7.02022 145.677 13.1125 148.812 19.7411 149.739C17.659 147.46 16.3506 144.577 15.9992 141.492C15.6478 138.407 16.2709 135.276 17.7813 132.537C18.9964 134.441 20.632 136.038 22.5646 137.206C20.7583 134.304 20.0201 130.852 20.4753 127.435C20.9305 124.018 22.551 120.847 25.0619 118.46L25.2019 118.327C25.7759 120.615 26.8898 122.725 28.451 124.482C28.0517 122.067 28.2557 119.583 29.045 117.249C29.8342 114.915 31.1842 112.804 32.9753 111.103C34.9639 109.212 37.3335 107.967 39.8178 107.357C39.0146 113.246 39.4556 119.22 41.1122 124.892C42.7688 130.564 45.6039 135.806 49.4336 140.28C51.2536 137.522 53.924 135.43 57.0304 134.328C60.1367 133.226 63.5052 133.176 66.6127 134.185C69.7203 135.195 72.3931 137.207 74.2162 139.911C76.0393 142.614 76.9106 145.857 76.695 149.136C79.4524 151.085 82.5303 152.541 85.7947 153.443C82.5171 155.038 78.7881 155.395 75.3035 154.445Z" fill="#FA6425"/>
<path d="M117.309 230.825C116.407 232.378 116.622 233.727 119.046 234.298L127.047 236.181C129.084 236.661 130.274 235.82 131.06 234.767C131.06 234.767 137.444 225.942 144.712 220.944C147.013 219.541 147.999 219.155 149.017 219.395C149.526 219.515 150.153 220.28 149.757 221.954L146.057 237.593C145.582 239.601 145.932 240.627 147.627 241.026L160.21 243.988C161.481 244.287 162.467 243.537 162.676 242.652C162.848 241.927 162.549 241.315 162.168 240.535C161.55 239.27 160.716 237.563 161.316 234.211L164.066 222.585C164.669 220.036 165.245 219.683 166.263 219.923C168.976 220.562 173.251 231.944 174.508 244.112C174.749 246.48 175.309 247.542 177.354 248.024L185.362 249.909C187.648 250.447 188.357 249.492 188.634 248.32C189.128 246.232 188.868 235.223 182.191 219.171C177.791 208.247 169.68 200.976 161.197 198.979C156.109 197.782 155.214 198.76 154.755 200.704L153.08 207.784C152.546 210.04 151.958 210.377 150.345 209.997C149.157 209.717 147.262 208.651 143.581 203.018C142.344 201.045 141.446 199.428 140.714 198.111C138.986 195.001 138.187 193.563 136.042 193.058L128.04 191.174C125.754 190.636 124.341 191.493 124.472 193.876C124.673 196.263 126.503 200.09 129.036 204.716C129.721 206.041 130.636 207.465 131.446 208.726C132.234 209.953 132.923 211.025 133.205 211.701C134.035 213.484 133.538 214.074 132.375 215.212C132.375 215.212 119.415 226.464 117.312 230.826L117.309 230.825Z" fill="#FA6425"/>
<path d="M162.035 34.5946C160.48 35.489 159.992 36.7667 161.804 38.4744L167.786 44.1132C169.308 45.5481 170.758 45.4147 171.964 44.8959C171.964 44.8959 181.893 40.4408 190.677 39.7462C193.369 39.6815 194.414 39.8411 195.175 40.5585C195.556 40.9173 195.716 41.8941 194.537 43.1474L183.527 54.8533C182.113 56.3564 181.903 57.4207 183.17 58.615L192.577 67.4824C193.527 68.3782 194.754 68.2208 195.377 67.5586C195.888 67.0156 195.935 66.3357 195.995 65.4684C196.092 64.0631 196.223 62.1656 198.416 59.5603L206.601 50.8581C208.396 48.9495 209.07 48.9322 209.831 49.6497C211.86 51.5615 209.873 63.5693 204.884 74.7476C203.91 76.9208 203.864 78.1219 205.393 79.5633L211.379 85.2064C213.088 86.8175 214.178 86.3446 215.003 85.4671C216.473 83.9044 221.746 74.2299 223.986 56.9708C225.636 45.2982 222.249 34.9346 215.907 28.9564C212.104 25.3712 210.841 25.7719 209.473 27.2268L204.488 32.5265C202.9 34.2151 202.223 34.2125 201.018 33.0762C200.129 32.2384 199.023 30.3657 198.651 23.6394C198.566 21.3096 198.596 19.4583 198.621 17.9503C198.68 14.3894 198.707 12.7423 197.103 11.2303L191.121 5.59149C189.412 3.98042 187.762 4.01589 186.685 6.1479C185.667 8.31802 185.339 12.552 185.22 17.8301C185.151 19.3217 185.231 21.0148 185.302 22.514C185.371 23.9709 185.432 25.2453 185.338 25.9731C185.166 27.9337 184.441 28.1971 182.866 28.6012C182.866 28.6012 166.035 31.8683 162.037 34.5967L162.035 34.5946Z" fill="#FA6425"/>
<path d="M128.661 -5.33729C129.131 -7.06945 128.575 -8.31676 126.085 -8.23953L117.865 -7.9846C115.773 -7.91972 114.841 -6.7992 114.353 -5.57924C114.353 -5.57924 110.465 4.59523 104.733 11.3036C102.872 13.2551 102.019 13.8824 100.973 13.9149C100.45 13.9311 99.6468 13.3552 99.5968 11.636L99.1291 -4.42126C99.069 -6.48302 98.4661 -7.38287 96.7251 -7.32887L83.7986 -6.92788C82.4928 -6.88737 81.7347 -5.90759 81.7611 -4.99929C81.7828 -4.2544 82.2296 -3.74127 82.7997 -3.0866C83.7233 -2.02592 84.9705 -0.593643 85.2572 2.79761L85.6049 14.7345C85.6811 17.3525 85.2159 17.842 84.17 17.8744C81.383 17.9609 74.3096 8.0792 69.9494 -3.34312C69.1042 -5.56612 68.2887 -6.44683 66.1876 -6.38165L57.9614 -6.12648C55.6128 -6.05362 55.1749 -4.94845 55.21 -3.7447C55.2724 -1.60123 58.3695 8.96056 68.9724 22.7279C76.0477 32.1345 85.766 37.0519 94.4807 36.7815C99.707 36.6194 100.318 35.4428 100.26 33.4471L100.048 26.1775C99.981 23.8611 100.462 23.3838 102.119 23.3324C103.34 23.2945 105.446 23.8331 110.46 28.3176C112.166 29.9013 113.451 31.2294 114.499 32.3113C116.972 34.8662 118.117 36.0484 120.321 35.98L128.541 35.725C130.89 35.6522 132.033 34.4591 131.29 32.192C130.479 29.9396 127.721 26.719 124.078 22.9092C123.073 21.8078 121.82 20.6696 120.711 19.6617C119.633 18.6821 118.691 17.8253 118.243 17.2454C116.98 15.74 117.307 15.0409 118.138 13.6404C118.138 13.6404 127.753 -0.581017 128.658 -5.33719L128.661 -5.33729Z" fill="#FA6425"/>
<path d="M84.6049 224.346L54.2274 243.164L59.4722 251.666L48.5349 258.442L43.29 249.939L33.9481 255.726C26.6071 260.273 16.7675 259.427 9.62873 247.854C6.73835 243.168 5.02542 239.44 5.02542 239.44L15.4075 233.386C15.4075 233.386 17.5547 236.94 19.9333 240.796C22.5076 244.969 24.737 244.513 27.7526 242.645L35.7389 237.697L27.9891 225.134L39.2637 218.905L46.6762 230.922L77.0537 212.104L84.6049 224.346Z" fill="#FA6425"/>
<path d="M138.448 67.8419L139.488 103.56L149.474 103.251L149.848 116.111L139.863 116.421L140.183 127.405C140.434 136.037 134.767 144.147 121.176 144.568C115.673 144.739 111.589 144.366 111.589 144.366L111.56 132.347C111.56 132.347 115.711 132.256 120.239 132.116C125.141 131.964 125.864 129.803 125.76 126.257L125.487 116.867L110.732 117.324L111 104.444L125.112 104.006L124.072 68.2879L138.448 67.8419Z" fill="#FA6425"/>
<path d="M301.931 -3.13069L266.253 -2.024L266.544 7.97285L253.699 8.37131L253.407 -1.62556L242.436 -1.28521C233.814 -1.01778 225.724 -6.6774 225.328 -20.2842C225.168 -25.7934 225.547 -29.8827 225.547 -29.8827L237.552 -29.9337C237.552 -29.9337 237.635 -25.7779 237.767 -21.2442C237.91 -16.3374 240.067 -15.6175 243.609 -15.7273L252.988 -16.0183L252.558 -30.7896L265.422 -30.5453L265.834 -16.4168L301.511 -17.5234L301.931 -3.13069Z" fill="#FA6425"/>
<path d="M178.142 305.279L208.52 286.461L203.275 277.958L214.212 271.183L219.457 279.686L228.799 273.899C236.14 269.351 245.98 270.198 253.118 281.771C256.009 286.457 257.722 290.185 257.722 290.185L247.34 296.238C247.34 296.238 245.192 292.685 242.814 288.829C240.239 284.655 238.01 285.112 234.995 286.98L227.008 291.927L234.758 304.491L223.483 310.719L216.071 298.703L185.693 317.52L178.142 305.279Z" fill="#FA6425"/>
<path d="M399.741 -31.4912C397.37 -29.8059 394.732 -28.4615 391.865 -27.5214C394.533 -29.9624 396.231 -33.3075 396.642 -36.9324C394.132 -34.6517 391.253 -32.8256 388.13 -31.5335C385.479 -33.4664 382.276 -34.4605 379.018 -34.3615C375.76 -34.2625 372.629 -33.0758 370.112 -30.9858C367.594 -28.8958 365.831 -26.0193 365.096 -22.8029C364.361 -19.5866 364.695 -16.2103 366.046 -13.1984C360.219 -12.3469 354.275 -12.7475 348.602 -14.3743C342.928 -16.001 337.651 -18.8176 333.112 -22.641C332.295 -20.2138 332.076 -17.5441 332.606 -14.8524C333.081 -12.4289 334.138 -10.1596 335.685 -8.24587C337.231 -6.33212 339.218 -4.83304 341.469 -3.88167C339.151 -3.49866 336.773 -3.68286 334.535 -4.41894L334.572 -4.2294C335.24 -0.830757 337.047 2.23321 339.687 4.44255C342.326 6.6519 345.634 7.87057 349.051 7.89178C347.029 8.90279 344.805 9.43405 342.547 9.44542C344.049 12.1858 346.357 14.3847 349.148 15.7342C351.939 17.0838 355.074 17.5165 358.113 16.9718C353.778 22.0847 347.867 25.5647 341.33 26.8521C340.173 27.0822 339.003 27.2432 337.826 27.3343C345.31 30.3433 353.483 31.1063 361.367 29.5321C388.06 24.2333 398.242 -1.08823 394.417 -20.5369C394.292 -21.1688 394.151 -21.8039 393.999 -22.4302C396.428 -25.0757 398.371 -28.1404 399.737 -31.4805L399.741 -31.4912Z" fill="#FA6425"/>
<path d="M467.954 219.13C466.244 221.315 464.914 223.69 463.961 226.187L463.959 226.176C463.303 222.936 463.228 219.609 463.737 216.352C463.302 215.953 462.871 215.543 462.455 215.126C449.647 202.293 444.542 177.815 462.22 160.104C467.436 154.866 474.061 151.258 481.302 149.712C480.451 150.384 479.639 151.106 478.873 151.874C474.539 156.203 471.798 161.88 471.089 167.99C473.131 166.018 475.743 164.741 478.56 164.337C481.376 163.933 484.255 164.423 486.795 165.738C485.077 166.904 483.65 168.447 482.621 170.253C485.24 168.518 488.384 167.749 491.522 168.077C494.659 168.405 497.596 169.809 499.834 172.052L499.959 172.177C497.876 172.764 495.968 173.843 494.393 175.322C496.595 174.892 498.874 175.014 501.027 175.677C503.18 176.341 505.141 177.525 506.736 179.124C508.509 180.9 509.699 183.043 510.309 185.308C504.902 184.726 499.443 185.288 494.286 186.959C489.129 188.629 484.389 191.37 480.375 195.004C482.938 196.603 484.909 199 485.983 201.823C487.058 204.646 487.175 207.737 486.316 210.617C485.458 213.497 483.672 216.004 481.236 217.749C478.8 219.494 475.85 220.38 472.844 220.268C471.118 222.851 469.849 225.716 469.093 228.737C467.563 225.769 467.158 222.355 467.954 219.13Z" fill="#FA6425"/>
<path d="M346.507 229.113C343.638 228.657 340.815 227.77 338.112 226.433C341.722 226.557 345.269 225.354 348.093 223.048C344.708 222.92 341.378 222.21 338.247 220.946C337.704 217.705 336.111 214.749 333.716 212.537C331.32 210.325 328.257 208.98 325.001 208.711C321.744 208.442 318.477 209.264 315.707 211.05C312.937 212.836 310.818 215.486 309.68 218.588C304.926 215.113 300.962 210.662 298.047 205.522C295.132 200.382 293.331 194.669 292.76 188.753C290.482 189.917 288.462 191.674 286.961 193.971C285.608 196.038 284.779 198.402 284.547 200.855C284.315 203.308 284.687 205.773 285.63 208.031C283.708 206.68 282.139 204.882 281.055 202.787L280.949 202.949C279.053 205.849 278.204 209.307 278.546 212.737C278.888 216.167 280.399 219.358 282.824 221.767C280.674 221.074 278.716 219.895 277.096 218.321C276.255 221.334 276.368 224.525 277.418 227.446C278.469 230.368 280.404 232.874 282.954 234.614C276.29 235.234 269.64 233.582 264.075 229.922C263.088 229.276 262.14 228.571 261.237 227.812C264.479 235.209 269.781 241.482 276.509 245.88C299.265 260.795 324.212 249.814 335.058 233.219C335.41 232.679 335.753 232.126 336.082 231.571C339.663 231.381 343.189 230.55 346.496 229.117L346.507 229.113Z" fill="#FA6425"/>
<path d="M399.025 294.105C396.535 294.106 396.016 292.842 396.536 291.124H396.54C397.585 286.396 407.614 272.468 407.614 272.468C408.485 271.093 408.833 270.404 407.616 268.861C407.186 268.267 406.269 267.382 405.221 266.369C404.143 265.328 402.925 264.151 401.954 263.019C398.427 259.099 395.767 255.794 395.022 253.517C394.347 251.228 395.525 250.07 397.874 250.068L406.095 250.064C408.299 250.063 409.407 251.279 411.803 253.909C412.817 255.023 414.063 256.39 415.72 258.026C420.597 262.663 422.685 263.266 423.907 263.265C425.563 263.264 426.058 262.802 426.06 260.483L426.064 253.208C426.065 251.21 426.71 250.053 431.937 250.05C440.653 250.045 450.217 255.258 457.007 264.88C467.193 278.969 469.975 289.625 469.973 291.77C469.973 292.975 469.502 294.066 467.154 294.068L458.927 294.072C456.826 294.073 456.037 293.168 455.258 290.919C451.24 279.365 444.466 269.268 441.679 269.27C440.633 269.27 440.153 269.746 440.152 272.366L440.145 284.312C440.331 287.712 441.535 289.182 442.426 290.271C442.977 290.943 443.408 291.47 443.407 292.215C443.407 293.124 442.62 294.081 441.314 294.082L428.387 294.089C426.646 294.09 426.07 293.172 426.071 291.108L426.08 275.038C426.081 273.317 425.295 272.717 424.772 272.717C423.726 272.718 422.855 273.319 420.938 275.213C415.012 281.747 410.826 291.802 410.826 291.802C410.302 293.007 409.337 294.099 407.245 294.1L399.025 294.105Z" fill="#FA6425"/>
<path d="M395.665 93.6958C393.51 92.4498 393.691 91.0942 394.999 89.8665L395.002 89.8681C398.267 86.2944 413.897 79.2492 413.897 79.2492C415.337 78.4941 415.982 78.0712 415.699 76.1236C415.623 75.3937 415.272 74.1675 414.87 72.7651C414.457 71.3223 413.99 69.6929 413.714 68.2254C412.618 63.061 411.965 58.8649 412.457 56.519C413.015 54.1967 414.613 53.7832 416.646 54.9587L423.763 59.0729C425.672 60.1761 426.024 61.7852 426.784 65.2642C427.107 66.7377 427.502 68.5468 428.12 70.7947C430.027 77.2558 431.534 78.8244 432.591 79.4357C434.025 80.2648 434.685 80.1119 435.843 78.1036L439.477 71.8007C440.475 70.0704 441.611 69.3905 446.137 72.0063C453.682 76.3682 459.358 85.677 460.433 97.4164C462.218 114.729 459.307 125.356 458.235 127.214C457.634 128.258 456.682 128.968 454.648 127.793L447.526 123.675C445.707 122.624 445.476 121.444 445.924 119.105C448.213 107.08 447.389 94.9368 444.976 93.5419C444.07 93.0184 443.418 93.19 442.109 95.4599L436.142 105.809C434.606 108.849 434.914 110.726 435.142 112.116C435.283 112.974 435.393 113.646 435.021 114.292C434.567 115.079 433.408 115.514 432.278 114.861L421.086 108.391C419.578 107.519 419.538 106.435 420.569 104.648L428.597 90.7261C429.456 89.2355 429.076 88.3216 428.623 88.0599C427.717 87.5364 426.664 87.6211 424.058 88.3024C415.67 90.9956 407.028 97.6122 407.028 97.6122C405.974 98.3941 404.593 98.857 402.782 97.81L395.665 93.6958Z" fill="#FA6425"/>
<path d="M350.173 56.434C352.578 55.7871 353.406 56.8732 353.347 58.667L353.344 58.6678C353.555 63.5047 347.463 79.5544 347.463 79.5544C346.976 81.1081 346.818 81.8638 348.393 83.0388C348.962 83.5004 350.076 84.1176 351.35 84.8235L351.352 84.8246C352.663 85.5506 354.142 86.3703 355.373 87.2112C359.793 90.0824 363.217 92.5836 364.524 94.5893C365.768 96.6252 364.929 98.0491 362.66 98.6593L354.719 100.795C352.589 101.368 351.204 100.481 348.21 98.5623C346.942 97.7498 345.385 96.7524 343.361 95.6026C337.452 92.3894 335.278 92.3489 334.098 92.6663C332.498 93.0967 332.139 93.6719 332.737 95.9108L334.612 102.937C335.127 104.867 334.802 106.152 329.753 107.51C321.333 109.775 310.745 107.221 301.699 99.6906C288.217 88.7265 282.777 79.1583 282.224 77.0865C281.914 75.923 282.086 74.7468 284.355 74.1365L292.303 71.9988C294.333 71.4528 295.329 72.1227 296.662 74.0922C303.529 84.2078 312.683 92.2007 315.375 91.4765C316.386 91.2047 316.726 90.6215 316.051 88.0909L312.971 76.553C311.913 73.3183 310.37 72.2108 309.228 71.3906C308.523 70.8843 307.97 70.4875 307.778 69.7675C307.543 68.8895 308.056 67.7618 309.318 67.4225L321.807 64.0634C323.489 63.611 324.282 64.3483 324.814 66.3412L328.957 81.8618C329.401 83.5235 330.315 83.8995 330.82 83.7636C331.831 83.4919 332.517 82.6854 333.88 80.3586C337.918 72.5132 339.365 61.7178 339.365 61.7178C339.56 60.4184 340.21 59.1136 342.231 58.57L350.173 56.434Z" fill="#FA6425"/>
<path d="M337.975 317.62L363.219 292.329L353.058 282.149L327.814 307.44L317.84 297.447L308.297 306.099L318.725 316.546L312.089 323.196C309.583 325.706 307.518 326.663 304.054 323.192C300.853 319.986 297.947 317.02 297.947 317.02L289.233 325.297C289.233 325.297 291.757 328.531 295.646 332.428C305.252 342.052 315.023 340.616 321.123 334.504L328.886 326.726L335.944 333.797L345.033 324.691L337.975 317.62Z" fill="#FA6425"/>
<path d="M388.895 162.167L379.679 127.642L365.789 131.378L375.005 165.903L361.371 169.57L364.068 182.168L378.323 178.334L380.746 187.41C381.661 190.838 381.454 193.107 376.718 194.38C372.343 195.557 368.324 196.598 368.324 196.598L371.113 208.29C371.113 208.29 375.173 207.715 380.49 206.285C393.621 202.753 397.274 193.558 395.047 185.215L392.213 174.598L401.86 172.003L398.542 159.572L388.895 162.167Z" fill="#FA6425"/>
<path d="M488.021 30.2912L522.491 21.0201L518.777 7.10838L484.308 16.3795L480.662 2.72308L468.086 5.43985L471.897 19.7175L462.835 22.1549C459.413 23.0753 457.149 22.8699 455.883 18.1271C454.713 13.7449 453.678 9.71922 453.678 9.71922L442.005 12.5261C442.005 12.5261 442.575 16.5933 443.996 21.9183C447.507 35.0704 456.68 38.7208 465.01 36.4804L475.611 33.6292L478.19 43.292L490.601 39.954L488.021 30.2912Z" fill="#FA6425"/>
<path d="M498.087 324.324L472.844 349.616L483.004 359.796L508.248 334.504L518.222 344.498L527.765 335.846L517.337 325.398L523.974 318.749C526.479 316.238 528.544 315.282 532.008 318.752C535.209 321.959 538.115 324.925 538.115 324.925L546.829 316.648C546.829 316.648 544.306 313.413 540.417 309.517C530.811 299.893 521.04 301.329 514.939 307.44L507.176 315.218L500.119 308.147L491.03 317.253L498.087 324.324Z" fill="#FA6425"/>
<path d="M610.803 -20.587C608.949 -18.3661 606.748 -16.4026 604.222 -14.7676C606.168 -17.7883 606.943 -21.4253 606.401 -25C604.566 -22.1734 602.258 -19.6874 599.577 -17.6498C596.516 -18.82 593.164 -18.95 590.043 -18.0197C586.921 -17.0893 584.204 -15.1506 582.313 -12.5046C580.422 -9.85866 579.464 -6.65339 579.586 -3.38648C579.709 -0.119576 580.905 3.02618 582.99 5.56242C577.581 7.87182 571.737 9.01257 565.835 8.91065C559.934 8.80874 554.107 7.46642 548.734 4.97083C548.573 7.50351 549.052 10.1149 550.26 12.5554C551.347 14.753 552.956 16.6537 554.944 18.0888C556.933 19.5239 559.241 20.4491 561.662 20.7823C559.521 21.7435 557.177 22.1769 554.824 22.0465L554.909 22.2183C556.435 25.2998 558.973 27.7689 562.094 29.2067C565.215 30.6445 568.727 30.9623 572.032 30.1064C570.341 31.5926 568.33 32.6714 566.152 33.2613C568.312 35.499 571.111 37.0116 574.156 37.5875C577.201 38.1635 580.341 37.7738 583.135 36.4731C580.272 42.4783 575.462 47.325 569.482 50.2335C568.423 50.7505 567.335 51.2047 566.222 51.5936C574.23 52.5543 582.322 51.1886 589.529 47.6601C613.943 35.7428 617.224 8.89621 608.495 -8.73717C608.211 -9.31005 607.911 -9.88171 607.601 -10.4421C609.263 -13.597 610.347 -17.0285 610.802 -20.5757L610.803 -20.587Z" fill="#FA6425"/>
<path d="M756.696 195.939C757.029 198.669 757.765 201.265 758.854 203.682L758.845 203.677C756.093 201.867 753.691 199.59 751.751 196.952C751.162 196.978 750.567 196.993 749.979 196.993C731.857 196.993 710.963 183.43 710.963 158.622C710.955 151.294 713.094 144.118 717.124 137.954C716.996 139.022 716.932 140.097 716.933 141.173C716.924 147.245 718.992 153.145 722.805 157.922C722.858 155.108 723.804 152.38 725.511 150.121C727.218 147.862 729.601 146.185 732.325 145.324C731.934 147.345 732.014 149.428 732.561 151.414C733.188 148.362 734.87 145.617 737.321 143.645C739.772 141.673 742.841 140.596 746.007 140.597H746.184C745.126 142.469 744.537 144.563 744.468 146.704C745.722 144.858 747.42 143.345 749.411 142.298C751.403 141.252 753.626 140.705 755.883 140.707C758.392 140.707 760.746 141.372 762.778 142.53C758.541 145.917 755.076 150.141 752.607 154.93C750.139 159.718 748.722 164.964 748.448 170.326C751.389 169.647 754.476 169.942 757.23 171.166C759.983 172.389 762.249 174.472 763.675 177.092C765.101 179.711 765.608 182.72 765.116 185.652C764.625 188.583 763.164 191.274 760.958 193.305C761.561 196.325 762.686 199.221 764.285 201.867C761.107 200.863 758.41 198.755 756.696 195.939Z" fill="#FA6425"/>
<path d="M626.832 242.491C623.943 242.791 620.987 242.665 618.03 242.079C621.549 241.272 624.664 239.211 626.794 236.279C623.492 237.026 620.092 237.199 616.74 236.793C615.377 233.83 613.073 231.41 610.187 229.906C607.3 228.403 603.993 227.902 600.778 228.48C597.563 229.057 594.62 230.682 592.407 233.102C590.193 235.522 588.832 238.601 588.536 241.862C583.044 239.756 578.063 236.512 573.917 232.34C569.771 228.168 566.553 223.162 564.47 217.646C562.571 219.345 561.074 221.544 560.219 224.127C559.447 226.452 559.258 228.928 559.669 231.335C560.08 233.742 561.077 236.006 562.573 237.926C560.366 237.126 558.385 235.808 556.795 234.08L556.735 234.262C555.655 237.524 555.73 241.052 556.948 244.247C558.166 247.442 560.451 250.108 563.417 251.793C561.161 251.68 558.964 251.054 556.992 249.963C556.96 253.063 557.894 256.088 559.665 258.614C561.436 261.141 563.954 263.043 566.868 264.055C560.591 266.357 553.74 266.481 547.417 264.406C546.297 264.04 545.199 263.609 544.129 263.114C549.176 269.362 555.921 274.006 563.558 276.491C589.4 284.93 610.655 268.022 616.836 249.357C617.037 248.75 617.225 248.133 617.398 247.518C620.808 246.417 624 244.717 626.823 242.498L626.832 242.491Z" fill="#FA6425"/>
<path d="M738.827 226.113C740.983 224.877 742.064 225.704 742.471 227.436L742.469 227.437C743.925 232.013 742.194 248.936 742.194 248.936C742.126 250.548 742.169 251.312 743.994 252.033C744.663 252.328 745.898 252.633 747.311 252.982L747.312 252.982C748.766 253.341 750.41 253.747 751.816 254.236C756.83 255.85 760.784 257.366 762.566 258.951C764.294 260.58 763.852 262.158 761.819 263.324L754.7 267.405C752.791 268.5 751.224 268.006 747.835 266.937L747.834 266.937C746.399 266.485 744.638 265.929 742.386 265.348C735.846 263.788 733.736 264.307 732.678 264.913C731.244 265.736 731.046 266.378 732.203 268.368L735.833 274.612C736.83 276.326 736.849 277.64 732.323 280.235C724.776 284.561 713.888 284.832 703.2 279.945C687.34 272.909 679.609 265.146 678.538 263.305C677.937 262.271 677.799 261.101 679.833 259.935L686.957 255.851C688.777 254.808 689.912 255.193 691.709 256.737C700.961 264.657 711.872 269.96 714.285 268.576C715.191 268.057 715.369 267.411 714.061 265.162L708.1 254.909C706.241 252.085 704.464 251.42 703.148 250.928C702.336 250.625 701.699 250.387 701.327 249.747C700.874 248.967 701.077 247.756 702.208 247.107L713.402 240.689C714.91 239.825 715.867 240.327 716.897 242.098L724.916 255.891C725.774 257.367 726.755 257.493 727.208 257.233C728.113 256.714 728.567 255.766 729.282 253.189C731.152 244.645 729.755 233.942 729.755 233.942C729.607 232.648 729.898 231.232 731.709 230.194L738.827 226.113Z" fill="#FA6425"/>
<path d="M716.612 81.4024C718.883 82.4129 718.842 83.7676 717.667 85.1099L717.664 85.1086C714.784 88.9611 699.959 97.4848 699.959 97.4848C698.604 98.3746 698.005 98.8566 698.487 100.748C698.638 101.459 699.113 102.632 699.656 103.973L699.657 103.975C700.216 105.355 700.847 106.915 701.272 108.333C702.892 113.313 703.973 117.384 703.724 119.746C703.406 122.092 701.86 122.661 699.717 121.707L692.215 118.37C690.204 117.476 689.689 115.925 688.575 112.572C688.103 111.152 687.524 109.409 686.679 107.256C684.119 101.079 682.46 99.6848 681.345 99.1891C679.833 98.5166 679.193 98.734 678.247 100.831L675.279 107.411C674.464 109.217 673.403 110.002 668.634 107.881C660.681 104.343 654.08 95.7402 651.806 84.2765C648.255 67.391 650.059 56.6213 650.935 54.6811C651.426 53.5915 652.3 52.795 654.443 53.7484L661.95 57.0877C663.868 57.9407 664.218 59.0803 664.012 61.4309C662.97 73.5164 665.036 85.4033 667.579 86.5346C668.533 86.9592 669.164 86.7241 670.233 84.3543L675.107 73.5495C676.323 70.3984 675.824 68.5793 675.455 67.2321C675.227 66.4006 675.048 65.7488 675.352 65.0746C675.723 64.2524 676.83 63.7066 678.022 64.2367L689.818 69.484C691.407 70.1908 691.558 71.2554 690.716 73.1216L684.16 87.656C683.458 89.2122 683.93 90.0746 684.407 90.2869C685.362 90.7114 686.401 90.5215 688.923 89.5868C696.991 86.0846 704.907 78.6894 704.907 78.6894C705.876 77.8121 707.201 77.2165 709.11 78.0656L716.612 81.4024Z" fill="#FA6425"/>
<path d="M585.68 76.2787C587.836 75.0428 588.917 75.8699 589.324 77.602L589.321 77.6035C590.777 82.1788 589.046 99.1023 589.046 99.1023C588.978 100.714 589.021 101.478 590.847 102.199C591.516 102.495 592.752 102.8 594.165 103.148C595.619 103.507 597.262 103.913 598.669 104.402C603.682 106.017 607.637 107.532 609.418 109.117C611.147 110.746 610.705 112.324 608.671 113.49L601.553 117.571C599.644 118.666 598.077 118.172 594.688 117.103L594.685 117.103L594.684 117.102C593.25 116.65 591.489 116.095 589.238 115.514C582.698 113.954 580.588 114.473 579.53 115.079C578.096 115.902 577.898 116.544 579.055 118.534L582.685 124.778C583.682 126.492 583.701 127.806 579.175 130.401C571.628 134.728 560.74 134.998 550.053 130.111C534.193 123.075 526.461 115.312 525.391 113.471C524.79 112.437 524.652 111.267 526.686 110.101L533.809 106.017C535.629 104.974 536.764 105.359 538.562 106.903C547.813 114.823 558.724 120.126 561.137 118.742C562.043 118.223 562.221 117.577 560.914 115.329L554.952 105.075C553.093 102.251 551.316 101.586 550 101.094C549.188 100.791 548.552 100.553 548.18 99.9128C547.726 99.1326 547.93 97.9217 549.06 97.2734L560.254 90.8556C561.762 89.9912 562.719 90.4934 563.749 92.2643L571.768 106.057C572.627 107.533 573.607 107.659 574.06 107.399C574.966 106.88 575.42 105.932 576.134 103.355C578.004 94.8111 576.608 84.1075 576.608 84.1075C576.459 82.814 576.75 81.3983 578.561 80.3598L585.68 76.2787Z" fill="#FA6425"/>
<path d="M622.216 325.887L611.07 359.54L624.726 364L635.872 330.346L649.277 334.724L653.9 322.807L639.885 318.23L642.815 309.382C643.921 306.041 645.334 304.272 649.989 305.792C654.291 307.197 658.221 308.52 658.221 308.52L662.273 297.305C662.273 297.305 658.563 295.572 653.336 293.865C640.426 289.649 632.349 295.288 629.656 303.421L626.229 313.77L616.743 310.672L612.73 322.789L622.216 325.887Z" fill="#FA6425"/>
<path d="M635.285 179.961L648.381 212.915L661.753 207.674L648.656 174.721L661.783 169.577L657.665 157.478L643.941 162.856L640.498 154.193C639.198 150.921 639.145 148.664 643.704 146.878C647.916 145.227 651.79 143.749 651.79 143.749L647.685 132.553C647.685 132.553 643.717 133.576 638.598 135.582C625.957 140.536 623.377 149.999 626.542 157.962L630.569 168.096L621.281 171.736L625.997 183.601L635.285 179.961Z" fill="#FA6425"/>
<path d="M712.068 15.9053L742.964 -1.8081L735.776 -14.1707L704.88 3.54264L697.824 -8.59312L686.379 -2.76752L693.756 9.92031L685.633 14.5772C682.566 16.3356 680.326 16.7198 677.875 12.5051C675.611 8.61086 673.569 5.02332 673.569 5.02332L663.021 10.7032C663.021 10.7032 664.624 14.4499 667.375 19.182C674.17 30.8696 683.976 32.0109 691.442 27.7303L700.944 22.2829L705.936 30.8697L717.06 24.4921L712.068 15.9053Z" fill="#FA6425"/>
<path d="M781.905 316.921L764.067 347.602L776.516 354.739L794.354 324.059L806.575 331.065L813.554 320.338L800.777 313.012L805.466 304.946C807.237 301.901 808.984 300.456 813.229 302.889C817.15 305.137 820.725 307.23 820.725 307.23L827 297.074C827 297.074 823.725 294.625 818.96 291.893C807.19 285.145 798.124 289.025 793.813 296.44L788.327 305.875L779.68 300.917L773.258 311.964L781.905 316.921Z" fill="#FA6425"/>
</svg>
