<svg width="22" height="24" viewBox="0 0 22 24" fill="none" xmlns="http://www.w3.org/2000/svg">
<path d="M11.46 1.15848C11.7134 0.893503 11.7134 0.463845 11.4601 0.198809C11.2069 -0.0662265 10.7962 -0.066276 10.5429 0.198699C10.269 0.485259 10.0516 0.825476 9.90338 1.19992C9.75511 1.57436 9.6788 1.97569 9.6788 2.381C9.6788 2.7863 9.75511 3.18763 9.90338 3.56208C10.0516 3.93641 10.2691 4.27678 10.5429 4.56329C10.8524 4.88743 11.0262 5.32683 11.0262 5.78496C11.0262 6.24321 10.8523 6.68272 10.5427 7.00687C10.2895 7.27198 10.2896 7.70164 10.543 7.96654C10.7964 8.23145 11.2071 8.23128 11.4603 7.96617C12.0129 7.38753 12.3233 6.60298 12.3233 5.78496C12.3233 4.96695 12.0127 4.18216 11.46 3.60351C11.3066 3.44298 11.1848 3.2524 11.1018 3.04263C11.0318 2.86579 10.9904 2.67825 10.9791 2.48769C10.977 2.45221 10.976 2.41663 10.976 2.381C10.976 2.15395 11.0187 1.92912 11.1018 1.71936C11.1233 1.66501 11.1474 1.61195 11.174 1.56037C11.25 1.41286 11.3463 1.27742 11.46 1.15848Z" fill="black"/>
<path d="M6.86667 2.5697C7.11986 2.30459 7.1197 1.87494 6.86632 1.61003C6.61293 1.34513 6.20227 1.34529 5.94908 1.6104C5.39644 2.18905 5.08601 2.9736 5.08601 3.79161C5.08601 4.60963 5.39644 5.39417 5.94908 5.97282C6.25867 6.29698 6.43257 6.73648 6.43257 7.19473C6.43257 7.65298 6.25867 8.09248 5.94908 8.41664C5.69589 8.68175 5.69605 9.1114 5.94943 9.37631C6.20282 9.64121 6.61348 9.64105 6.86667 9.37594C7.41931 8.79729 7.72974 8.01275 7.72974 7.19473C7.72974 6.37671 7.41931 5.59217 6.86667 5.01352C6.55708 4.68936 6.38318 4.24986 6.38318 3.79161C6.38318 3.33336 6.55708 2.89386 6.86667 2.5697Z" fill="black"/>
<path d="M16.0555 2.5697C16.3087 2.30459 16.3085 1.87494 16.0551 1.61003C15.8018 1.34513 15.3911 1.34529 15.1379 1.6104C14.5853 2.18905 14.2748 2.97359 14.2748 3.79161C14.2748 4.60963 14.5853 5.39418 15.1379 5.97282C15.4475 6.29698 15.6214 6.73648 15.6214 7.19473C15.6214 7.65298 15.4475 8.09248 15.1379 8.41664C14.8847 8.68175 14.8849 9.1114 15.1383 9.37631C15.3916 9.64121 15.8023 9.64105 16.0555 9.37594C16.6081 8.79729 16.9186 8.01275 16.9186 7.19473C16.9186 6.37671 16.6081 5.59217 16.0555 5.01352C15.7459 4.68936 15.572 4.24986 15.572 3.79161C15.572 3.33336 15.7459 2.89386 16.0555 2.5697Z" fill="black"/>
<path fill-rule="evenodd" clip-rule="evenodd" d="M21.619 9.51047C21.9432 9.3511 22.0825 8.94692 21.9302 8.60772C21.7779 8.26852 21.3916 8.12274 21.0674 8.28211L13.8855 11.8126H0.650206C0.296478 11.8126 0.00798388 12.1091 0.00172318 12.4791C-0.0241339 14.0074 0.241235 15.5258 0.782341 16.9455C1.32345 18.3653 2.12945 19.6581 3.15329 20.7485C3.84821 21.4885 4.63404 22.1252 5.48848 22.6428H4.10716C3.74896 22.6428 3.45858 22.9466 3.45858 23.3214C3.45858 23.6962 3.74896 24 4.10716 24H17.8961C18.2543 24 18.5447 23.6962 18.5447 23.3214C18.5447 22.9466 18.2543 22.6428 17.8961 22.6428H16.5115C17.366 22.1252 18.1518 21.4885 18.8467 20.7485C19.8706 19.6581 20.6766 18.3653 21.2177 16.9455C21.7588 15.5258 22.0241 14.0074 21.9983 12.4791C21.992 12.1091 21.7035 11.8126 21.3498 11.8126H16.9359L21.619 9.51047ZM14.0186 13.1697C14.0267 13.1699 14.0349 13.1699 14.043 13.1697H20.6917C20.6402 14.291 20.4112 15.3973 20.0127 16.4429C19.5354 17.6952 18.8245 18.8356 17.9214 19.7973C17.0183 20.7591 15.9411 21.523 14.7527 22.0445C14.1468 22.3104 13.5181 22.5105 12.8766 22.6428H9.12336C8.48186 22.5105 7.8532 22.3104 7.24726 22.0445C6.0589 21.523 4.98172 20.7591 4.07861 19.7973C3.1755 18.8356 2.46455 17.6952 1.98725 16.4429C1.58875 15.3973 1.3598 14.291 1.30834 13.1697H14.0186Z" fill="black"/>
</svg>
