<svg width="43" height="45" viewBox="0 0 43 45" fill="none" xmlns="http://www.w3.org/2000/svg">
<path d="M22.3626 2.17215C22.8376 1.67532 22.8376 0.869709 22.3628 0.372767C21.8879 -0.124175 21.1179 -0.124267 20.643 0.37256C20.1293 0.90986 19.7218 1.54777 19.4438 2.24984C19.1658 2.95192 19.0228 3.70442 19.0228 4.46437C19.0228 5.22431 19.1658 5.97681 19.4438 6.67889C19.7218 7.38077 20.1295 8.01897 20.643 8.55618C21.2232 9.16393 21.5491 9.9878 21.5491 10.8468C21.5491 11.706 21.223 12.5301 20.6425 13.1379C20.1678 13.635 20.1681 14.4406 20.6432 14.9373C21.1183 15.434 21.8883 15.4336 22.363 14.9366C23.3992 13.8516 23.9813 12.3806 23.9813 10.8468C23.9813 9.31302 23.3988 7.84155 22.3626 6.75659C22.0748 6.4556 21.8466 6.09824 21.6908 5.70494C21.5595 5.37336 21.482 5.02171 21.4608 4.66441C21.4569 4.59789 21.4549 4.53118 21.4549 4.46437C21.4549 4.03865 21.5351 3.6171 21.6908 3.2238C21.7312 3.1219 21.7764 3.02241 21.8263 2.92569C21.9688 2.64911 22.1494 2.39516 22.3626 2.17215Z" fill="#F0AD00"/>
<path d="M13.75 4.81819C14.2247 4.32112 14.2244 3.51551 13.7493 3.01881C13.2742 2.52212 12.5043 2.52243 12.0295 3.0195C10.9933 4.10446 10.4113 5.57549 10.4113 7.10927C10.4113 8.64305 10.9933 10.1141 12.0295 11.199C12.61 11.8068 12.9361 12.6309 12.9361 13.4901C12.9361 14.3493 12.61 15.1734 12.0295 15.7812C11.5548 16.2783 11.5551 17.0839 12.0302 17.5806C12.5053 18.0773 13.2753 18.077 13.75 17.5799C14.7862 16.4949 15.3683 15.0239 15.3683 13.4901C15.3683 11.9563 14.7862 10.4853 13.75 9.40035C13.1695 8.79256 12.8435 7.96849 12.8435 7.10927C12.8435 6.25005 13.1695 5.42598 13.75 4.81819Z" fill="#F0AD00"/>
<path d="M30.9791 4.81819C31.4538 4.32112 31.4535 3.51551 30.9784 3.01881C30.5033 2.52212 29.7333 2.52243 29.2586 3.0195C28.2224 4.10446 27.6403 5.57549 27.6403 7.10927C27.6403 8.64305 28.2224 10.1141 29.2586 11.199C29.8391 11.8068 30.1651 12.6309 30.1651 13.4901C30.1651 14.3493 29.8391 15.1734 29.2586 15.7812C28.7838 16.2783 28.7841 17.0839 29.2592 17.5806C29.7343 18.0773 30.5043 18.077 30.9791 17.5799C32.0153 16.4949 32.5973 15.0239 32.5973 13.4901C32.5973 11.9563 32.0153 10.4853 30.9791 9.40035C30.3986 8.79256 30.0725 7.96849 30.0725 7.10927C30.0725 6.25005 30.3986 5.42598 30.9791 4.81819Z" fill="#F0AD00"/>
<path fill-rule="evenodd" clip-rule="evenodd" d="M41.4106 17.8321C42.0185 17.5333 42.2797 16.7755 41.9941 16.1395C41.7085 15.5035 40.9842 15.2301 40.3763 15.529L26.9103 22.1486H2.09414C1.4309 22.1486 0.88997 22.7046 0.878231 23.3984C0.829749 26.2639 1.32732 29.1108 2.34189 31.7729C3.35646 34.435 4.86771 36.859 6.78743 38.9034C8.0904 40.291 9.56382 41.4848 11.1659 42.4553H8.57593C7.9043 42.4553 7.35983 43.0249 7.35983 43.7276C7.35983 44.4303 7.9043 45 8.57593 45H34.4301C35.1018 45 35.6462 44.4303 35.6462 43.7276C35.6462 43.0249 35.1018 42.4553 34.4301 42.4553H31.8341C33.4362 41.4848 34.9096 40.291 36.2126 38.9034C38.1323 36.859 39.6435 34.435 40.6581 31.7729C41.6727 29.1108 42.1702 26.2639 42.1218 23.3984C42.11 22.7046 41.5691 22.1486 40.9059 22.1486H32.6298L41.4106 17.8321ZM27.1599 24.6933C27.1751 24.6936 27.1904 24.6936 27.2056 24.6933H39.6719C39.5754 26.7957 39.1461 28.8699 38.3989 30.8304C37.504 33.1786 36.1709 35.3167 34.4776 37.12C32.7843 38.9233 30.7646 40.3557 28.5364 41.3334C27.4002 41.8319 26.2215 42.2072 25.0187 42.4553H17.9813C16.7785 42.2072 15.5997 41.8319 14.4636 41.3334C12.2354 40.3557 10.2157 38.9233 8.5224 37.12C6.82907 35.3167 5.49603 33.1786 4.6011 30.8304C3.85391 28.8699 3.42462 26.7957 3.32813 24.6933H27.1599Z" fill="#F0AD00"/>
</svg>
