<svg width="454" height="406" viewBox="0 0 454 406" fill="none" xmlns="http://www.w3.org/2000/svg">
<path fill-rule="evenodd" clip-rule="evenodd" d="M227 20.5672L282.56 145.476C284.546 149.941 288.322 153.4 292.992 155.033L430.159 203L292.992 250.967C288.322 252.6 284.546 256.059 282.56 260.524L227 385.433L171.44 260.524C169.454 256.059 165.678 252.6 161.008 250.967L23.8411 203L161.008 155.033C165.678 153.4 169.454 149.941 171.44 145.476L227 20.5672ZM221.517 3.52607C223.608 -1.17537 230.392 -1.17535 232.483 3.5261L293.526 140.761C294.188 142.25 295.446 143.403 297.003 143.947L450.021 197.457C455.326 199.312 455.326 206.688 450.021 208.543L297.003 262.053C295.446 262.597 294.188 263.75 293.526 265.239L232.483 402.474C230.392 407.175 223.608 407.175 221.517 402.474L160.474 265.239C159.812 263.75 158.554 262.597 156.997 262.053L3.97877 208.543C-1.32626 206.688 -1.32626 199.312 3.97877 197.457L156.997 143.947C158.554 143.403 159.812 142.25 160.474 140.761L221.517 3.52607Z" fill="#F9F9F9"/>
</svg>
