<svg width="338" height="309" viewBox="0 0 338 309" fill="none" xmlns="http://www.w3.org/2000/svg">
<path fill-rule="evenodd" clip-rule="evenodd" d="M169 20.9944L208.13 110.678C210.117 115.234 213.899 118.764 218.578 120.432L314.139 154.5L218.578 188.568C213.899 190.236 210.117 193.766 208.13 198.322L169 288.006L129.87 198.322C127.883 193.766 124.101 190.236 119.422 188.568L23.8612 154.5L119.422 120.432C124.101 118.764 127.883 115.234 129.87 110.678L169 20.9944ZM163.505 3.5991C165.599 -1.19969 172.401 -1.1997 174.495 3.59909L219.119 105.877C219.782 107.395 221.042 108.572 222.602 109.128L334.016 148.848C339.328 150.742 339.328 158.258 334.016 160.152L222.602 199.872C221.042 200.428 219.782 201.605 219.119 203.123L174.495 305.401C172.401 310.2 165.599 310.2 163.505 305.401L118.881 203.123C118.218 201.605 116.958 200.428 115.398 199.872L3.98353 160.152C-1.32786 158.258 -1.32783 150.742 3.98353 148.848L115.398 109.128C116.958 108.572 118.218 107.395 118.881 105.877L163.505 3.5991Z" fill="#F9F9F9"/>
</svg>
