<svg width="304" height="278" viewBox="0 0 304 278" fill="none" xmlns="http://www.w3.org/2000/svg">
<path fill-rule="evenodd" clip-rule="evenodd" d="M152 20.9362L186.369 99.5952C188.357 104.145 192.131 107.667 196.797 109.328L280.145 139L196.797 168.672C192.131 170.333 188.357 173.855 186.369 178.405L152 257.064L117.631 178.405C115.643 173.855 111.869 170.333 107.203 168.672L23.8547 139L107.203 109.328C111.869 107.667 115.643 104.145 117.631 99.5952L152 20.9362ZM146.525 3.58967C148.616 -1.19656 155.384 -1.19655 157.475 3.58968L197.319 94.7793C197.982 96.2958 199.24 97.47 200.795 98.0237L300.021 133.348C305.326 135.236 305.326 142.764 300.021 144.652L200.795 179.976C199.24 180.53 197.982 181.704 197.319 183.221L157.475 274.41C155.384 279.197 148.616 279.197 146.525 274.41L106.681 183.221C106.018 181.704 104.76 180.53 103.205 179.976L3.97898 144.652C-1.32632 142.764 -1.32632 135.236 3.97895 133.348L103.205 98.0237C104.76 97.47 106.018 96.2958 106.681 94.7793L146.525 3.58967Z" fill="#F9F9F9"/>
</svg>
