<svg width="18" height="17" viewBox="0 0 18 17" fill="none" xmlns="http://www.w3.org/2000/svg">
<path d="M14.3783 9.64038L7.70362 3.99385C7.87581 3.64271 8.19723 3.33235 8.6679 3.06278C9.32683 2.68537 10.0018 2.55128 10.8261 2.45796L15.4802 6.35779C15.5767 7.81764 15.0601 8.87105 14.3783 9.64038ZM5.72017 10.9378L8.20451 13.0502C6.73741 13.7642 5.53662 14.0732 4.76748 14.2612L3.58042 13.2997C4.52175 12.7605 5.20362 11.9912 5.72017 10.9378ZM12.9824 10.6924C11.8528 11.3394 10.8173 11.9325 9.91499 12.323L6.2987 9.34386C6.49383 8.6008 6.63385 7.76305 6.5305 6.93843C6.49833 6.45182 6.5603 5.91128 6.67738 5.46545L12.9824 10.6924Z" fill="black"/>
<path fill-rule="evenodd" clip-rule="evenodd" d="M7.34738 1.04075L7.38196 1.02094C8.90635 0.147845 10.867 -0.225291 12.6717 0.138466C14.5439 0.515819 16.0547 1.71914 16.8911 3.15637C18.4687 5.86744 18.1691 8.18379 17.1955 9.88583C16.2882 11.4719 14.8843 12.3814 14.4058 12.6554C9.67956 15.3624 6.64241 16.5831 4.60868 16.9067C3.57067 17.0718 2.67091 17.0243 1.91086 16.7117C1.1158 16.3847 0.645768 15.8392 0.356674 15.3425C0.0283033 14.7782 -0.101509 14.0995 0.0873981 13.4241C0.275757 12.7506 0.737967 12.2335 1.30505 11.9087L1.49505 11.7999C3.09472 10.8837 4.13443 9.0503 4.11745 7.1001C3.9986 4.64807 5.26158 2.39088 7.31394 1.06239L7.34738 1.04075ZM5.56964 7.04822C5.6023 9.49858 4.30781 11.8449 2.21783 13.0419L2.02783 13.1508C1.45784 13.4772 1.29338 14.0652 1.61667 14.6208C2.31715 15.8245 4.27815 16.8 13.683 11.4134C14.443 10.9781 18.2713 8.41505 15.6311 3.87803C14.9845 2.76693 13.809 1.83529 12.3741 1.54606C10.9391 1.25684 9.33973 1.55564 8.10475 2.26298C6.44865 3.33496 5.4675 5.13146 5.56964 7.04822Z" fill="black"/>
</svg>
