<svg width="41" height="30" viewBox="0 0 41 30" fill="none" xmlns="http://www.w3.org/2000/svg">
<path d="M31.3139 20.7873L21.3529 6.44689C21.8737 5.85385 22.6627 5.41578 23.7198 5.13268C25.1998 4.73634 26.5817 4.81979 28.2318 5.05822L35.1973 14.985C34.6092 17.8638 33.0466 19.6429 31.3139 20.7873ZM13.8128 18.8977L17.5147 24.256C14.2866 24.8937 11.7909 24.8818 10.1975 24.8549L8.40328 22.3874C10.5175 21.8212 12.2502 20.6768 13.8128 18.8977ZM28.0445 22.1164C25.5074 22.7958 23.1818 23.4186 21.2223 23.7166L15.7829 16.1024C16.5565 14.7614 17.2734 13.2087 17.5108 11.5577C17.7068 10.5982 18.1143 9.58193 18.5784 8.77731L28.0445 22.1164Z" fill="#724941"/>
<path fill-rule="evenodd" clip-rule="evenodd" d="M22.2298 0.541521L22.3075 0.520721C25.7313 -0.396184 29.7366 -0.12206 33.0477 1.50111C36.4826 3.18494 38.7769 6.28593 39.6374 9.49724C41.2607 15.5548 39.4484 19.8923 36.6539 22.6962C34.0496 25.3091 30.8404 26.3577 29.7657 26.6454C19.1506 29.4882 12.6047 30.3094 8.48386 29.9021C6.38056 29.6941 4.65869 29.1444 3.34891 28.1518C1.97881 27.1135 1.35589 25.817 1.05844 24.7071C0.720571 23.4463 0.829045 22.0646 1.55464 20.8516C2.27812 19.642 3.45031 18.8748 4.72397 18.5337L5.15071 18.4194C8.74358 17.4572 11.7364 14.4324 12.7393 10.6436C13.8111 5.83024 17.4625 2.0975 22.1534 0.566467L22.2298 0.541521ZM15.5867 11.2818C14.3485 16.048 10.5885 19.9375 5.8944 21.1946L5.46766 21.3089C4.18746 21.6517 3.55575 22.7078 3.8884 23.9492C4.60914 26.6387 7.89868 29.5272 29.0221 23.8703C30.729 23.4131 39.5241 20.3926 36.8075 10.2551C36.1422 7.77249 34.3546 5.36867 31.722 4.0781C29.0893 2.78753 25.825 2.55307 23.0512 3.2959C19.266 4.53133 16.4066 7.51445 15.5867 11.2818Z" fill="#724941"/>
</svg>
