<svg width="21" height="16" viewBox="0 0 21 16" fill="none" xmlns="http://www.w3.org/2000/svg">
<path d="M16.2341 11.0865L10.9215 3.43834C11.1993 3.12205 11.6201 2.88842 12.1839 2.73743C12.9732 2.52605 13.7103 2.57056 14.5903 2.69772L18.3052 7.99201C17.9916 9.52736 17.1582 10.4762 16.2341 11.0865ZM6.90016 10.0788L8.87449 12.9365C7.15287 13.2766 5.8218 13.2703 4.972 13.256L4.01508 11.9399C5.14267 11.638 6.06678 11.0276 6.90016 10.0788ZM14.4904 11.7954C13.1373 12.1578 11.8969 12.4899 10.8519 12.6489L7.95087 8.58794C8.36346 7.87272 8.74581 7.04465 8.8724 6.16413C8.97696 5.65235 9.19427 5.11037 9.44183 4.68123L14.4904 11.7954Z" fill="black"/>
<path fill-rule="evenodd" clip-rule="evenodd" d="M11.3892 0.288811L11.4307 0.277718C13.2567 -0.211298 15.3928 -0.0650984 17.1588 0.800591C18.9907 1.69864 20.2143 3.3525 20.6733 5.0652C21.5391 8.29591 20.5725 10.6092 19.0821 12.1046C17.6931 13.4982 15.9815 14.0574 15.4084 14.2109C9.74698 15.7271 6.25586 16.165 4.05806 15.9478C2.9363 15.8369 2.01797 15.5437 1.31942 15.0143C0.588698 14.4606 0.256477 13.7691 0.097834 13.1771C-0.0823621 12.5047 -0.0245096 11.7678 0.362472 11.1208C0.74833 10.4757 1.3735 10.0666 2.05279 9.88465L2.28038 9.8237C4.19658 9.31053 5.79272 7.69728 6.32765 5.67658C6.89925 3.10946 8.84668 1.11867 11.3485 0.302116L11.3892 0.288811ZM7.84623 6.01694C7.18585 8.55895 5.18052 10.6333 2.67701 11.3038L2.44942 11.3647C1.76664 11.5476 1.42974 12.1109 1.60715 12.7729C1.99154 14.2073 3.74596 15.7478 15.0118 12.7308C15.9221 12.487 20.6129 10.876 19.164 5.4694C18.8092 4.14533 17.8558 2.86329 16.4517 2.17499C15.0476 1.48668 13.3067 1.36164 11.8273 1.75782C9.80855 2.41671 8.2835 4.0077 7.84623 6.01694Z" fill="black"/>
</svg>
