<svg width="28" height="29" viewBox="0 0 28 29" fill="none" xmlns="http://www.w3.org/2000/svg">
<path d="M9.375 9.70474H12.4583V21.8254H9.375V9.70474Z" fill="black"/>
<path d="M18.6251 9.70474H15.5417V21.8254H18.6251V9.70474Z" fill="black"/>
<path fill-rule="evenodd" clip-rule="evenodd" d="M21.5 4.5V3C21.5 2.20435 21.1839 1.44129 20.6213 0.87868C20.0587 0.316071 19.2956 0 18.5 0H9.5C8.70435 0 7.94129 0.316071 7.37868 0.87868C6.81607 1.44129 6.5 2.20435 6.5 3V4.5H2C1.60218 4.5 1.22064 4.65804 0.93934 4.93934C0.658035 5.22064 0.5 5.60218 0.5 6C0.5 6.39782 0.658035 6.77936 0.93934 7.06066C1.22064 7.34196 1.60218 7.5 2 7.5H3.5V24C3.5 25.1935 3.97411 26.3381 4.81802 27.182C5.66193 28.0259 6.80653 28.5 8 28.5H20C21.1935 28.5 22.3381 28.0259 23.182 27.182C24.0259 26.3381 24.5 25.1935 24.5 24V7.5H26C26.3978 7.5 26.7794 7.34196 27.0607 7.06066C27.342 6.77936 27.5 6.39782 27.5 6C27.5 5.60218 27.342 5.22064 27.0607 4.93934C26.7794 4.65804 26.3978 4.5 26 4.5H21.5ZM18.5 3H9.5V4.5H18.5V3ZM21.5 7.5H6.5V24C6.5 24.3978 6.65804 24.7794 6.93934 25.0607C7.22064 25.342 7.60218 25.5 8 25.5H20C20.3978 25.5 20.7794 25.342 21.0607 25.0607C21.342 24.7794 21.5 24.3978 21.5 24V7.5Z" fill="black"/>
</svg>
